<svg version="1.1" viewBox="0 0 24 24" xmlns="http://www.w3.org/2000/svg">
 <path d="m12 3c-0.55228 0-1 0.44772-1 1s0.44772 1 1 1c0.55228 6e-7 1-0.44772 1-1 0-0.55228-0.44772-1-1-1zm-3 0.5a1 1 0 0 0-1 1 1 1 0 0 0 1 1 1 1 0 0 0 1-1 1 1 0 0 0-1-1zm6 0a1 1 0 0 0-1 1 1 1 0 0 0 1 1 1 1 0 0 0 1-1 1 1 0 0 0-1-1zm-8.8379 1.3906c-2.5179 1.8183-4.1621 4.7756-4.1621 8.1094h2c-2e-7 -2.6093 1.239-4.9201 3.1621-6.3789l-1-1.7305zm11.838 0.10938a1 1 0 0 0-1 1 1 1 0 0 0 1 1 1 1 0 0 0 1-1 1 1 0 0 0-1-1zm-6 1c-3.8549 1e-7 -7 3.1451-7 7-5e-7 3.8549 3.1451 7 7 7 3.8549 0 7-3.1451 7-7-1e-6 -3.8549-3.1451-7-7-7zm8 1.5a1 1 0 0 0-1 1 1 1 0 0 0 1 1 1 1 0 0 0 1-1 1 1 0 0 0-1-1zm-8 0.36719c2.8461 0 5.1328 2.2867 5.1328 5.1328 1e-6 2.8461-2.2867 5.1328-5.1328 5.1328-2.8461 0-5.1328-2.2867-5.1328-5.1328-2e-7 -1.5455 0.67607-2.9243 1.748-3.8633l2.5195 4.3633 1.7305-1-2.5176-4.3613c0.51806-0.17466 1.0735-0.27148 1.6523-0.27148z"/>
</svg>
