<svg id="svg1" version="1.1" viewBox="0 0 24 24" xmlns="http://www.w3.org/2000/svg">
 <path id="Union" d="m2 1v3.7578c1.37-1.0992 3.1074-1.7578 5-1.7578 4.4173 0 8 3.5827 8 8 0 1.0615-0.20853 2.0732-0.58398 3h7.584v-13zm5 4c-3.313 0-6 2.687-6 6 0 3.314 2.687 6 6 6 3.313 0 6-2.686 6-6 0-3.313-2.687-6-6-6zm0 2c2.209 0 4 1.791 4 4 0 2.209-1.791 4-4 4s-4-1.791-4-4c0-2.209 1.791-4 4-4zm-2 1.8828v4.2344c0 0.389 0.42481 0.62969 0.75781 0.42969l3.5273-2.1172c0.324-0.194 0.324-0.66538 0-0.85938l-3.5273-2.1172c-0.3118-0.18727-0.75781 0.020957-0.75781 0.42969zm8.2441 7.1172c-0.60351 0.83592-1.3948 1.4423-2.2441 2v3h-4v2h11v-2h-4v-3h9v-2z"/>
</svg>
