<svg version="1.1" viewBox="0 0 24 24" xmlns="http://www.w3.org/2000/svg">
 <path d="m12 2c-5.523 3.48e-5 -10 4.4772-10 10-2.246e-4 5.5228 4.477 10 10 10 5.523-3.4e-5 10-4.4772 10-10 2.26e-4 -5.5228-4.477-10-10-10zm1e-6 2c4.4217-4e-7 8 3.5834 8 8s-3.5783 8-8 8c-4.4217-1e-6 -8-3.5834-8-8-1e-7 -4.4166 3.5783-8 8-8zm0.1223 6.3166c0.36999 0 0.67406 0.1255 1.0398 0.29189l0.34227-0.82368c-0.45261-0.21474-0.90445-0.35086-1.3901-0.35086-1.0123 0-1.5802 0.5643-1.5802 1.4204 0 1.5562 1.9535 1.428 1.9535 2.3091 0 0.303-0.1713 0.52879-0.64951 0.52879-0.46961 0-0.95132-0.21364-1.3631-0.40984v0.98362c0.49157 0.25707 1.0018 0.30088 1.325 0.30088 1.1239 0 1.7243-0.59334 1.7243-1.4564 0-1.5354-1.9525-1.3951-1.9525-2.2751 0-0.30581 0.18849-0.5188 0.55054-0.5188zm-4.8938-0.8287-1.6243 5.015h1.0708l0.34527-1.1885h1.7243l0.34327 1.1885h1.0688l-1.6323-5.016zm0.049039 2.9379 0.60447-2.2341 0.61648 2.2351zm9.4714-2.9379h-1.297l-1.6243 5.015h1.0708l0.34627-1.1885h1.7243l0.34227 1.1885h1.0698zm-1.249 2.9379 0.60547-2.2341 0.61548 2.2351z"/>
</svg>
