<svg version="1.1" viewBox="0 0 24 24" xmlns="http://www.w3.org/2000/svg">
 <path d="m12 2c-1.46 0-2.8494 0.32063-4.1094 0.89062l1.5293 1.5293c0.81-0.27 1.6801-0.41992 2.5801-0.41992 4.41 0 8 3.59 8 8 0 4.41-3.59 8-8 8-4.41 0-8-3.59-8-8 0-0.9 0.14992-1.7701 0.41992-2.5801l-1.5391-1.5391c-0.56 1.26-0.88086 2.6491-0.88086 4.1191 0 5.52 4.48 10 10 10 5.52 0 10-4.48 10-10 0-5.52-4.48-10-10-10zm-6.5 2c-0.83 0-1.5 0.67-1.5 1.5s0.67 1.5 1.5 1.5 1.5-0.67 1.5-1.5-0.67-1.5-1.5-1.5zm6.5 2c-3.31 0-6 2.69-6 6 0 3.31 2.69 6 6 6 3.31 0 6-2.69 6-6 0-3.31-2.69-6-6-6zm-0.71484 1h1.4297l3.0098 8h-1.3887l-0.70313-2h-3.2656l-0.70313 2h-1.3887l3.0098-8zm0.71484 1.5-1.2578 3.5h2.5156l-1.2578-3.5z"/>
</svg>
