<svg version="1.1" viewBox="0 0 24 24" xmlns="http://www.w3.org/2000/svg">
 <path d="m4 2c-1.1 0-2 0.9-2 2v16c0 1.1 0.9 2 2 2h16c1.1 0 2-0.9 2-2v-16c0-1.1-0.9-2-2-2h-16zm0 2h16v16h-16v-16zm2.3828 2-1.3828 0.69141 0.44531 0.89453 0.55469-0.27734v3.6914h1v-5h-0.61719zm3.6133 0c-1.1068 2.067e-4 -2.0039 1.1194-2.0039 2.5s0.89714 2.4998 2.0039 2.5c1.1068-2.07e-4 2.0039-1.1194 2.0039-2.5s-0.89714-2.4998-2.0039-2.5zm3.3867 0-1.3828 0.69141 0.44531 0.89453 0.55469-0.27734v3.6914h1v-5h-0.61719zm3.6133 0c-1.1068 2.067e-4 -2.0039 1.1194-2.0039 2.5s0.89714 2.4998 2.0039 2.5c1.1068-2.07e-4 2.0039-1.1194 2.0039-2.5s-0.89714-2.4998-2.0039-2.5zm-6.9961 1c0.55228 0 1 0.67157 1 1.5s-0.44772 1.5-1 1.5c-0.55228 0-1-0.67157-1-1.5s0.44772-1.5 1-1.5zm7 0c0.55228 0 1 0.67157 1 1.5s-0.44772 1.5-1 1.5-1-0.67157-1-1.5 0.44772-1.5 1-1.5zm-10 6c-1.1068 2.07e-4 -2.0039 1.1194-2.0039 2.5s0.89714 2.4998 2.0039 2.5c1.1068-2.07e-4 2.0039-1.1194 2.0039-2.5 0-1.3806-0.89714-2.4998-2.0039-2.5zm3.3828 0-1.3828 0.69141 0.44531 0.89453 0.55469-0.27734v3.6914h1v-5h-0.61719zm3 0-1.3828 0.69141 0.44531 0.89453 0.55469-0.27734v3.6914h1v-5h-0.61719zm3.6172 0c-1.1068 2.07e-4 -2.0039 1.1194-2.0039 2.5s0.89714 2.4998 2.0039 2.5c1.1068-2.07e-4 2.0039-1.1194 2.0039-2.5s-0.89714-2.4998-2.0039-2.5zm-9.9961 1c0.55228 0 1 0.67157 1 1.5s-0.44772 1.5-1 1.5c-0.55228 0-1-0.67157-1-1.5s0.44772-1.5 1-1.5zm10 0c0.55228 0 1 0.67157 1 1.5s-0.44772 1.5-1 1.5c-0.55228 0-1-0.67157-1-1.5s0.44772-1.5 1-1.5z"/>
</svg>
