<svg version="1.1" viewBox="0 0 24 24" xmlns="http://www.w3.org/2000/svg">
 <path d="m6.5 4c-0.66 0-1.2099 0.41977-1.4199 1.0098l-2.0801 5.9902v8c0 0.55 0.45 1 1 1h1c0.55 0 1-0.45 1-1v-1h12v1c0 0.55 0.45 1 1 1h1c0.55 0 1-0.45 1-1v-8l-2.0801-5.9902c-0.2-0.59-0.75992-1.0098-1.4199-1.0098zm0.34961 2h10.291l1.0391 3h-12.369zm-1.8496 5h14v5h-14zm2.5 1c-0.828 0-1.5 0.672-1.5 1.5s0.672 1.5 1.5 1.5 1.5-0.672 1.5-1.5-0.672-1.5-1.5-1.5zm9 0c-0.828 0-1.5 0.672-1.5 1.5s0.672 1.5 1.5 1.5 1.5-0.672 1.5-1.5-0.672-1.5-1.5-1.5z"/>
</svg>
