<svg id="svg1" version="1.1" viewBox="0 0 24 24" xmlns="http://www.w3.org/2000/svg">
 <path id="path1-9" d="m10.873 4c0.91435 0.5072 1.719 1.1897 2.3691 2h5.8984l1.0391 3h-5.4316c0.16475 0.63952 0.25195 1.3091 0.25195 2 0 3.0129-1.6668 5.6356-4.127 7h9.127v1c0 0.55 0.45 1 1 1h1c0.55 0 1-0.45 1-1v-8l-2.0801-5.9902c-0.2-0.59-0.75994-1.0098-1.4199-1.0098zm-3.873 1c-3.313 0-6 2.687-6 6 0 3.314 2.687 6 6 6 3.313 0 6-2.686 6-6 0-3.313-2.687-6-6-6zm0 2c2.209 0 4 1.791 4 4 0 2.209-1.791 4-4 4s-4-1.791-4-4c0-2.209 1.791-4 4-4zm-2 1.8828v4.2344c0 0.389 0.42481 0.62969 0.75781 0.42969l3.5273-2.1172c0.324-0.194 0.324-0.66538 0-0.85938l-3.5273-2.1172c-0.3118-0.18727-0.75781 0.020957-0.75781 0.42969zm13.5 3.1172c0.828 0 1.5 0.672 1.5 1.5s-0.672 1.5-1.5 1.5-1.5-0.672-1.5-1.5 0.672-1.5 1.5-1.5z"/>
</svg>
