<svg version="1.1" viewBox="0 0 24 24" xmlns="http://www.w3.org/2000/svg">
 <path d="m16 3v2h-4l6 3v-2h4zm-10.5 2c-0.62129 0-1.1949 0.38359-1.4004 1l-2.0996 6v8c0 0.57131 0.42862 1 1 1h1c0.57131 0 1-0.42862 1-1v-1h12v1c0 0.56948 0.42807 1 1 1h1c0.57192 0 1-0.43052 1-1v-8l-0.70117-2h-14.498l1.0488-3h7.1504l-3.8555-2zm-1.5 7h14v5h-14zm2.5 1c-0.83961 0-1.5 0.66037-1.5 1.5 0 0.83961 0.66037 1.5 1.5 1.5 0.83961 0 1.5-0.66037 1.5-1.5 0-0.83961-0.66037-1.5-1.5-1.5zm9 0c-0.83961 0-1.5 0.66037-1.5 1.5 0 0.83961 0.66037 1.5 1.5 1.5 0.83961 0 1.5-0.66037 1.5-1.5 0-0.83961-0.66037-1.5-1.5-1.5z"/>
</svg>
