<svg version="1.1" viewBox="0 0 24 24" xmlns="http://www.w3.org/2000/svg">
 <path d="m16 1c-2.2092 2.5e-5 -4 1.7909-4 4s1.7909 4 4 4c0.71302-3e-3 1.4123-0.19651 2.0254-0.56055l2.5605 2.5605 1.4141-1.4141-2.5605-2.5605c0.36403-0.6131 0.55756-1.3124 0.56055-2.0254 0-2.2091-1.7908-4-4-4zm0 2c1.1046 0 2 0.89543 2 2s-0.89543 2-2 2-2-0.89543-2-2 0.89543-2 2-2zm-10.5 4c-0.66 0-1.2099 0.41974-1.4199 1.0098l-2.0801 5.9902v8c0 0.55 0.45 1 1 1h1c0.55 0 1-0.45 1-1v-1h12v1c0 0.55 0.45 1 1 1h1c0.55 0 1-0.45 1-1v-8l-1.0664-3h-0.89844-1.1992l0.38476 1.1094h-12.451l1.0801-3.1094h6.1328c-0.517-0.577-0.9216-1.255-1.1855-2h-5.2969zm1 8c0.828 0 1.5 0.672 1.5 1.5s-0.672 1.5-1.5 1.5-1.5-0.672-1.5-1.5 0.672-1.5 1.5-1.5zm9 0c0.828 0 1.5 0.672 1.5 1.5s-0.672 1.5-1.5 1.5-1.5-0.672-1.5-1.5 0.672-1.5 1.5-1.5z"/>
</svg>
