<svg version="1.1" viewBox="0 0 24 24" xmlns="http://www.w3.org/2000/svg">
 <path d="m12 1c-2.21 0-4 1.79-4 4s1.79 4 4 4h2v-2h-2c-1.1 0-2-0.9-2-2s0.9-2 2-2h2v-2h-2zm4 0v2h2c1.1 0 2 0.9 2 2s-0.9 2-2 2h-2v2h2c2.21 0 4-1.79 4-4s-1.79-4-4-4h-2zm-4 3v2h6v-2h-6zm-6.5 3c-0.66 0-1.2099 0.41977-1.4199 1.0098l-2.0801 5.9902v8c0 0.55 0.45 1 1 1h1c0.55 0 1-0.45 1-1v-1h12v1c0 0.55 0.45 1 1 1h1c0.55 0 1-0.45 1-1v-8l-1.0664-3.0723c-0.304 0.047-0.61659 0.072266-0.93359 0.072266h-1.1641l0.38476 1.1094h-12.451l1.0801-3.1094h1.6777c-0.517-0.577-0.92155-1.255-1.1855-2h-0.8418zm-1.5 7h14v5h-14v-5zm2.5 1c-0.828 0-1.5 0.672-1.5 1.5s0.672 1.5 1.5 1.5 1.5-0.672 1.5-1.5-0.672-1.5-1.5-1.5zm9 0c-0.828 0-1.5 0.672-1.5 1.5s0.672 1.5 1.5 1.5 1.5-0.672 1.5-1.5-0.672-1.5-1.5-1.5z"/>
</svg>
