<svg version="1.1" viewBox="0 0 24 24" xmlns="http://www.w3.org/2000/svg">
 <path d="m16 1v2c-0.53137 0-1 0.51675-1 1v3l2 2v1h2v-1l2-2v-3c0-0.48327-0.46865-1-1-1v-2h-1v2h-2v-2h-1zm-9.4336 6c-0.66 0-1.2099 0.41971-1.4199 1.0098l-2.0801 5.9902v8c0 0.55 0.45 1 1 1h1c0.55 0 1-0.45 1-1v-1h12v1c0 0.55 0.45 1 1 1h1c0.55 0 1-0.45 1-1v-8l-0.70898-2h-14.484l1.043-3h8.084l-2-2h-6.4336zm1 8c0.828 0 1.5 0.672 1.5 1.5s-0.672 1.5-1.5 1.5c-0.828 0-1.5-0.672-1.5-1.5s0.672-1.5 1.5-1.5zm9 0c0.828 0 1.5 0.672 1.5 1.5s-0.672 1.5-1.5 1.5-1.5-0.672-1.5-1.5 0.672-1.5 1.5-1.5z"/>
</svg>
