<svg id="svg1" version="1.1" viewBox="0 0 24 24" xmlns="http://www.w3.org/2000/svg">
 <path id="path1-6" d="m18.5 1c-2.4943 0-4.5 2.0167-4.5 4.5 0 2.4883 2.0115 4.5 4.5 4.5 2.4883 0 4.5-2.0115 4.5-4.5 0-2.4832-2.0057-4.5-4.5-4.5zm-1.5 2 4 2.5-4 2.5v-5zm-10.5 4c-0.66 0-1.2099 0.41968-1.4199 1.0098l-2.0801 5.9902v8c0 0.55 0.45 1 1 1h1c0.55 0 1-0.45 1-1v-1h12v1c0 0.55 0.45 1 1 1h1c0.55 0 1-0.45 1-1v-8l-0.83398-2.4023c-0.61924 0.23928-1.2888 0.38198-1.9883 0.40234h-12.367l1.0391-3h5.9531c-0.35088-0.60728-0.59852-1.2817-0.71875-2h-5.584zm1 8c0.828 0 1.5 0.672 1.5 1.5s-0.672 1.5-1.5 1.5-1.5-0.672-1.5-1.5 0.672-1.5 1.5-1.5zm9 0c0.828 0 1.5 0.672 1.5 1.5s-0.672 1.5-1.5 1.5-1.5-0.672-1.5-1.5 0.672-1.5 1.5-1.5z"/>
</svg>
