<svg version="1.1" viewBox="0 0 24 24" xmlns="http://www.w3.org/2000/svg">
 <path d="m10 1v5.1699l-3.2402-3.2402-1.4199 1.4102 4.6602 4.6602v2h-2l-4.6602-4.6602-1.4102 1.4199 3.2402 3.2402h-4.1699v2h4.1699l-3.2402 3.2402 1.4102 1.4199 4.6602-4.6602h2v2l-4.6602 4.6602 1.4199 1.4102 3.2402-3.2402v5.1699h2v-22h-2zm9.0703 2.5156-2.8281 2.8281 1.4141 1.4141 2.8281-2.8281-1.4141-1.4141zm-5.0703 3.9023v2.3516c1.3305 1.1938 1.3305 3.2672 0 4.4609v2.3516c1.765-0.772 3-2.533 3-4.582s-1.235-3.81-3-4.582zm5 3.582v2h4v-2h-4zm-1.3438 5.2422-1.4141 1.4141 2.8281 2.8281 1.4141-1.4141-2.8281-2.8281z"/>
</svg>
