<svg version="1.1" viewBox="0 0 24 24" xmlns="http://www.w3.org/2000/svg">
 <path d="m12 1c-1.3 0-2.4003 0.84-2.8203 2h-4.1797c-1.1 0-2 0.9-2 2v16c0 1.1 0.9 2 2 2h14c1.1 0 2-0.9 2-2v-16c0-1.1-0.9-2-2-2h-4.1797c-0.42-1.16-1.5203-2-2.8203-2zm0 2c0.55 0 1 0.45 1 1 0 0.55-0.45 1-1 1s-1-0.45-1-1 0.45-1 1-1zm-7 2h2v3h10v-3h2v16h-14v-16zm6 4-2 2-1-1-1 1 2 2 3-3-1-1zm2 1v1h4v-1h-4zm0 2v1h2v-1h-2zm-5 3-1 1 1.5 1.5-1.5 1.5 1 1 1.5-1.5 1.5 1.5 1-1-1.5-1.5 1.5-1.5-1-1-1.5 1.5-1.5-1.5zm5 1v1h4v-1h-4zm0 2v1h2v-1h-2z"/>
</svg>
