<svg version="1.1" viewBox="0 0 24 24" xmlns="http://www.w3.org/2000/svg">
 <path d="m10.449 15.5c0.79704 0.797 2.3276 0.8337 2.95-0.1l5.6-8.4-8.4 5.6c-0.92139 0.6143-0.95047 2.0995-0.15 2.9zm-5.35 4.5c-0.72124 0-1.3918-0.3628-1.75-0.95-1.0162-1.7602-1.35-3.5107-1.35-5.05 0-5.5702 4.5694-10 10-10 2.3449 0 4.1328 0.7788 5.4 1.65l-1.9 1.2c-1.1352-0.5779-2.288-0.85-3.5-0.85-4.4628 0-8 3.5268-8 8 0 0.9197 0.17759 2.4187 1.1 4h13.8c0.76614-1.2602 1.1-2.644 1.1-4.1 0-1.0303-0.21091-2.2031-0.85-3.4l1.2-1.9c1.2965 2.0226 1.6262 3.9176 1.65 5.25 0.0376 2.104-0.56642 3.8418-1.35 5.2-0.358 0.5869-1.0284 0.95-1.75 0.95z"/>
</svg>
