<svg version="1.1" viewBox="0 0 24 24" xmlns="http://www.w3.org/2000/svg">
 <path d="m19.432 12.98c0.11517-0.92133 0.06746-1.4203 0-1.96l2.11-1.65c0.19-0.15 0.24-0.42 0.12-0.64l-2-3.46c-0.14242-0.2532-0.44477-0.28609-0.61-0.22l-2.49 1c-0.52-0.4-1.08-0.73-1.69-0.98l-0.38-2.65c-0.03-0.24-0.24-0.42-0.49-0.42h-4c-0.25 0-0.46 0.18-0.49 0.42l-0.38 2.65c-0.61 0.25-1.17 0.59-1.69 0.98l-2.49-1c-0.25035-0.083448-0.49592 0.017188-0.61 0.22l-2 3.46c-0.13 0.22-0.07 0.49 0.12 0.64l2.11 1.65c-0.11403 0.91226-0.068072 1.4154 0 1.96l-2.11 1.65c-0.19 0.15-0.24 0.42-0.12 0.64l2 3.46c0.14242 0.2532 0.44477 0.28609 0.61 0.22l2.49-1c0.52 0.4 1.08 0.73 1.69 0.98l0.38 2.65c0.03 0.24 0.24 0.42 0.49 0.42h4c0.25 0 0.46-0.18 0.49-0.42l0.38-2.65c0.61-0.25 1.17-0.59 1.69-0.98l2.49 1c0.25034 0.08345 0.49592-0.01719 0.61-0.22l2-3.46c0.12-0.22 0.07-0.49-0.12-0.64zm-2.12 0.88c0.65352 0.51736 1.3121 1.0283 1.97 1.54l-0.7 1.21c-0.77063-0.30844-1.5403-0.61917-2.31-0.93-0.94264 0.85376-2.048 1.3686-3.21 1.84-0.11401 0.82754-0.23758 1.6537-0.36 2.48h-1.4c-0.11594-0.82677-0.23296-1.6534-0.35-2.48-1.2176-0.36604-2.2083-1.0771-3.2-1.84-0.77542 0.31642-1.5528 0.62791-2.33 0.94l-0.7-1.21c0.65956-0.50964 1.3149-1.0247 1.97-1.54-0.27796-1.2584-0.15598-2.471 0-3.73-0.65352-0.51736-1.3121-1.0283-1.97-1.54l0.7-1.21c0.77063 0.30844 1.5403 0.61917 2.31 0.93 0.94264-0.85376 2.048-1.3686 3.21-1.84 0.11401-0.82754 0.23758-1.6537 0.36-2.48h1.39c0.11594 0.82677 0.23296 1.6534 0.35 2.48 1.2176 0.36604 2.2083 1.0771 3.2 1.84 0.77542-0.31642 1.5528-0.62791 2.33-0.94l0.7 1.21c-0.65073 0.51996-1.3053 1.0351-1.96 1.55 0.28031 1.2553 0.15564 2.4638 0 3.72zm-5.31-5.86c-2.21 0-4 1.79-4 4s1.79 4 4 4c2.21 0 4-1.79 4-4s-1.79-4-4-4zm0 6c-1.1 0-2-0.9-2-2s0.9-2 2-2 2 0.9 2 2-0.9 2-2 2z"/>
</svg>
