<svg version="1.1" viewBox="0 0 24 24" xmlns="http://www.w3.org/2000/svg">
 <path d="m11.99 2c-5.52 0-9.99 4.48-9.99 10s4.47 10 9.99 10c5.53 0 10.01-4.48 10.01-10s-4.48-10-10.01-10zm6.93 6h-2.95c-0.32-1.25-0.78-2.45-1.38-3.56 1.84 0.63 3.37 1.91 4.33 3.56zm-6.92-3.96c0.83 1.2 1.48 2.53 1.91 3.96h-3.82c0.43-1.43 1.08-2.76 1.91-3.96zm-7.74 9.96c-0.34786-1.3914-0.34293-2.6283 0-4h3.38c-0.18879 1.5575-0.18322 2.4884 0 4zm0.82 2h2.95c0.32 1.25 0.78 2.45 1.38 3.56-1.84-0.63-3.37-1.9-4.33-3.56zm2.95-8h-2.95c0.96-1.66 2.49-2.93 4.33-3.56-0.6 1.11-1.06 2.31-1.38 3.56zm3.97 11.96c-0.83-1.2-1.48-2.53-1.91-3.96h3.82c-0.43 1.43-1.08 2.76-1.91 3.96zm2.34-5.96h-4.68c-0.20609-1.5113-0.21877-2.42 0-4h4.68c0.22174 1.6015 0.20297 2.5115 0 4zm0.25 5.56c0.6-1.11 1.06-2.31 1.38-3.56h2.95c-0.96 1.65-2.49 2.93-4.33 3.56zm1.77-5.56c0.18879-1.5575 0.18322-2.4884 0-4h3.38c0.34786 1.3914 0.34293 2.6283 0 4z"/>
</svg>
