<svg version="1.1" viewBox="0 0 24 24" xmlns="http://www.w3.org/2000/svg">
 <path d="m3 2c-0.55226 5.52e-5 -0.99994 0.44774-1 1v18c5.52e-5 0.55226 0.44774 0.99994 1 1h18c0.55226-5.5e-5 0.99994-0.44774 1-1v-18c-5.5e-5 -0.55226-0.44774-0.99994-1-1zm1 2h16v7h-2.502c-0.82485 1.55e-4 -1.2949 0.94256-0.79883 1.6016 0.19486 0.2591 0.30003 0.57428 0.30078 0.89844-2e-6 0.84028-0.65973 1.5-1.5 1.5-0.83961 0-1.499-0.65872-1.5-1.498 0.0018-0.32468 0.1086-0.63981 0.30469-0.89844 0.49823-0.65851 0.028881-1.603-0.79688-1.6035h-1.6758c0.61687-1.3815-0.78819-4-3.332-4-2.75 0-3.9375 2.9397-3.332 4h-1.168zm4.5 5c0.83961 0 1.499 0.65872 1.5 1.498-0.0017589 0.32456-0.10858 0.63977-0.30469 0.89844-0.49823 0.65851-0.028882 1.603 0.79688 1.6035h1.6758c-0.54574 1.1421 0.56164 4 3.332 4 2.6883 0 3.9383-2.8385 3.334-4h1.166v7h-16v-7h2.5078c0.82576-5.51e-4 1.2951-0.945 0.79688-1.6035-0.19611-0.25867-0.30293-0.57388-0.30469-0.89844 0.0010375-0.83933 0.66039-1.498 1.5-1.498z"/>
</svg>
