<svg id="svg1" version="1.1" viewBox="0 0 24 24" xmlns="http://www.w3.org/2000/svg">
 <path id="path1" d="m12 2c-5.52 0-10 4.48-10 10s4.48 10 10 10 10-4.48 10-10c0-0.26207-0.01337-0.52033-0.0332-0.77734-1.9847 1.8772-4.7796 2.2091-7.0098 1.2617-0.23142 1.4279-1.4625 2.5156-2.957 2.5156-1.66 0-3-1.34-3-3 0-1.4945 1.0877-2.7256 2.5156-2.957-0.94759-2.2308-0.61503-5.0252 1.2617-7.0098-0.25822-0.028318-0.51854-0.022121-0.7773-0.03316zm5.5 0c-2.4943 0-4.5 2.0167-4.5 4.5 0 2.4883 2.0115 4.5 4.5 4.5 2.4883 0 4.5-2.0115 4.5-4.5 0-2.4832-2.0057-4.5-4.5-4.5zm-0.5 2h1v2h2v1h-2v2h-1v-2h-2v-1h2zm-7.8691 0.53906 1.1699 2.7812c-1.38 0.5-2.4705 1.5889-2.9805 2.9687l-2.7812-1.1582c0.81-2.11 2.4818-3.7818 4.5918-4.5918zm7.5488 9.1719 2.7812 1.1699c-0.81 2.1-2.4801 3.7701-4.5801 4.5801l-1.1504-2.7812c2.3495-0.87464 2.9167-2.9688 2.9493-2.9688zm-9.3594 0.0098c0.51 1.38 1.5889 2.459 2.9687 2.959l-1.1699 2.7812c-2.1-0.81-3.7701-2.4818-4.5801-4.5918z"/>
</svg>
