<svg id="svg1" version="1.1" viewBox="0 0 24 24" xmlns="http://www.w3.org/2000/svg">
 <path id="path1" d="m12 2c-5.52 0-10 4.48-10 10s4.48 10 10 10 10-4.48 10-10h-7c0 1.66-1.34 3-3 3s-3-1.34-3-3 1.34-3 3-3zm5 0v3h-3v2h3v3h2v-3h3v-2h-3v-3zm-7.8691 2.5391 1.1699 2.7812c-1.38 0.5-2.4705 1.5888-2.9805 2.9687l-2.7812-1.1582c0.81-2.11 2.4818-3.7818 4.5918-4.5918zm7.5488 9.1719 2.7812 1.1699c-0.81 2.1-2.4801 3.7701-4.5801 4.5801l-1.1504-2.7812c2.3495-0.87464 2.9167-2.9688 2.9493-2.9688zm-9.3594 0.0098c0.51 1.38 1.5888 2.459 2.9687 2.959l-1.1699 2.7812c-2.1-0.81-3.7701-2.4818-4.5801-4.5918l2.7812-1.1484z"/>
</svg>
