<svg version="1.1" viewBox="0 0 24 24" xmlns="http://www.w3.org/2000/svg">
 <path d="m3.6701 15c-0.335 0.1-0.67-0.14-0.67-0.14l0.36862 3.14c0.35242 2 1.4259 3 3.9955 3l10.09-0.41482c2.0229-0.29988 2.5016-1.6719 3-3 0.7522-3.1202 0.54619-7.1359 0.54629-10.585-0.049-1.86-1.662-2.8698-3.121-3.1398-1.459-0.28-13.501-0.84-14.217-0.86-0.632-0.02-0.662 0.7-0.662 0.7v0.29c0 0.00519 0.27664-0.10199 0.706-0.09 0.647 0.02 12.26 1.32 13.384 1.5 1.4611 0.23089 1.91 1.2535 1.91 2.5998v1.2171c0 0.4747-0.28768 0.8767-0.71442 1.0159zm0.695-1.5c-0.734 0.32-1.365 0.28079-1.365-0.61v-6.55c0-1.3402 1.022-1.16 1.022-1.16s9.371 1.45 9.546 1.48c0.264 0.04 0.432 0.22 0.432 0.46 0 0.13 0.012 2.41 0 2.61-0.02 0.3-0.267 0.44-0.384 0.5z"/>
</svg>
