<svg id="svg1" version="1.1" viewBox="0 0 24 24" xmlns="http://www.w3.org/2000/svg">
 <path id="path9" d="m18.5 1c-2.4853 0-4.5 2.0147-4.5 4.5s2.0147 4.5 4.5 4.5 4.5-2.0147 4.5-4.5-2.0147-4.5-4.5-4.5zm-14.5 2c-0.55226 5.52e-5 -0.99994 0.44774-1 1v16c5.52e-5 0.55226 0.44774 0.99994 1 1h16c0.55226-5.5e-5 0.99994-0.44774 1-1v-8.5137c-0.63705 0.26462-1.3122 0.42615-2 0.47852v7.0352h-14v-14h7.0352c0.05237-0.68784 0.2139-1.3629 0.47852-2zm13 1h3v3h-1v-1.293l-1.6465 1.6465-0.70703-0.70703 1.6465-1.6465h-1.293zm-10 3v2h6.0234c-0.38726-0.61544-0.66851-1.2915-0.83203-2h-5.1914zm0 4v2h8v-2l-8 1e-5zm0 4v2h10v-2z" color="#000000" stroke-linecap="round" stroke-linejoin="round" style="-inkscape-stroke:none"/>
</svg>
