<svg version="1.1" viewBox="0 0 24 24" xmlns="http://www.w3.org/2000/svg">
 <path d="m21.148 1.002c-0.2468 0.001793-0.47571 0.10461-0.64453 0.27344l-0.66602 0.66602 2.207 2.207 0.66602-0.66602c0.19299-0.19299 0.57155-0.76048-0.0625-1.3945l-0.75-0.75c-0.2385-0.2385-0.5032-0.33773-0.75-0.33594zm-2.1191 1.7617-5.0293 5.0293v2.207h2.207l5.0293-5.0293-2.207-2.207zm-15.029 0.23633c-0.55226 5.52e-5 -0.99994 0.44774-1 1v16c5.52e-5 0.55226 0.44774 0.99994 1 1h16c0.55226-5.5e-5 0.99994-0.44774 1-1v-12l-2 2v9h-14v-14h9l2-2h-12zm3 4v2h5v-2h-5zm0 4v2h8v-2h-8zm0 4v2h10v-2h-10z"/>
</svg>
