<svg version="1.1" viewBox="0 0 24 24" xmlns="http://www.w3.org/2000/svg">
 <path d="m15.83 2-0.30078 1.4902c-0.4 0.15-0.76008 0.35891-1.0801 0.62891l-1.4492-0.48828-1 1.7285 1.1406 1.0098-0.0039 0.027344c-0.07639 0.54833-0.07662 0.65699 0 1.207 1e-3 8e-3 0.0029 0.018344 0.0039 0.027344l-1.1406 1.0098 1 1.7285 1.4492-0.48828c0.32 0.27 0.68008 0.47891 1.0801 0.62891l0.30078 1.4902h2l0.30078-1.4902c0.4-0.15 0.76008-0.35891 1.0801-0.62891l1.4492 0.48828 1-1.7285-1.1406-1.0098 0.0039-0.027344c0.07638-0.54832 0.07662-0.65695 0-1.207l-0.0039-0.027344 1.1406-1.0098-1-1.7285-1.4492 0.48828c-0.32-0.27-0.68008-0.47891-1.0801-0.62891l-0.30078-1.4902zm-11.83 1c-0.55 0-1 0.45-1 1 0 9.39 7.61 17 17 17 0.55 0 1-0.45 1-1v-3.4902c0-0.55-0.45-1-1-1-1.24 0-2.4503-0.20031-3.5703-0.57031-0.14365-0.05746-0.62117-0.13821-1.0195 0.24024l-2.1992 2.2012c-2.83-1.45-5.1518-3.7618-6.5918-6.5918l2.2012-2.1992c0.28-0.28 0.36-0.66953 0.25-1.0195-0.37-1.12-0.57031-2.3203-0.57031-3.5703 0-0.55-0.45-1-1-1zm1.0293 2h1.5098c0.06 0.89 0.21117 1.7598 0.45117 2.5898l-1.2012 1.1992c-0.41-1.2-0.66977-2.4691-0.75977-3.7891zm11.801 0c1.1 0 2 0.9 2 2s-0.9 2-2 2-2-0.9-2-2 0.9-2 2-2zm-0.42969 12.02c0.85 0.24 1.7196 0.39117 2.5996 0.45117v1.4902c-1.32-0.09-2.5908-0.35-3.8008-0.75z"/>
</svg>
