<svg version="1.1" viewBox="0 0 24 24" xmlns="http://www.w3.org/2000/svg">
 <path d="m6.54 5c0.06 0.89 0.21 1.76 0.45 2.59l-1.2 1.2c-0.41-1.2-0.67-2.47-0.76-3.79zm9.86 12.02c0.85 0.24 1.72 0.39 2.6 0.45v1.49c-1.32-0.09-2.59-0.35-3.8-0.75zm-8.9-14.02h-3.5c-0.55 0-1 0.45-1 1 0 9.39 7.61 17 17 17 0.55 0 1-0.45 1-1v-3.49c0-0.55-0.45-1-1-1-1.24 0-2.45-0.2-3.57-0.57-0.16128-0.06451-0.62977-0.13072-1.02 0.24l-2.2 2.2c-2.83-1.45-5.15-3.76-6.59-6.59l2.2-2.2c0.28-0.28 0.36-0.67 0.25-1.02-0.37-1.12-0.57-2.32-0.57-3.57 0-0.55-0.45-1-1-1z"/>
</svg>
