<svg version="1.1" viewBox="0 0 24 24" xmlns="http://www.w3.org/2000/svg">
 <path d="m11 13v-10h2v10zm1 8c-1.233 0-2.396-0.24-3.487-0.71-1.092-0.48-2.046-1.12-2.863-1.94s-1.462-1.77-1.937-2.86c-0.476-1.09-0.713-2.26-0.713-3.49 0-1.33 0.275-2.59 0.825-3.78 0.55-1.18 1.325-2.2 2.325-3.07l1.4 1.4c-0.8 0.67-1.425 1.48-1.875 2.42-0.45 0.96-0.675 1.96-0.675 3.03 0 1.93 0.683 3.58 2.05 4.95s3.017 2.05 4.95 2.05c1.95 0 3.604-0.68 4.963-2.05 1.358-1.37 2.037-3.02 2.037-4.95 0-1.07-0.221-2.07-0.662-3.03-0.442-0.94-1.071-1.75-1.888-2.42l1.4-1.4c1 0.87 1.775 1.89 2.325 3.07 0.55 1.19 0.825 2.45 0.825 3.78 0 1.23-0.237 2.4-0.712 3.49-0.476 1.09-1.117 2.04-1.925 2.86-0.809 0.82-1.759 1.46-2.851 1.94-1.091 0.47-2.262 0.71-3.512 0.71z"/>
</svg>
