<svg version="1.1" viewBox="0 0 24 24" xmlns="http://www.w3.org/2000/svg">
 <path d="m12 22c-5.5428 0-10-4.4758-10-10 0-5.5248 4.4639-10 10-10 5.5319 0 10 4.4706 10 10 0 3.6709-1.9145 6.0695-2.925 7.08-0.99848 0.99848-3.3977 2.92-7.075 2.92zm0-2c1.2337 0 3.1118-0.28235 4.9-1.67l-1.425-1.43c-0.91032 0.65965-2.1252 1.1-3.475 1.1-3.3776 0-6-2.6534-6-6 0-3.3465 2.6222-6 6-6 3.3776 0 6 2.6534 6 6 0 1.6969-0.69702 2.9131-1.125 3.5l1.425 1.43c1.3748-1.7797 1.7-3.6042 1.7-4.93 0-4.51-3.518-8-8-8-4.4821 0-8 3.49-8 8 0 4.4562 3.4438 8 8 8zm0-4c0.5394 0 1.2838-0.10526 2.025-0.55l-1.525-1.52c-0.15642 0.0807-0.3348 0.04687-0.5 0.07-1.0866 0-2-0.87498-2-2 0-1.1249 0.91333-2 2-2 1.0862 0 2 0.87332 2 2 0 0.33536-0.03583 0.45503-0.075 0.55l1.5 1.5c0.38422-0.62988 0.575-1.3123 0.575-2.05 0-2.2072-1.7748-4-4-4-2.2252 0-4 1.7927-4 4 0 2.2072 1.7748 4 4 4z"/>
</svg>
