<svg version="1.1" viewBox="0 0 24 24" xmlns="http://www.w3.org/2000/svg">
 <path d="m12 2c-5.7573 0-10 4.723-10 10 0 5.5295 4.47 10 10 10 5.5295 0 10-4.47 10-10 0-5.5182-4.457-10-10-10zm-0.050781 3 1.0508 1.0508-0.94922 0.97461c4.1615 0 6.2199 4.6378 4.125 7.7246l-1.1016-1.0996c0.57522-1.1547 0.52507-2.2854 0.074219-3.1914-0.064408-0.12942-0.13669-0.25335-0.2168-0.37305-0.080111-0.1197-0.16721-0.23495-0.26172-0.34375s-0.19514-0.21184-0.30273-0.30859-0.22243-0.18795-0.3418-0.27148c-0.11937-0.083533-0.24322-0.15936-0.37305-0.22852-0.12983-0.069152-0.26531-0.12999-0.4043-0.18359-0.13899-0.053609-0.28285-0.099817-0.42969-0.13672-0.29368-0.073804-0.60076-0.11328-0.91797-0.11328l1.0996 1.0996-1.0508 1.0508-2.8496-2.8262 2.8496-2.8242zm-4.125 4.25 1.1016 1.0996c-0.57842 1.1612-0.52046 2.3055-0.064453 3.2168 0.065144 0.13018 0.13812 0.25491 0.21875 0.375 0.080628 0.12009 0.16897 0.23501 0.26367 0.34375 0.094706 0.10874 0.19731 0.21049 0.30469 0.30664s0.21925 0.18722 0.33789 0.26953c0.11864 0.082316 0.24259 0.15738 0.37109 0.22461 0.1285 0.067228 0.26148 0.12684 0.39844 0.17773 0.41086 0.15268 0.85675 0.22774 1.3184 0.21094l-1.0742-1.0742 1.0508-1.0508 2.8496 2.8262-2.8496 2.8242-1.0508-1.0508 0.94922-0.94922c-4.1107-0.1104-6.2347-4.6413-4.125-7.75z"/>
</svg>
