<svg version="1.1" viewBox="0 0 24 24" xmlns="http://www.w3.org/2000/svg">
 <path d="m16.175 14.75c2.0949-3.0868 0.036484-7.725-4.125-7.725l0.95-0.975-1.05-1.05-2.85 2.825 2.85 2.825 1.05-1.05-1.1-1.1c2.5377 0 4.4898 2.5106 3.175 5.15zm-4.125 4.25 2.85-2.825-2.85-2.825-1.05 1.05 1.075 1.075c-2.4619 0.08962-4.4721-2.4709-3.15-5.125l-1.1-1.1c-2.1097 3.1087 0.014286 7.6396 4.125 7.75l-0.95 0.95zm-0.05 3c-5.53 0-10-4.4705-10-10 0-5.277 4.2427-10 10-10 5.543 0 10 4.4818 10 10 0 5.53-4.4705 10-10 10zm0-2c4.4712 0 8-3.5285 8-8 0-4.4712-3.5285-8-8-8-4.4719 0-8 3.5305-8 8 0 4.4698 3.5284 8 8 8z"/>
</svg>
