<svg id="svg1" version="1.1" viewBox="0 0 24 24" xmlns="http://www.w3.org/2000/svg">
 <path id="path1" d="m13 2-4 4 4 4 1.4141-1.4141-2.0039-2.0039c2.8182 0.20854 5.0254 2.5446 5.0254 5.418 0 1.5496-0.64222 2.9432-1.6758 3.9316l1.0977 1.0977c1.3188-1.2741 2.1426-3.0573 2.1426-5.0293 0-3.5921-2.7265-6.564-6.2168-6.9551l1.6309-1.6309-1.4141-1.4141zm-5.8574 4.9707c-1.3188 1.2741-2.1426 3.0573-2.1426 5.0293 0 3.5921 2.7265 6.564 6.2168 6.9551l-1.6309 1.6309 1.4141 1.4141 4-4-4-4-1.4141 1.4141 2.0039 2.0039c-2.8182-0.20854-5.0254-2.5446-5.0254-5.418 0-1.5496 0.64241-2.9434 1.6758-3.9316l-1.0977-1.0977z"/>
</svg>
