<svg id="svg1" version="1.1" viewBox="0 0 24 24" xmlns="http://www.w3.org/2000/svg">
 <path id="path1" d="m17.525 3c-0.82019-0.014553-1.7301 0.25132-2.502 1.0312-1.4063 1.4003-1.0191 3.0958-0.82422 3.6484l-2.1992 2.2012 2.125 2.1191 2.1992-2.1992c0.4095 0.15664 2.1895 0.63232 3.6484-0.82031 1.2349-1.2478 1.2523-2.9019 0.59961-4.1289l-2.373 2.3496-1.4004-1.4004 2.375-2.3691c-0.4261-0.23867-1.0105-0.42032-1.6484-0.43164zm-13.525 1v2h2.75c-2.4595 2.0962-2.75 4.827-2.75 6 0 4.5362 3.5196 8 8 8 4.51 0 8-3.5179 8-8h-2c0 3.3778-2.6535 6-6 6-3.3466 0-6-2.6224-6-6 0-2.0541 1.0264-4.0681 3-5.1992v4.1992h2v-7h-7z"/>
</svg>
