<svg version="1.1" viewBox="0 0 24 24" xmlns="http://www.w3.org/2000/svg">
 <path d="m2 2v2h4.0137c-2.4337 1.8264-4.0137 4.7324-4.0137 8 0 5.511 4.489 10 10 10 5.511 0 10-4.489 10-10h-2c0 4.4301-3.5699 8-8 8-4.4301 0-8-3.5699-8-8 0-2.9703 1.6072-5.548 4-6.9277v4.9277h2v-8h-8zm16.301 0.0019531c-0.70858 0.022883-1.5256 0.26974-2.2773 1.0293-1.4063 1.4003-1.0191 3.0958-0.82422 3.6484l-2.1992 2.2012 2.125 2.1191 2.1992-2.1992c0.4095 0.15664 2.1895 0.63232 3.6484-0.82031 1.2349-1.2478 1.2523-2.9019 0.59961-4.1289l-2.373 2.3496-1.4004-1.4004 2.375-2.3691c-0.033072-0.018525-0.83743-0.46313-1.873-0.42969z"/>
</svg>
