<svg version="1.1" viewBox="0 0 24 24" xmlns="http://www.w3.org/2000/svg">
 <path d="m12 2c-5.511 0-10 4.489-10 10s4.489 10 10 10c3.2676 0 6.1736-1.58 8-4.0137v4.0137h2v-8h-8v2h4.9277c-1.3797 2.3928-3.9575 4-6.9277 4-4.4301 0-8-3.5699-8-8s3.5699-8 8-8zm4.0234 1.0312c-1.4064 1.4003-1.0191 3.0958-0.82422 3.6484l-2.1992 2.2012 2.125 2.1191 2.1992-2.1992c0.40952 0.15664 2.1895 0.63232 3.6484-0.82031 1.235-1.2478 1.2523-2.9019 0.59961-4.1289l-2.373 2.3496-1.4004-1.4004 2.375-2.3691c-0.72375-0.40537-2.6191-0.94719-4.1504 0.59961z"/>
</svg>
