<svg version="1.1" viewBox="0 0 24 24" xmlns="http://www.w3.org/2000/svg">
 <path d="m18 2c-1.66 0-3 1.34-3 3 0 0.24 0.039844 0.46922 0.089844 0.69922l-7.0508 4.1113c-0.54-0.5-1.2491-0.81055-2.0391-0.81055-1.66 0-3 1.34-3 3s1.34 3 3 3c0.79 0 1.4991-0.31055 2.0391-0.81055l7.0488 4.1172a3 3 0 0 0-0.087891 0.69336 3 3 0 0 0 3 3 3 3 0 0 0 3-3 3 3 0 0 0-3-3 3 3 0 0 0-2.0371 0.80469l-7.0527-4.1055c0.11951-0.54976 0.12001-0.84639 0-1.3984l7.0508-4.1113c0.54 0.5 1.2491 0.81055 2.0391 0.81055 1.66 0 3-1.34 3-3s-1.34-3-3-3zm0 2c0.55 0 1 0.45 1 1s-0.45 1-1 1-1-0.45-1-1 0.45-1 1-1zm-12 7c0.55 0 1 0.45 1 1s-0.45 1-1 1-1-0.45-1-1 0.45-1 1-1zm12 7a1 1 0 0 1 1 1 1 1 0 0 1-1 1 1 1 0 0 1-1-1 1 1 0 0 1 1-1z"/>
</svg>
