<svg version="1.1" viewBox="0 0 24 24" xml:space="preserve" xmlns="http://www.w3.org/2000/svg">
  <path d="m9 2c-1.2954 0-2.4105 0.83961-2.8262 2h-4.1738v2h4.1738c0.41569 1.1604 1.5308 2 2.8262 2 1.2954 0 2.4105-0.83961 2.8262-2h10.174v-2h-10.174c-0.41569-1.1604-1.5308-2-2.8262-2zm0 2c0.56413 0 1 0.43587 1 1s-0.43587 1-1 1-1-0.43587-1-1 0.43587-1 1-1zm8 5c-1.2954 0-2.4105 0.83961-2.8262 2h-12.174v2h12.174c0.41569 1.1604 1.5308 2 2.8262 2s2.4105-0.83961 2.8262-2h2.1738v-2h-2.1738c-0.41569-1.1604-1.5308-2-2.8262-2zm0 2c0.56413 0 1 0.43587 1 1s-0.43587 1-1 1-1-0.43587-1-1 0.43587-1 1-1zm-11 5c-1.2954 0-2.4105 0.83961-2.8262 2h-1.1738v2h1.1738c0.41569 1.1604 1.5308 2 2.8262 2s2.4105-0.83961 2.8262-2h13.174v-2h-13.174c-0.41569-1.1604-1.5308-2-2.8262-2zm0 2c0.56413 0 1 0.43587 1 1s-0.43587 1-1 1-1-0.43587-1-1 0.43587-1 1-1z"/>
</svg>
