<svg version="1.1" viewBox="0 0 24 24" xmlns="http://www.w3.org/2000/svg">
 <path d="m2.4141 1-1.4141 1.4141 2 2v11.586c0 1.105 0.895 2 2 2h2v-4h-2v-7.5859l4 4v10.586c0 1.105 0.895 2 2 2h8c0.70221 0 1.319-0.36112 1.6758-0.9082l0.90625 0.90625 1.416-1.4141zm2.8281 0 2 2h6.7578c0-1.105-0.895-2-2-2zm5.7578 3.6641c-0.57634 0-1.0941 0.24501-1.459 0.63477l1.459 1.3652h8v8.0937l2 2v-10.094c0-1.105-0.895-2-2-2zm0 7.75 6.584 6.5859h-6.584zm4 7.5859c0.552 0 1 0.448 1 1s-0.448 1-1 1-1-0.448-1-1 0.448-1 1-1z"/>
</svg>
