<svg id="svg1" version="1.1" viewBox="0 0 24 24" xmlns="http://www.w3.org/2000/svg">
 <path id="path1" d="m18.5 1c-2.4943 0-4.5 2.0167-4.5 4.5 0 2.4883 2.0115 4.5 4.5 4.5 2.4883 0 4.5-2.0115 4.5-4.5 0-2.4832-2.0057-4.5-4.5-4.5zm-11.5 1c-1.105 0-2 0.895-2 2v16c0 1.105 0.895 2 2 2h10c1.105 0 2-0.895 2-2v-8.0664c-0.16615 0.01817-0.33294 0.029896-0.5 0.035156-0.50599-0.0069-1.0094-0.073076-1.5-0.19727v6.2285h-10v-14h5.2227c0.16418-0.70894 0.44679-1.3851 0.83594-2h-6.0586zm11 1h1v3h-1v-3zm0 4h1v1h-1v-1zm-6 12c0.552 0 1 0.448 1 1s-0.448 1-1 1-1-0.448-1-1 0.448-1 1-1z"/>
</svg>
