<svg version="1.1" viewBox="0 0 24 24" xmlns="http://www.w3.org/2000/svg">
 <path d="m4 2c-1.105 0-2 0.895-2 2v5c0 3.526 2.608 6.4447 6 6.9297v0.070312c0 3.314 2.686 6 6 6 2.642 0 4.8845-1.7061 5.6855-4.0781 1.326-0.31 2.3145-1.5009 2.3145-2.9219 0-1.657-1.343-3-3-3s-3 1.343-3 3c0 1.165 0.66377 2.1749 1.6348 2.6719-0.633 1.374-2.0228 2.3281-3.6348 2.3281-2.209 0-4-1.791-4-4v-0.070312c3.392-0.485 6-3.4037 6-6.9297v-5c0-1.105-0.895-2-2-2h-3v2h3v5c0 2.761-2.239 5-5 5-2.761 0-5-2.239-5-5v-5h3v-2h-3zm15 12c0.552 0 1 0.448 1 1s-0.448 1-1 1-1-0.448-1-1 0.448-1 1-1z"/>
</svg>
