<svg version="1.1" viewBox="0 0 24 24" xmlns="http://www.w3.org/2000/svg">
 <path d="m11 1v4h2v-4h-2zm-6.0703 2.5156-1.4141 1.4141 2.8281 2.8281 1.4141-1.4141-2.8281-2.8281zm14.141 0-2.8281 2.8281 1.4141 1.4141 2.8281-2.8281-1.4141-1.4141zm-7.0703 3.4844c-2.76 0-5 2.24-5 5 0 2.76 2.24 5 5 5 2.76 0 5-2.24 5-5 0-2.76-2.24-5-5-5zm0 2c1.65 0 3 1.35 3 3s-1.35 3-3 3-3-1.35-3-3 1.35-3 3-3zm-11 2v2h4v-2h-4zm18 0v2h4v-2h-4zm-12.656 5.2422-2.8281 2.8281 1.4141 1.4141 2.8281-2.8281-1.4141-1.4141zm11.312 0-1.4141 1.4141 2.8281 2.8281 1.4141-1.4141-2.8281-2.8281zm-6.6562 2.7578v4h2v-4h-2z"/>
</svg>
