<svg id="svg1" version="1.1" viewBox="0 0 24 24" xmlns="http://www.w3.org/2000/svg">
 <path id="path6" d="m17 3c-0.55149 0-1 0.41842-1 1v1h-3c-0.55149 0-1 0.41842-1 1v3.9609l-8.3613-4.5312c-1.2104-0.6549-2.6387 0.23362-2.6387 1.5703v2c0 0.55 0.448 1 1 1h1c0.552 0 1-0.45 1-1v-0.38086l6.2305 3.3809h-8.2305c-0.55 0-1 0.448-1 1v4c0 0.55 0.448 1 1 1h2c0 1.645 1.355 3 3 3s3-1.355 3-3h4c0 1.645 1.355 3 3 3s3-1.355 3-3h2c0.552 0 1-0.45 1-1v-5.6797c0-0.22264-0.031149-0.43319-0.099609-0.64062l-1.4512-4.2988c-0.2734-0.86321-1.0501-1.3809-1.8984-1.3809h-0.55078v-1c0-0.58154-0.44847-1-1-1h-1zm-3 4h5.5508l1.3496 4h-6.9004v-4zm0 6h7v3h-1.7734c-0.55093-0.61178-1.3472-1-2.2266-1s-1.6756 0.38822-2.2266 1h-0.77344v-3zm-11 1h9v2h-2.7734c-0.55093-0.61178-1.3472-1-2.2266-1s-1.6756 0.38822-2.2266 1h-1.7734v-2zm4 3c0.56413 0 1 0.43587 1 1s-0.43587 1-1 1-1-0.43587-1-1 0.43587-1 1-1zm10 0c0.56413 0 1 0.43587 1 1s-0.43587 1-1 1-1-0.43587-1-1 0.43587-1 1-1z"/>
</svg>
