<svg id="svg1" version="1.1" viewBox="0 0 24 24" xmlns="http://www.w3.org/2000/svg">
 <path id="path1" d="m1 3c-0.552 0-1 0.45-1 1v13c0 0.55 0.448 1 1 1h2c0 1.645 1.355 3 3 3s3-1.355 3-3h7c0 1.645 1.355 3 3 3s3-1.355 3-3h1c0.552 0 1-0.45 1-1v-5c0-0.27-0.10497-0.52094-0.29297-0.71094l-3-3c-0.187-0.18-0.44203-0.28906-0.70703-0.28906h-3v-4c0-0.55-0.448-1-1-1h-15zm1 2h13v11h-6.7734c-0.55093-0.61178-1.3472-1-2.2266-1s-1.6756 0.38822-2.2266 1h-1.7734v-11zm15 5h2.5859l2.4141 2.4102v3.5898h-0.77344c-0.55093-0.61178-1.3472-1-2.2266-1-0.7656 0-1.4674 0.2938-2 0.77344v-5.7734zm-11 7c0.56413 0 1 0.43587 1 1s-0.43587 1-1 1-1-0.43587-1-1 0.43587-1 1-1zm13 0c0.56413 0 1 0.43587 1 1s-0.43587 1-1 1-1-0.43587-1-1 0.43587-1 1-1z"/>
</svg>
