<svg version="1.1" viewBox="0 0 24 24" xmlns="http://www.w3.org/2000/svg">
 <path d="m9 4c-2.21 0-4 1.79-4 4s1.79 4 4 4 4-1.79 4-4-1.79-4-4-4zm4.9277 0.57617c1.4288 2.0528 1.4284 4.7955 0 6.8477 0.60429 0.36653 1.3135 0.57617 2.0723 0.57617 2.21 0 4-1.79 4-4s-1.79-4-4-4c-0.76231-0.033243-1.4898 0.1755-2.0723 0.57613zm-4.9277 1.4238c1.1 0 2 0.9 2 2s-0.9 2-2 2-2-0.9-2-2 0.9-2 2-2zm0 8c-2.67 0-8 1.34-8 4v2h16v-2c0-2.66-5.33-4-8-4zm5.5938 0.01172c2.3243 0.72756 4.4062 1.9753 4.4062 3.7383v2.25h4v-2c0-3.3378-7.1524-4.0433-8.4062-3.9883zm-5.5938 1.9883c2.7 0 5.8 1.29 6 2h-12c0.23-0.72 3.31-2 6-2z"/>
</svg>
