<svg version="1.1" viewBox="0 0 24 24" xmlns="http://www.w3.org/2000/svg">
 <path d="m12 2c-5.52 0-10 4.48-10 10s4.48 10 10 10 10-4.48 10-10-4.48-10-10-10zm0 2c4.42 0 8 3.58 8 8 0 1.95-0.69938 3.7291-1.8594 5.1191-3.6127-2.8217-8.6676-2.8224-12.281 0-1.16-1.39-1.8594-3.1691-1.8594-5.1191 0-4.42 3.58-8 8-8zm0 2c-1.93 0-3.5 1.57-3.5 3.5s1.57 3.5 3.5 3.5 3.5-1.57 3.5-3.5-1.57-3.5-3.5-3.5zm0 2c0.83 0 1.5 0.67 1.5 1.5s-0.67 1.5-1.5 1.5-1.5-0.67-1.5-1.5 0.67-1.5 1.5-1.5zm4.6504 10.5c-2.7851 1.9985-6.5154 1.9987-9.3008 0 2.7851-1.9985 6.5154-1.9987 9.3008 0z"/>
</svg>
