<svg viewBox="0 0 24 24" width="24" height="24">
  <path d="M 7.5898438 2 C 6.9808704 1.9723199 7.1191406 2.6933594 7.1191406 2.6933594 L 7.1191406 2.96875 C 7.2575435 2.8580271 7.4253758 2.7757278 7.6191406 2.7480469 C 8.1727541 2.7203669 18.719014 3.8557368 19.660156 3.9941406 C 20.601298 4.1325435 21.542294 4.6855431 21.597656 5.4882812 C 21.653016 6.2910204 21.79142 7.3160008 21.597656 7.5097656 C 21.403891 7.7035294 20.323818 8.0344146 19.714844 8.2558594 C 19.521079 8.3388993 17.749272 8.837954 15.5625 9.4746094 L 17.195312 9.4746094 C 19.077597 9.4746094 21.071123 10.360171 20.683594 12.380859 C 20.434468 13.626488 19.936021 15.342935 19.576172 16.533203 L 20.019531 16.505859 C 20.019531 16.505859 20.766699 16.36665 21.320312 16.089844 C 21.873925 15.813038 22.400391 14.927734 22.400391 14.927734 C 22.981684 13.349937 22.953125 8.421875 22.953125 8.421875 C 22.953125 8.421875 23.035829 6.5950393 22.980469 5.0449219 C 22.952789 3.4948064 21.597192 2.9421479 20.351562 2.7207031 C 19.133614 2.4992573 8.1988181 2.027681 7.5898438 2 z M 7.921875 3.828125 C 7.921875 3.828125 7.0644531 3.9664558 7.0644531 4.796875 L 7.2304688 9.5019531 L 11.880859 9.5019531 L 15.894531 8.0351562 L 16.060547 5.0742188 L 7.921875 3.828125 z M 2.96875 11.9375 C 1.3909526 11.9375 0.7537688 13.04606 1.0859375 14.236328 C 1.2520213 14.817622 2.6079589 19.744337 2.8847656 20.851562 C 3.1892523 21.958788 4.0198637 22.429688 4.7949219 22.429688 L 8.3378906 22.429688 L 8.3378906 20.90625 L 4.6835938 20.90625 C 4.462149 20.90625 4.3248932 20.684942 4.2695312 20.574219 C 4.2418513 20.435815 2.690801 14.40248 2.5800781 14.070312 C 2.4970382 13.710464 2.6633178 13.572266 2.8847656 13.572266 L 16.060547 13.572266 C 16.281993 13.572266 16.448276 13.710464 16.365234 14.070312 C 16.282194 14.430161 14.733095 20.435815 14.677734 20.574219 C 14.650054 20.712622 14.483165 20.90625 14.261719 20.90625 L 10.607422 20.90625 L 10.607422 22.429688 L 14.150391 22.429688 C 14.953129 22.429688 15.75606 21.958788 16.060547 20.851562 C 16.365035 19.744337 17.720972 14.817622 17.859375 14.236328 C 18.191543 13.04606 17.528632 11.9375 15.978516 11.9375 L 2.96875 11.9375 z M 5.2109375 16.505859 L 5.2109375 18.193359 L 13.763672 18.193359 L 13.763672 16.505859 L 5.2109375 16.505859 z "></path>
</svg>
