<svg version="1.1" viewBox="0 0 24 24" xmlns="http://www.w3.org/2000/svg">
 <path d="m3.4199 2.9492-1.4102 1.4199 1.1973 1.1973c-0.87464 0.60202-1.4153 1.6091-1.1836 2.6504l2.002 8.0039c0.58359 2.5722 2.4035 2.7793 2.9746 2.7793h4v-2h-4c-0.78342 0-0.99654-1.0519-1.0273-1.2324l-1.8633-7.457c-0.17029-0.63553 0.056464-1.1293 0.57227-1.2695l3.959 3.959h-1.6406v2h3.6406l4 4h-1.6406v2h3.6406l3.0996 3.0996 1.4102-1.4102-2.3477-2.3496c0.001447-0.001218 0.002461-0.002685 0.003907-0.003906l-1.4297-1.4297c-0.001766 9.7e-4 -0.004084 9.97e-4 -0.005859 0.001953l-3.9062-3.9082h0.005859l-2-2h-0.003906l-3.998-4-2-2-2.0488-2.0508zm4.8789 2.0508 1.998 2h8.7031c0.7371 0 1.0928 0.556 0.89062 1.3105l-1.6562 6.6309 1.6426 1.6426c0.034948-0.11678 0.068551-0.235 0.097656-0.36328l2.002-8.0039c0.36748-1.6513-1.2078-3.2168-2.9766-3.2168h-10.701zm5.9961 6 2 2h0.70508v-2h-2.7051z"/>
</svg>
