<svg version="1.1" viewBox="0 0 24 24" xmlns="http://www.w3.org/2000/svg">
 <path d="m5 5c-1.7688 0-3.344 1.5655-2.9766 3.2168l2.002 8.0039c0.58359 2.5722 2.4035 2.7793 2.9746 2.7793h4v-2h-4c-0.78342 0-0.99654-1.0519-1.0273-1.2324l-1.8633-7.457c-0.20218-0.75455 0.15352-1.3105 0.89062-1.3105h14c0.7371 0 1.0928 0.556 0.89062 1.3105l-1.8633 7.457c-0.030808 0.18054-0.24393 1.2324-1.0273 1.2324h-4v2h4c0.57107 0 2.391-0.20713 2.9746-2.7793l2.002-8.0039c0.36748-1.6513-1.2078-3.2168-2.9766-3.2168zm2 6v2h10v-2z"/>
</svg>
