<svg version="1.1" viewBox="0 0 24 24" xmlns="http://www.w3.org/2000/svg">
 <path d="m3 0c-0.552 0-1 0.45-1 1v8c0 0.55 0.448 1 1 1h5c0.552 0 1-0.45 1-1v-3h2v-2h-2v-3c0-0.55-0.448-1-1-1h-5zm13 0c-0.552 0-1 0.45-1 1v3h-2v2h2v3c0 0.55 0.448 1 1 1h5c0.552 0 1-0.45 1-1v-8c0-0.55-0.448-1-1-1h-5zm-12 2h3v6h-3v-6zm13 0h3v6h-3v-6zm-14 12c-0.552 0-1 0.45-1 1v8c0 0.55 0.448 1 1 1h5c0.552 0 1-0.45 1-1v-3h2v-2h-2v-3c0-0.55-0.448-1-1-1h-5zm13 0c-0.552 0-1 0.45-1 1v3h-2v2h2v3c0 0.55 0.448 1 1 1h5c0.552 0 1-0.45 1-1v-8c0-0.55-0.448-1-1-1h-5zm-12 2h3v6h-3v-6zm13 0h3v6h-3v-6z"/>
</svg>
