<svg id="svg1" version="1.1" viewBox="0 0 24 24" xmlns="http://www.w3.org/2000/svg">
 <path id="path1" d="m12.004 4.4473c-3.9812 0-7.9639 1.5177-11.004 4.5527l2 2c2.6468-2.6468 6.1706-3.8833 9.6367-3.7109l1.334-2.7129c-0.65312-0.082762-1.3094-0.12891-1.9668-0.12891zm4.0039 0.67773-6 12.199c-0.55734 1.1147 0.32936 2.2376 1.1992 2.5508 1.0072 0.3777 2.315-0.02697 2.5996-1.2012l3.25-13.15c0.067826-0.3055-0.084378-0.54844-0.34961-0.64844-0.30623-0.10644-0.59469 0.046445-0.69919 0.24984zm3.0332 1.0059-0.70117 2.834c0.95068 0.54685 1.8476 1.2226 2.6602 2.0352l2-2c-2.0307-2.0307-3.9448-2.8219-3.959-2.8692zm-7.8047 4.0078c-2.2723 0.17538-4.4969 1.1264-6.2363 2.8613l2 2c0.77827-0.77827 1.6933-1.3364 2.668-1.6758zm6.3887 1.7188-0.74805 3.0273c0.04073 0.03886 0.08303 0.07522 0.12305 0.11523l2-2c-0.43012-0.43012-0.89169-0.80832-1.375-1.1426z"/>
</svg>
