<svg version="1.1" viewBox="0 0 24 24" xmlns="http://www.w3.org/2000/svg">
 <path d="m12 3c-4.4561 0-8.7967 1.7218-12 5l7.9492 8.6133 6.6016-13.422c-0.84146-0.1262-1.6941-0.19141-2.5508-0.19141zm4.0078 1.6777-6 12.199c-0.55734 1.1147 0.3294 2.2376 1.1992 2.5508 1.0072 0.3777 2.315-0.02691 2.5996-1.2012l3.25-13.15c0.06783-0.3055-0.08438-0.54844-0.34961-0.64844-0.29992-0.10424-0.59045 0.038302-0.69922 0.25zm3.1895-0.087891-2.9043 11.76 7.707-8.3496c-1.411-1.4439-3.0412-2.5852-4.8027-3.4102z"/>
</svg>
