<svg version="1.1" viewBox="0 0 24 24" xmlns="http://www.w3.org/2000/svg">
 <path d="m6.5684 1.0508c-0.98437-0.014648-1.9691 0.18711-2.8691 0.59961l4.3008 4.2988-3 3-4.4004-4.2988c-1.2 2.4-0.69922 5.4004 1.3008 7.4004 1.9 1.9 4.6004 2.4 6.9004 1.5l9.0996 9.0996c0.4 0.4 1.0004 0.4 1.4004 0l2.2988-2.3008c0.5-0.4 0.49961-1.1004 0.09961-1.4004l-9.0996-9.0996c0.9-2.3 0.4-5.0004-1.5-6.9004-1.25-1.25-2.8906-1.874-4.5312-1.8984zm16.051 4.5488-4.6191 4.5996-2.6191-2.5996-1.3809 1.4004 4 4 6-6-1.3809-1.4004z"/>
</svg>
