<svg version="1.1" viewBox="0 0 24 24" xmlns="http://www.w3.org/2000/svg">
 <path d="m10.449 15.5c0.79704 0.79704 2.3275 0.83368 2.95-0.1l5.6-8.4-8.4 5.6c-0.9214 0.61426-0.95047 2.0995-0.15 2.9zm-5.35 4.5c-0.72124 0-1.3918-0.36281-1.75-0.95-1.0162-1.7602-1.35-3.5107-1.35-5.05 0-5.5702 4.5694-10 10-10 2.3449 0 4.1328 0.7788 5.4 1.65l-1.9 1.2c-1.1352-0.57792-2.288-0.85-3.5-0.85-4.4628 0-8 3.5268-8 8 0 0.91973 0.17759 2.4187 1.1 4h13.8c1.2283-2.0205 1.5985-4.9745 0.25-7.5l1.2-1.9c2.2561 3.5195 2.0526 7.4121 0.3 10.45-0.358 0.58689-1.0284 0.95-1.75 0.95z"/>
</svg>
