<svg id="svg1" version="1.1" viewBox="0 0 16 16" xml:space="preserve" xmlns="http://www.w3.org/2000/svg"><path id="path32" d="m2 0h6v16h-6c-1.108 0-2-0.892-2-2v-12c0-1.108 0.892-2 2-2z" fill="#005d2f"/><path id="rect29" d="m14 0h-6v16h6c1.108 0 2-0.892 2-2v-12c0-1.108-0.892-2-2-2z" fill="#83de9d"/><path id="path1" d="m9 5v4c0 1.0986 0.90136 2 2 2s2-0.90136 2-2v-4h-1v4c0 0.5582-0.44179 1-1 1-0.5582 0-1-0.4418-1-1v-4zm5.0293 0v6h1v-6z"/><path id="path1-1" d="m1 5v4c0 1.0986 0.90136 2 2 2s2-0.90136 2-2v-4h-1v4c0 0.5582-0.44179 1-1 1s-1-0.4418-1-1v-4zm4 0 1.5 3-1.5 3h1l1-2 1 2h1l-1.5-3 1.5-3h-1l-1 2-1-2z" fill="#fff"/></svg>
