<svg id="svg1" version="1.1" viewBox="0 0 16 16" xml:space="preserve" xmlns="http://www.w3.org/2000/svg">
  <style>
    path {
      fill: #005d2f;
    }
    rect {
      fill: #83de9d;
    }
    @media (prefers-color-scheme: dark) {
      path {
        fill: #83de9d;
      }
      rect {
        fill: #005d2f;
      }
    }
  </style>
  <rect width="16" height="16" rx="2" />
  <path d="m1 5v4c0 1.0986 0.90136 2 2 2s2-0.90136 2-2v-4h-1v4c0 0.5582-0.44179 1-1 1s-1-0.4418-1-1v-4h-1zm4 0 1.5 3-1.5 3h1l1-2 1 2h1l-1.5-3 1.5-3h-1l-1 2-1-2h-1zm4 0v4c0 1.0986 0.90136 2 2 2 1.0986 0 2-0.90136 2-2v-4h-1v4c0 0.5582-0.44179 1-1 1-0.5582 0-1-0.4418-1-1v-4h-1zm5.0293 0v6h1v-6h-1z" />
</svg>
