<?xml version="1.0" encoding="UTF-8" standalone="no"?>
<!-- Created with Inkscape (http://www.inkscape.org/) -->

<svg
   width="150"
   height="150"
   viewBox="0 0 150 150"
   version="1.1"
   id="svg5"
   xml:space="preserve"
   inkscape:version="1.2.2 (732a01da63, 2022-12-09, custom)"
   sodipodi:docname="ui-ux.svg"
   inkscape:export-filename="../5a2c635f/ui-ux2.png"
   inkscape:export-xdpi="163.84"
   inkscape:export-ydpi="163.84"
   xmlns:inkscape="http://www.inkscape.org/namespaces/inkscape"
   xmlns:sodipodi="http://sodipodi.sourceforge.net/DTD/sodipodi-0.dtd"
   xmlns:xlink="http://www.w3.org/1999/xlink"
   xmlns="http://www.w3.org/2000/svg"
   xmlns:svg="http://www.w3.org/2000/svg"><sodipodi:namedview
     id="namedview7"
     pagecolor="#ffffff"
     bordercolor="#666666"
     borderopacity="1.0"
     inkscape:showpageshadow="2"
     inkscape:pageopacity="0.0"
     inkscape:pagecheckerboard="0"
     inkscape:deskcolor="#d1d1d1"
     inkscape:document-units="px"
     showgrid="false"
     inkscape:zoom="0.70710678"
     inkscape:cx="378.30213"
     inkscape:cy="311.83409"
     inkscape:window-width="1920"
     inkscape:window-height="946"
     inkscape:window-x="0"
     inkscape:window-y="27"
     inkscape:window-maximized="1"
     inkscape:current-layer="layer1" /><defs
     id="defs2"><inkscape:path-effect
       effect="powerstroke"
       id="path-effect56252"
       is_visible="true"
       lpeversion="1"
       offset_points="0,18.867925"
       not_jump="false"
       sort_points="true"
       interpolator_type="CubicBezierJohan"
       interpolator_beta="0.2"
       start_linecap_type="zerowidth"
       linejoin_type="extrp_arc"
       miter_limit="4"
       scale_width="1"
       end_linecap_type="zerowidth" /><inkscape:path-effect
       effect="powerstroke"
       id="path-effect56248"
       is_visible="true"
       lpeversion="1"
       offset_points="0,18.867925"
       not_jump="false"
       sort_points="true"
       interpolator_type="CubicBezierJohan"
       interpolator_beta="0.2"
       start_linecap_type="zerowidth"
       linejoin_type="extrp_arc"
       miter_limit="4"
       scale_width="1"
       end_linecap_type="zerowidth" /><inkscape:path-effect
       effect="powerstroke"
       id="path-effect56240"
       is_visible="true"
       lpeversion="1"
       offset_points="0,18.867925"
       not_jump="false"
       sort_points="true"
       interpolator_type="CubicBezierJohan"
       interpolator_beta="0.2"
       start_linecap_type="zerowidth"
       linejoin_type="extrp_arc"
       miter_limit="4"
       scale_width="1"
       end_linecap_type="zerowidth" /><linearGradient
       inkscape:collect="always"
       id="linearGradient47487"><stop
         style="stop-color:#90ea99;stop-opacity:0;"
         offset="0"
         id="stop47483" /><stop
         style="stop-color:#97ee9d;stop-opacity:1;"
         offset="1"
         id="stop47485" /></linearGradient><linearGradient
       inkscape:collect="always"
       id="linearGradient43544"><stop
         style="stop-color:#cdf547;stop-opacity:0;"
         offset="0"
         id="stop43540" /><stop
         style="stop-color:#dff85e;stop-opacity:1;"
         offset="1"
         id="stop43542" /></linearGradient><linearGradient
       inkscape:collect="always"
       id="linearGradient23846"><stop
         style="stop-color:#087c73;stop-opacity:0;"
         offset="0"
         id="stop23844" /><stop
         style="stop-color:#00b24a;stop-opacity:1;"
         offset="1"
         id="stop23842" /></linearGradient><linearGradient
       inkscape:collect="always"
       xlink:href="#linearGradient23846"
       id="linearGradient28737"
       x1="-370.9559"
       y1="305.59808"
       x2="-219.25307"
       y2="458.12024"
       gradientUnits="userSpaceOnUse"
       gradientTransform="matrix(0.98346466,0,0,0.98346368,215.22459,-300.54458)" /><linearGradient
       inkscape:collect="always"
       xlink:href="#linearGradient43544"
       id="linearGradient40985"
       gradientUnits="userSpaceOnUse"
       x1="-370.9559"
       y1="305.59808"
       x2="-219.25307"
       y2="458.12024"
       gradientTransform="matrix(0.98346466,0,0,0.98346368,365.22454,-450.5446)" /><linearGradient
       inkscape:collect="always"
       xlink:href="#linearGradient47487"
       id="linearGradient45342"
       gradientUnits="userSpaceOnUse"
       gradientTransform="matrix(0.98346368,0,0,0.98346466,365.22455,-300.54465)"
       x1="-370.9559"
       y1="305.59808"
       x2="-219.25307"
       y2="458.12024" /></defs><g
     inkscape:label="Layer 1"
     inkscape:groupmode="layer"
     id="layer1"><rect
       style="opacity:1;fill:url(#linearGradient45342);fill-opacity:1;stroke:none;stroke-width:3.00001;stroke-linecap:round;stroke-linejoin:round;stroke-miterlimit:5;stroke-dasharray:none;stroke-opacity:1"
       id="rect45340"
       width="149.19423"
       height="150"
       x="0.40289357"
       y="0"
       transform="matrix(0,1,1,0,0,0)" /><rect
       style="opacity:1;fill:url(#linearGradient40985);fill-opacity:1;stroke:none;stroke-width:3.00001;stroke-linecap:round;stroke-linejoin:round;stroke-miterlimit:5;stroke-dasharray:none;stroke-opacity:1"
       id="rect40983"
       width="149.19424"
       height="149.99998"
       x="0.40287858"
       y="-150"
       transform="scale(1,-1)" /><rect
       style="opacity:1;fill:url(#linearGradient28737);fill-opacity:1;stroke:none;stroke-width:3.00001;stroke-linecap:round;stroke-linejoin:round;stroke-miterlimit:5;stroke-dasharray:none;stroke-opacity:1"
       id="rect11242"
       width="149.19424"
       height="149.99998"
       x="-149.59712"
       y="0"
       transform="scale(-1,1)" /><path
       style="font-variation-settings:normal;opacity:1;vector-effect:none;fill:#003399;fill-opacity:1;fill-rule:nonzero;stroke:none;stroke-width:1;stroke-linecap:round;stroke-linejoin:round;stroke-miterlimit:4;stroke-dasharray:none;stroke-dashoffset:0;stroke-opacity:1;-inkscape-stroke:none;stop-color:#000000;stop-opacity:1"
       d="m 11.315274,154.63618 c 0,0 7.106669,17.47838 7.106669,17.47838 4.748508,-1.93073 9.39161,-4.01302 13.568385,-6.20808 3.591917,-1.8877 7.136833,-4.01275 10.251617,-6.4117 1.459473,-1.12406 2.949839,-2.40388 4.358393,-3.85314 1.340842,-1.37959 2.75077,-3.05941 3.991503,-5.05559 1.203717,-1.93662 2.337421,-4.31581 3.011691,-7.10567 0.666573,-2.75803 0.827372,-5.69541 0.340433,-8.66574 -0.468151,-2.85572 -1.469317,-5.34632 -2.692769,-7.43 -1.171375,-1.99498 -2.531211,-3.59503 -3.818701,-4.85453 -2.409574,-2.35719 -5.075917,-4.01317 -7.274932,-5.19433 -2.182094,-1.17207 -4.489944,-2.182 -6.631094,-3.05976 -2.06366,-0.846 -4.304815,-1.70177 -6.320501,-2.48334 -4.168047,-1.61614 -7.62245,-3.01881 -10.64471,-4.61544 -1.405209,-0.74236 -2.478132,-1.40366 -3.344441,-1.99843 -0.765179,-0.52533 -1.444815,-1.05722 -1.784302,-1.3339 -0.368965,-0.3007 -0.745989,-0.61506 -0.978824,-1.18167 -0.242283,-0.58962 -0.390323,-1.59705 -0.0494,-3.204946 0.340669,-1.606691 1.153674,-3.714779 2.71444,-6.334296 1.55392,-2.60802 3.784805,-5.616076 6.857656,-9.029879 4.268745,-7.168582 9.297275,-13.15607 14.966044,-18.350686 7.260746,-6.653434 15.170015,-11.58038 20.318353,-13.672282 -5.284953,2.147412 -13.931877,3.954752 -24.021222,7.207358 -7.648686,2.465786 -16.0652,5.844829 -24.5883888,11.457569 -3.9921401,3.636458 -7.35770451,7.154508 -10.1036513,10.591138 -2.7511418,3.443135 -4.9682631,6.913803 -6.5593479,10.457234 -1.611748,3.589452 -2.594378,7.286201 -2.805504,11.07858 -0.214424,3.85162 0.384524,7.51286 1.612889,10.91534 1.2273285,3.39962 3.0157329,6.35973 4.9853728,8.89817 1.9890296,2.56343 4.2295667,4.78297 6.43333847,6.69018 4.42374813,3.82844 9.45160433,7.01813 13.25572073,9.41743 2.105572,1.328 3.884817,2.43926 5.462464,3.50396 1.606313,1.08405 2.789192,1.98124 3.480529,2.67012 0.494048,0.49229 0.960368,1.29252 -0.0045,0.59967 -0.370001,-0.2657 -0.983357,-0.84521 -1.6145,-1.83304 -0.664943,-1.04072 -1.31063,-2.48179 -1.637559,-4.2719 -0.34206,-1.87295 -0.257391,-3.70102 0.100413,-5.33084 0.355613,-1.61982 0.918932,-2.80388 1.330228,-3.55385 0.426985,-0.77857 0.69638,-1.12854 0.722351,-1.24659 0.02585,-0.11751 -0.194904,0.002 -0.644688,0.25323 -1.235006,0.69 -2.683392,1.50173 -5.541224,2.85381 -3.055026,1.44536 -6.6994836,3.01509 -10.9149216,4.72908 0,0 7.1066686,17.47838 7.1066686,17.47838 z"
       id="path56238"
       inkscape:path-effect="#path-effect56240"
       inkscape:original-d="M 11.315274,154.63618 C 89.23125,122.95573 -43.206304,133.79629 13.31378,77.415099 25.574307,65.184703 39.810158,58.349138 55.260784,52.071151" /><g
       id="g56477"
       transform="matrix(1.1513685,0,0,1.1513685,-11.352638,-15.958098)"><path
         id="path11244"
         style="fill:#ffffff;fill-opacity:1;stroke:#000000;stroke-width:3;stroke-linecap:round;stroke-linejoin:round;stroke-miterlimit:5;stroke-opacity:1"
         d="m 74.43523,85.42064 v 25.5487 h -8.21874 v 6.01954 h 30.41126 v -6.01954 h -8.21679 v -25.5487 z"
         sodipodi:nodetypes="ccccccccc" /><path
         id="path11246"
         style="fill:#ffffff;fill-opacity:1;stroke:#000000;stroke-width:3;stroke-linecap:round;stroke-linejoin:round;stroke-miterlimit:5;stroke-opacity:1"
         d="m 47.09419,40.92916 c -4.62971,0 -8.35742,3.72771 -8.35742,8.35743 v 43.77858 c 0,4.62971 3.72771,8.35547 8.35742,8.35547 h 70.72461 c 4.62971,0 8.35742,-3.72576 8.35742,-8.35547 V 49.28659 c 0,-4.62972 -3.72771,-8.35743 -8.35742,-8.35743 z"
         sodipodi:nodetypes="sssccssss" /><path
         id="path11248"
         style="fill:#ffffff;fill-opacity:1;stroke:#000000;stroke-width:3;stroke-linecap:round;stroke-linejoin:round;stroke-miterlimit:5"
         d="m 29.44564,66.92752 h 25.31935 c 3.11451,0 5.62185,2.50735 5.62185,5.62186 v 38.8996 c 0,3.1145 -2.50734,5.62185 -5.62185,5.62185 H 29.44564 c -3.11451,0 -5.62185,-2.50735 -5.62185,-5.62185 v -38.8996 c 0,-3.11451 2.50734,-5.62186 5.62185,-5.62186 z" /><text
         xml:space="preserve"
         style="font-weight:500;font-size:28.1069px;line-height:1.25;font-family:'Hella DIN Universal';-inkscape-font-specification:'Hella DIN Universal Medium';stroke-width:0.264583"
         x="29.541533"
         y="102.95965"
         id="text11252"><tspan
           sodipodi:role="line"
           id="tspan11250"
           style="stroke-width:0.264583"
           x="29.541533"
           y="102.95965">UI</tspan></text><text
         xml:space="preserve"
         style="font-weight:500;font-size:42.1359px;line-height:1.25;font-family:'Hella DIN Universal';-inkscape-font-specification:'Hella DIN Universal Medium';stroke-width:0.264583"
         x="66.461578"
         y="85.732872"
         id="text11256"><tspan
           sodipodi:role="line"
           id="tspan11254"
           style="stroke-width:0.264583"
           x="66.461578"
           y="85.732872">UX</tspan></text><path
         style="fill:none;stroke:#000000;stroke-width:3;stroke-linecap:butt;stroke-linejoin:miter;stroke-dasharray:none;stroke-opacity:1"
         d="M 23.82379,74.54305 H 60.38684"
         id="path11258" /><circle
         style="fill:#000000;fill-opacity:1;stroke:none;stroke-width:3;stroke-linecap:round;stroke-linejoin:round;stroke-miterlimit:5;stroke-dasharray:none;stroke-opacity:1"
         id="circle11260"
         cx="41.856964"
         cy="111.5862"
         r="1.5" /></g><path
       style="font-variation-settings:normal;opacity:1;vector-effect:none;fill:#3366cc;fill-opacity:1;fill-rule:nonzero;stroke:none;stroke-width:1;stroke-linecap:round;stroke-linejoin:round;stroke-miterlimit:4;stroke-dasharray:none;stroke-dashoffset:0;stroke-opacity:1;-inkscape-stroke:none;stop-color:#000000;stop-opacity:1"
       d="m 21.285078,172.02111 c 0,0 10.909622,15.39411 10.909622,15.39411 3.125664,-2.21512 6.319822,-4.79197 9.122333,-7.71524 2.385871,-2.48867 4.971454,-5.72726 6.81362,-9.7037 0.880333,-1.90026 1.634031,-4.05687 2.076701,-6.46193 0.428329,-2.32715 0.547674,-4.80951 0.232297,-7.36852 -0.304398,-2.46992 -0.988858,-4.80588 -1.982101,-6.95614 -0.952703,-2.06249 -2.135817,-3.83981 -3.398481,-5.35007 -2.373334,-2.83872 -5.103864,-4.82856 -7.513199,-6.24257 -2.325577,-1.36484 -4.73245,-2.41401 -6.973829,-3.25103 -4.159307,-1.55326 -8.748172,-2.73055 -12.527962,-3.67333 -3.699746,-0.9228 -7.061531,-1.7831 -9.0148887,-2.29663 -0.948067,-0.24924 -1.5348426,-0.41476 -1.6336688,-0.18369 -0.050606,0.11832 0.020119,0.32912 0.1672742,0.72212 0.1444832,0.38587 0.3622071,0.94938 0.5170965,1.66864 0.1592095,0.73932 0.2303302,1.55268 0.1419957,2.384 -0.08712,0.81988 -0.3133544,1.49046 -0.5751468,1.95355 -0.2557784,0.45245 -0.508821,0.6449 -0.6329977,0.61678 -0.1244849,-0.0282 -0.1214222,-0.27242 0.056823,-0.66453 0.3701425,-0.81425 1.3827116,-2.10467 3.1791072,-3.74262 1.78524,-1.62777 4.242182,-3.51182 7.468856,-5.643 3.817047,-4.55735 7.845184,-8.73739 12.178374,-12.10136 5.785863,-4.49171 11.346607,-6.85146 15.44076,-7.00904 -3.88537,0.14955 -10.162157,-0.50297 -17.984649,0.007 -6.143045,0.40012 -12.335288,1.33793 -19.0071158,2.7285 -3.9108703,1.95708 -7.3145525,3.83788 -10.1922315,5.66429 -2.8566807,1.81308 -5.4386684,3.72464 -7.5569218,5.80268 -1.0796909,1.05919 -2.1073699,2.22778 -3.0111099,3.52544 -0.913259,1.31132 -1.725417,2.78839 -2.325885,4.45998 -0.608916,1.6951 -0.977087,3.53461 -1.011686,5.48116 -0.03486,1.96125 0.272215,3.85335 0.843054,5.62728 0.567935,1.76489 1.366126,3.31983 2.237026,4.65883 0.871429,1.33981 1.839485,2.50046 2.7873376,3.49044 1.8779656,1.96143 3.9694583,3.55521 5.8319255,4.81229 3.73871362,2.52346 8.1423445,4.72241 11.4936538,6.40722 3.9035051,1.96241 6.9399641,3.49907 9.0845841,4.97883 1.064487,0.73449 1.720184,1.34135 1.871797,1.68034 0.115442,0.25812 -0.264332,0.40558 -1.241175,-0.57452 -0.47263,-0.4742 -1.028714,-1.18939 -1.524391,-2.16169 -0.52104,-1.02204 -0.912167,-2.20541 -1.107627,-3.48992 -0.202241,-1.32906 -0.16366,-2.55415 -0.01155,-3.59318 0.154692,-1.05667 0.417087,-1.8588 0.595784,-2.34625 0.363837,-0.99246 0.451803,-1.00155 -0.334339,-0.32639 -0.961134,0.82544 -2.22921,1.86073 -4.398688,3.39822 0,0 10.909622,15.39411 10.909622,15.39411 z"
       id="path56246"
       inkscape:path-effect="#path-effect56248"
       inkscape:original-d="m 21.285078,172.02111 c 45.397796,-32.17287 -65.426868,-21.97726 -8.252863,-54.70148 9.865646,-5.64672 20.94652,-10.48552 32.305449,-10.92272" /><path
       style="font-variation-settings:normal;opacity:1;vector-effect:none;fill:#6699ff;fill-opacity:1;fill-rule:nonzero;stroke:none;stroke-width:1;stroke-linecap:round;stroke-linejoin:round;stroke-miterlimit:4;stroke-dasharray:none;stroke-dashoffset:0;stroke-opacity:1;-inkscape-stroke:none;stop-color:#000000;stop-opacity:1"
       d="m 6.9454831,173.93574 c 0,0 3.4596539,18.54803 3.4596539,18.54803 8.026139,-1.49707 16.426777,-3.37933 24.128201,-5.59221 6.240528,-1.79313 12.127428,-3.83132 17.224102,-6.16139 4.376683,-2.00091 8.790594,-4.49436 12.423523,-7.69812 1.740648,-1.53502 3.592673,-3.48748 5.129312,-5.90225 1.521603,-2.39116 2.808301,-5.36053 3.218976,-8.80515 0.40674,-3.41161 -0.130089,-6.61227 -1.283444,-9.38323 -1.087869,-2.61364 -2.62637,-4.62721 -4.100955,-6.13014 -1.449371,-1.47723 -3.014054,-2.64274 -4.484253,-3.5752 -1.461213,-0.92676 -2.990297,-1.72429 -4.489181,-2.42098 -2.909412,-1.35232 -6.184093,-2.54251 -9.383927,-3.60161 -3.19133,-1.05628 -6.653677,-2.09346 -10.013691,-3.08315 -7.027747,-2.07002 -13.58917,-3.93822 -19.496461,-6.03494 -2.964284,-1.05214 -5.54116,-2.08694 -7.709929,-3.12821 -1.105838,-0.53094 -2.0806272,-1.0517 -2.931795,-1.56359 -0.8691988,-0.52275 -1.5973521,-1.02902 -2.1970086,-1.51723 -0.6112428,-0.49766 -1.1008244,-0.98606 -1.4689496,-1.46563 -0.3798969,-0.4949 -0.6650719,-1.02403 -0.8159891,-1.6245 -0.1589237,-0.63233 -0.173396,-1.36455 0.029567,-2.208 0.2134141,-0.88689 0.6570326,-1.85085 1.352548,-2.86799 1.5506798,-2.26775 4.1769072,-4.55254 7.6020273,-6.73978 4.196798,-2.68001 9.384141,-5.083488 14.695548,-7.088827 -5.308729,2.004328 -10.600088,4.123727 -15.11137,6.350717 -3.6306901,1.7923 -6.8080985,3.67786 -9.1404743,5.70224 -1.0677967,0.9268 -2.0067165,1.92301 -2.75156899,3.01286 -0.71418803,1.04498 -1.2613926,2.19284 -1.56686918,3.46413 -0.29497843,1.22759 -0.35107083,2.51636 -0.15756676,3.8525 0.18626685,1.28617 0.59659311,2.56724 1.19152429,3.82981 0.57761366,1.22581 1.32723804,2.43034 2.21270334,3.61019 0.8659234,1.1538 1.8662619,2.29007 2.9743373,3.40937 2.1613493,2.18324 4.7434283,4.31339 7.5803823,6.40864 5.554688,4.10245 11.96236,7.98352 17.917542,11.78214 2.941542,1.87632 5.689252,3.68108 8.065011,5.41408 2.407053,1.75584 4.341576,3.37539 5.579251,4.7661 0.618754,0.69526 1.030689,1.30063 1.192056,1.7482 0.158121,0.43856 0.05814,0.72643 -0.340325,0.60228 -0.377605,-0.11765 -1.101412,-0.68349 -1.747172,-1.93079 -0.695997,-1.34434 -1.110952,-3.1426 -0.972594,-5.14846 0.13342,-1.93428 0.774479,-3.55534 1.234074,-4.52137 0.481426,-1.01192 0.747678,-1.3947 0.595841,-1.55594 -0.292174,-0.31026 -2.256647,0.43058 -5.300364,1.23645 -3.67216,0.97226 -8.014947,1.99212 -13.727792,3.18615 -6.9341,1.44927 -14.348402,2.83573 -22.0741552,4.27677 0,0 3.4596543,18.54803 3.4596543,18.54803 z"
       id="path56250"
       inkscape:path-effect="#path-effect56252"
       inkscape:original-d="M 6.9454831,173.93574 C 152.2836,146.82668 -70.868818,133.15697 27.833358,95.891643" /></g></svg>
