<svg id="svg7" class="Header_monogram__x8Aj_" title="Pictogrammers Monogram" version="1.1" viewBox="0 0 24 24" xml:space="preserve" xmlns="http://www.w3.org/2000/svg"><path id="path6" d="m4 0.001978c-2.2025 0-4 1.7974-4 4v15.996c0 2.2152 1.7848 4 4 4h16c2.2025 0 4-1.7974 4-4v-15.996c0-2.2152-1.7848-4-4-4zm4.2153 6.6075h4.291c0.82278 0 1.5571 0.15185 2.1774 0.45565 0.63291 0.3038 1.1265 0.73433 1.4683 1.2913 0.34177 0.55696 0.51894 1.1898 0.51894 1.9113 0 1.0506-0.36714 1.8861-1.1266 2.519-0.7595 0.63291-1.7846 0.94937-3.0884 0.94937l-1.6456-0.02546v3.6331h-2.5949zm2.6202 1.9746-0.01261 3.1646h1.6963c0.50633 0 0.88603-0.12658 1.1519-0.37975 0.26582-0.25316 0.40496-0.6202 0.40496-1.0886 0-0.51899-0.13914-0.92395-0.40496-1.2278-0.26582-0.3038-0.63306-0.4685-1.1014-0.4685z" fill="#88007c"/></svg>
