<svg id="svg1" version="1.1" viewBox="0 0 24 24" xmlns="http://www.w3.org/2000/svg">
 <path id="circle1-6" d="m24 12a7 7 0 0 1-7 7 7 7 0 0 1-7-7 7 7 0 0 1 7-7 7 7 0 0 1 7 7z" fill="#83de9d"/>
 <path id="path1-2" d="m14 12a7 7 0 0 1-7 7 7 7 0 0 1-7-7 7 7 0 0 1 7-7 7 7 0 0 1 7 7z" fill="#005d2f"/>
 <path id="path6" d="m12 16.875a7 7 0 0 0 2-4.875 7 7 0 0 0-1.9902-4.8848 7 7 0 0 0-2.0098 4.8848 7 7 0 0 0 2 4.875z" fill="#007d40"/>
 <path id="path1" d="m13.971 9v4c0 1.0986 0.90136 2 2 2s2-0.90136 2-2v-4h-1v4c0 0.5582-0.44179 1-1 1-0.5582 0-1-0.4418-1-1v-4h-1zm5.0293 0v6h1v-6h-1z"/>
 <path id="path1-1" d="m3 9v4c0 1.0986 0.90136 2 2 2s2-0.90136 2-2v-4h-1v4c0 0.5582-0.44179 1-1 1s-1-0.4418-1-1v-4h-1zm4 0 1.5 3-1.5 3h1l1-2 1 2h1l-1.5-3 1.5-3h-1l-1 2-1-2h-1z" fill="#fff"/>
</svg>
