<svg version="1.1" viewBox="0 0 24 24" xmlns="http://www.w3.org/2000/svg">
<g transform="translate(-366,-96)">
  <g id="Icon_11" clip-rule="evenodd" fill-rule="evenodd">
   <path id="path3" d="m374.5 105.5c0-1.93 1.57-3.5 3.5-3.5s3.5 1.57 3.5 3.5-1.57 3.5-3.5 3.5-3.5-1.57-3.5-3.5zm2 0c0 0.83 0.67 1.5 1.5 1.5s1.5-0.67 1.5-1.5-0.67-1.5-1.5-1.5-1.5 0.67-1.5 1.5z"></path>
   <path id="path4" d="m368 108c0-5.52 4.48-10 10-10s10 4.48 10 10-4.48 10-10 10-10-4.48-10-10zm10 5c-1.74 0-3.34 0.56-4.65 1.5 1.31 0.94 2.91 1.5 4.65 1.5s3.34-0.56 4.65-1.5c-1.31-0.94-2.91-1.5-4.65-1.5zm0-2c2.32 0 4.45 0.8 6.14 2.12 1.16-1.39 1.86-3.17 1.86-5.12 0-4.42-3.58-8-8-8s-8 3.58-8 8c0 1.95 0.7 3.73 1.86 5.12 1.69-1.32 3.82-2.12 6.14-2.12z"></path>
  </g>
 </g>
</svg>