<svg version="1.1" viewBox="0 0 24 24" xmlns="http://www.w3.org/2000/svg">
<g transform="translate(-558,-96)">
  <path id="Icon_17" d="m570.3 103.1c-1.2 0-2.4 0.3-3.4 0.9-2 1.2-3.3 3.3-3.3 5.7 0 3.7 3 6.7 6.7 6.7s6.7-3 6.7-6.7-3-6.6-6.7-6.6zm0 11.3c-2.6 0-4.7-2.1-4.7-4.7 0-1.3 0.6-2.6 1.5-3.4l2.3 3.9c0.2 0.3 0.5 0.5 0.9 0.5 0.2 0 0.3 0 0.5-0.1 0.5-0.3 0.6-0.9 0.4-1.4l-2.3-3.9c0.5-0.2 0.9-0.3 1.4-0.3 2.6 0 4.7 2.1 4.7 4.7s-2.1 4.7-4.7 4.7zm-1.6-12.8c0.6 0 1-0.4 1-1s-0.4-1-1-1-1 0.4-1 1c0 0.5 0.4 1 1 1zm3.2 0c0.6 0 1-0.4 1-1s-0.4-1-1-1-1 0.4-1 1 0.5 1 1 1zm6.5 2.2c0-0.6-0.4-1-1-1s-1 0.4-1 1 0.4 1 1 1 1-0.5 1-1zm-3.4-1.1c0.6 0 1-0.4 1-1s-0.4-1-1-1-1 0.4-1 1 0.4 1 1 1zm4 2.9c-0.6 0-1 0.4-1 1s0.4 1 1 1 1-0.4 1-1-0.4-1-1-1zm-12.862-3.004c0.522-0.296 0.672-0.842 0.376-1.364-0.296-0.521-0.841-0.672-1.363-0.376-1.611 0.914-2.908 2.267-3.804 3.868l-2e-3 -1e-3c-0.861 1.511-1.345 3.219-1.345 4.977 0 0.6 0.4 1 1 1s1-0.4 1-1c0-1.36 0.364-2.693 1.006-3.875 0.72-1.335 1.798-2.473 3.132-3.229z"></path>
 </g>
</svg>