<svg version="1.1" viewBox="0 0 24 24" xmlns="http://www.w3.org/2000/svg">
<g transform="translate(-590,-96)">
  <g id="ADAS Guided Calibration_2">
   <path id="Union" d="m593 97h19v13h-6.132c0.087-0.487 0.132-0.988 0.132-1.5 0-4.694-3.806-8.5-8.5-8.5-1.653 0-3.195 0.472-4.5 1.288zm-2 16.978v0.022h0.019zm14.248-1.978c-0.851 1.881-2.367 3.397-4.248 4.248v0.752h-4v2h11v-2h-4v-3h9v-2zm-7.748 3c-3.59 0-6.5-2.91-6.5-6.5s2.91-6.5 6.5-6.5 6.5 2.91 6.5 6.5-2.91 6.5-6.5 6.5zm0-11.351c-2.716 0-4.851 2.232-4.851 4.851 0 2.716 2.232 4.851 4.851 4.851s4.851-2.232 4.851-4.851c0-2.716-2.232-4.851-4.851-4.851zm3.1 4.751-4.7-2.7c-0.2-0.1-0.5 0.1-0.5 0.3v5.4c0 0.2 0.3 0.4 0.5 0.3l4.7-2.7c0.2-0.1 0.2-0.4 0-0.6z" clip-rule="evenodd" fill-rule="evenodd"></path>
  </g>
 </g>
</svg>