<svg version="1.1" viewBox="0 0 24 24" xmlns="http://www.w3.org/2000/svg">
<g transform="translate(-622,-96)">
  <g id="Icon_18">
   <path id="path10" d="m626 96h2v2h-2z"></path>
   <path id="path11" d="m639 97h2v6h-2z"></path>
   <path id="path12" d="m628 120v-2h-2v2z"></path>
   <path id="path13" d="m639 114 1 1 1-1v5h-2z"></path>
   <path id="path14" d="m640 113 6-9h-12z"></path>
   <path id="path15" d="m622 117v-18h10v18zm5-10c1.657 0 3-1.343 3-3s-1.343-3-3-3-3 1.343-3 3 1.343 3 3 3zm0 8c1.657 0 3-1.343 3-3s-1.343-3-3-3-3 1.343-3 3 1.343 3 3 3z" clip-rule="evenodd" fill-rule="evenodd"></path>
  </g>
 </g>
</svg>