<svg version="1.1" viewBox="0 0 24 24" xmlns="http://www.w3.org/2000/svg">
<g transform="translate(-462,-96)">
  <g id="Icon_14">
   <path id="path5" d="m474 97h-2v5.17l-3.24-3.24-1.42 1.41 4.66 4.66v2h-2l-4.66-4.66-1.41 1.42 3.24 3.24h-4.17v2h4.17l-3.24 3.24 1.41 1.42 4.66-4.66h2v2l-4.66 4.66 1.42 1.41 3.24-3.24v5.17h2z"></path>
   <path id="path6" d="m481.42 100.58c0.39 0.38 0.39 1.02 0 1.41l-1.06 1.06c-0.38 0.39-1.02 0.38-1.41 0s-0.39-1.02 0-1.41l1.06-1.06c0.38-0.39 1.02-0.39 1.41 0z"></path>
   <path id="path7" d="m476 112.58c1.765-0.772 3-2.534 3-4.583s-1.235-3.811-3-4.583v2.352c0.613 0.55 1 1.347 1 2.231s-0.387 1.681-1 2.231z"></path>
   <path id="path8" d="m484 109h-2c-0.55 0-1-0.45-1-1s0.45-1 1-1h2c0.55 0 1 0.45 1 1s-0.45 1-1 1z"></path>
   <path id="path9" d="m480.36 112.95c-0.39-0.39-1.03-0.39-1.41 0-0.39 0.39-0.39 1.03 0 1.41l1.06 1.06c0.39 0.39 1.03 0.39 1.41 0 0.39-0.39 0.39-1.03 0-1.41z"></path>
  </g>
 </g>
</svg>