<svg version="1.1" viewBox="0 0 24 24" xmlns="http://www.w3.org/2000/svg">
<g transform="translate(-526 -96)">
  <path id="Icon_16" d="m545.07 100.93c-1.954-1.9534-4.512-2.929-7.071-2.929s-5.118 0.9756-7.071 2.929c-3.906 3.904-3.906 10.237 0 14.142 1.953 1.953 4.512 2.929 7.071 2.929s5.117-0.976 7.071-2.929c3.905-3.905 3.905-10.237 0-14.142zm-1.415 12.728c-1.511 1.511-3.52 2.343-5.656 2.343-2.137 0-4.146-0.832-5.657-2.343s-2.343-3.52-2.343-5.657 0.832-4.146 2.343-5.657 3.52-2.343 5.657-2.343c2.136 0 4.145 0.832 5.656 2.343s2.344 3.52 2.344 5.657-0.833 4.146-2.344 5.657zm-10.416-8.174-1.623 5.017h1.07l0.345-1.189h1.723l0.343 1.189h1.068l-1.631-5.018zm0.049 2.939 0.316-1.094c7e-3 -0.025 0.018-0.065 0.033-0.116 0.014-0.052 0.031-0.113 0.05-0.181s0.037-0.141 0.057-0.219c0.022-0.078 0.042-0.154 0.062-0.231 0.02-0.075 0.035-0.148 0.051-0.217 0.015-0.068 0.026-0.126 0.035-0.177 0.012 0.08 0.03 0.176 0.058 0.291 0.028 0.114 0.057 0.226 0.088 0.34 0.03 0.112 0.06 0.215 0.086 0.309 0.027 0.093 0.048 0.161 0.063 0.202l0.321 1.094zm5.916-0.214c-0.104-0.116-0.227-0.22-0.37-0.315-0.145-0.094-0.301-0.186-0.473-0.277-0.141-0.075-0.261-0.144-0.36-0.203s-0.18-0.116-0.242-0.174c-0.062-0.057-0.108-0.118-0.137-0.183-0.028-0.066-0.043-0.14-0.043-0.225 0-0.157 0.046-0.283 0.142-0.377 0.096-0.095 0.23-0.142 0.408-0.142 0.082 0 0.164 6e-3 0.245 0.019 0.081 0.012 0.164 0.031 0.247 0.056 0.086 0.025 0.172 0.055 0.26 0.092 0.09 0.037 0.186 0.079 0.287 0.125l0.342-0.824c-0.12-0.057-0.237-0.107-0.352-0.15-0.116-0.043-0.228-0.08-0.34-0.109-0.114-0.03-0.227-0.052-0.343-0.068-0.115-0.015-0.233-0.024-0.354-0.024-0.242 0-0.46 0.032-0.656 0.095-0.194 0.065-0.36 0.157-0.496 0.279-0.137 0.123-0.242 0.271-0.316 0.447-0.074 0.177-0.111 0.377-0.111 0.6 0 0.228 0.039 0.423 0.117 0.586 0.076 0.163 0.173 0.302 0.288 0.416 0.115 0.115 0.236 0.211 0.367 0.289 0.129 0.078 0.247 0.145 0.353 0.198 0.125 0.065 0.237 0.129 0.34 0.188 0.102 0.059 0.187 0.12 0.26 0.183 0.072 0.063 0.127 0.13 0.167 0.202 0.04 0.071 0.06 0.155 0.06 0.248 0 0.078-0.012 0.149-0.035 0.213-0.024 0.066-0.062 0.121-0.112 0.168-0.053 0.046-0.119 0.083-0.203 0.109-0.083 0.026-0.183 0.039-0.299 0.039-0.114 0-0.228-0.011-0.344-0.035-0.116-0.023-0.229-0.054-0.346-0.092-0.115-0.038-0.228-0.083-0.341-0.131-0.111-0.049-0.222-0.1-0.331-0.152v0.984c0.191 0.1 0.399 0.176 0.625 0.226 0.225 0.051 0.456 0.075 0.699 0.075 0.275 0 0.52-0.034 0.732-0.103s0.394-0.165 0.54-0.292 0.259-0.279 0.335-0.458 0.116-0.38 0.116-0.604c0-0.196-0.029-0.367-0.086-0.514-0.055-0.139-0.135-0.27-0.24-0.385zm3.548-2.725h-1.296l-1.623 5.017h1.07l0.346-1.189h1.723l0.342 1.189h1.069zm-1.248 2.939 0.317-1.094c7e-3 -0.025 0.018-0.065 0.032-0.116 0.015-0.052 0.031-0.113 0.05-0.181s0.038-0.141 0.058-0.219c0.021-0.078 0.041-0.154 0.061-0.231 0.02-0.075 0.036-0.148 0.051-0.217 0.016-0.068 0.027-0.126 0.036-0.177 0.012 0.08 0.03 0.176 0.057 0.291 0.028 0.114 0.057 0.226 0.088 0.34 0.03 0.112 0.06 0.215 0.087 0.309 0.027 0.093 0.048 0.161 0.062 0.202l0.321 1.094z"></path>
 </g>
</svg>