<svg version="1.1" viewBox="0 0 24 24" xmlns="http://www.w3.org/2000/svg">
<g transform="translate(-398,-96)">
  <path id="Icon_12" d="m400.88 103.88 1.54 1.54c-0.27 0.81-0.42 1.68-0.42 2.58 0 4.41 3.59 8 8 8s8-3.59 8-8-3.59-8-8-8c-0.9 0-1.77 0.15-2.58 0.42l-1.53-1.53c1.26-0.57 2.65-0.89 4.11-0.89 5.52 0 10 4.48 10 10s-4.48 10-10 10-10-4.48-10-10c0-1.47 0.32-2.86 0.88-4.12zm4.12-2.38c0 0.83-0.67 1.5-1.5 1.5s-1.5-0.67-1.5-1.5 0.67-1.5 1.5-1.5 1.5 0.67 1.5 1.5zm5.03 3.49h-0.07l-1.16 3.31h2.39zm-0.03 9.01c3.31 0 6-2.69 6-6s-2.69-6-6-6-6 2.69-6 6 2.69 6 6 6zm-0.71-10.5h1.43l3.01 8h-1.39l-0.72-2.04h-3.23l-0.73 2.04h-1.38z"></path>
 </g>
</svg>