<svg version="1.1" viewBox="0 0 24 24" xmlns="http://www.w3.org/2000/svg">
<g transform="translate(-910.33,-327.5)">
  <g id="Icon_61" clip-rule="evenodd" fill-rule="evenodd">
   <path id="path33" d="m930.52 334.4c0.028 0.201 0.056 0.393 0.056 0.604s-0.028 0.403-0.056 0.604l-4e-3 0.026 1.14 1.01-1 1.73-1.45-0.49c-0.32 0.27-0.68 0.48-1.08 0.63l-0.3 1.49h-2l-0.3-1.49c-0.4-0.15-0.76-0.36-1.08-0.63l-1.45 0.49-1-1.73 1.14-1.01c-1e-3 -9e-3 -3e-3 -0.018-4e-3 -0.026-0.028-0.201-0.056-0.393-0.056-0.604s0.028-0.403 0.056-0.604l4e-3 -0.026-1.14-1.01 1-1.73 1.45 0.49c0.32-0.27 0.68-0.48 1.08-0.63l0.3-1.49h2l0.3 1.49c0.4 0.15 0.76 0.36 1.08 0.63l1.45-0.49 1 1.73-1.14 1.01zm-5.694 0.604c0 1.1 0.9 2 2 2s2-0.9 2-2-0.9-2-2-2-2 0.9-2 2z"></path>
   <path id="path34" d="m914 331h3.5c0.55 0 1 0.45 1 1 0 1.25 0.2 2.45 0.57 3.57 0.11 0.35 0.03 0.74-0.25 1.02l-2.2 2.2c1.44 2.83 3.76 5.14 6.59 6.59l2.2-2.2c0.2-0.19 0.45-0.29 0.71-0.29 0.1 0 0.21 0.01 0.31 0.05 1.12 0.37 2.33 0.57 3.57 0.57 0.55 0 1 0.45 1 1v3.49c0 0.55-0.45 1-1 1-9.39 0-17-7.61-17-17 0-0.55 0.45-1 1-1zm2.99 4.59c-0.24-0.83-0.39-1.7-0.45-2.59h-1.51c0.09 1.32 0.35 2.59 0.76 3.79zm12.01 9.88c-0.88-0.06-1.75-0.21-2.6-0.45l-1.2 1.19c1.21 0.4 2.48 0.66 3.8 0.75z"></path>
  </g>
 </g>
</svg>