<svg version="1.1" viewBox="0 0 24 24" xmlns="http://www.w3.org/2000/svg">
<g transform="translate(-1070,-328)">
  <path id="Icon_66" d="m1092 332.69v-1.689h-6.18c-0.88 0-1.42 0.37-1.63 1.109l-2.33 6.757v1.596h-1.53l-1.94-1.94h-3.06c-0.27 0-0.53 0.115-0.76 0.345s-0.34 0.484-0.34 0.762h-2.23v1.12h2.23v2.214h-2.23v1.12h2.23c0 0.278 0.11 0.532 0.34 0.762s0.49 0.345 0.76 0.345h3.06l1.94-1.94h1.54v4.644c0 0.317 0.1 0.581 0.31 0.792 0.21 0.208 0.48 0.314 0.79 0.314h1.17c0.31 0 0.58-0.106 0.79-0.317s0.31-0.475 0.31-0.792v-1.161h6.76v-8.973h-7.86l1.68-5.068zm-7.36 7.786c0.33-0.334 0.73-0.502 1.18-0.502 0.46 0 0.86 0.167 1.19 0.502 0.34 0.334 0.5 0.73 0.5 1.188s-0.16 0.853-0.5 1.188c-0.33 0.334-0.73 0.501-1.19 0.501-0.45 0-0.85-0.167-1.18-0.501-0.34-0.334-0.5-0.73-0.5-1.188s0.16-0.854 0.5-1.188z"></path>
 </g>
</svg>