<svg version="1.1" viewBox="0 0 24 24" xmlns="http://www.w3.org/2000/svg">
<g transform="translate(-1102.5 -329)">
  <g id="Icon_67" clip-rule="evenodd" fill-rule="evenodd">
   <path id="path35" d="m1117.5 332c0.66 0 1.22 0.42 1.42 1.01l0.72 2.076c-0.37-0.057-0.75-0.086-1.14-0.086-0.34 0-0.67 0.022-0.99 0.065l-0.37-1.065h-10.29l-1.04 3h7.59c-1.48 1.37-2.4 3.327-2.4 5.5 0 1.264 0.31 2.455 0.87 3.5h-5.87v1c0 0.55-0.45 1-1 1h-1c-0.55 0-1-0.45-1-1v-8l2.08-5.99c0.21-0.59 0.76-1.01 1.42-1.01zm-10 11c0.83 0 1.5-0.672 1.5-1.5s-0.67-1.5-1.5-1.5-1.5 0.672-1.5 1.5 0.67 1.5 1.5 1.5z"></path>
   <path id="path36" d="m1118.5 348c1.16 0 2.23-0.358 3.12-0.968l2.97 2.972 1.41-1.415-2.97-2.971c0.61-0.887 0.97-1.961 0.97-3.118 0-3.038-2.46-5.5-5.5-5.5s-5.5 2.462-5.5 5.5 2.46 5.5 5.5 5.5zm0-2c1.93 0 3.5-1.567 3.5-3.5s-1.57-3.5-3.5-3.5-3.5 1.567-3.5 3.5 1.57 3.5 3.5 3.5z"></path>
  </g>
 </g>
</svg>