<svg version="1.1" viewBox="0 0 24 24" xmlns="http://www.w3.org/2000/svg">
<g transform="translate(-847,-327)">
  <g id="Icon_59">
   <path id="path29" d="m859 334h2v2h-2c-2.21 0-4-1.79-4-4s1.79-4 4-4h2v2h-2c-1.1 0-2 0.9-2 2s0.9 2 2 2z"></path>
   <path id="path30" d="m863 328h2c2.21 0 4 1.79 4 4s-1.79 4-4 4h-2v-2h2c1.1 0 2-0.9 2-2s-0.9-2-2-2h-2z"></path>
   <path id="path31" d="m865 333v-2h-6v2z"></path>
   <path id="path32" d="m853.34 334h-0.841c-0.66 0-1.21 0.42-1.42 1.01l-2.08 5.99v8c0 0.55 0.45 1 1 1h1c0.55 0 1-0.45 1-1v-1h12v1c0 0.55 0.45 1 1 1h1c0.55 0 1-0.45 1-1v-8l-1.067-3.072c-0.304 0.047-0.616 0.072-0.933 0.072h-1.165l0.385 1.11h-12.45l1.08-3.11h1.678c-0.517-0.577-0.923-1.255-1.187-2zm1.659 9.5c0 0.828-0.672 1.5-1.5 1.5s-1.5-0.672-1.5-1.5 0.672-1.5 1.5-1.5 1.5 0.672 1.5 1.5zm7.5 1.5c0.828 0 1.5-0.672 1.5-1.5s-0.672-1.5-1.5-1.5-1.5 0.672-1.5 1.5 0.672 1.5 1.5 1.5z" clip-rule="evenodd" fill-rule="evenodd"></path>
  </g>
 </g>
</svg>