<svg version="1.1" viewBox="0 0 24 24" xmlns="http://www.w3.org/2000/svg">
<g transform="translate(-815,-327)">
  <g id="Icon_58">
   <path id="path23" d="m829 334h-2c-1.1 0-2-0.9-2-2s0.9-2 2-2h2v-2h-2c-2.21 0-4 1.79-4 4s1.79 4 4 4h2z"></path>
   <path id="path24" d="m833 328h-2v2h2c1.1 0 2 0.9 2 2s-0.9 2-2 2h-2v2h2c2.21 0 4-1.79 4-4s-1.79-4-4-4z"></path>
   <path id="path25" d="m833 333v-2h-6v2z"></path>
   <path id="path26" d="m821.5 345c0.828 0 1.5-0.672 1.5-1.5s-0.672-1.5-1.5-1.5-1.5 0.672-1.5 1.5 0.672 1.5 1.5 1.5z"></path>
   <path id="path27" d="m832 343.5c0 0.828-0.672 1.5-1.5 1.5s-1.5-0.672-1.5-1.5 0.672-1.5 1.5-1.5 1.5 0.672 1.5 1.5z"></path>
   <path id="path28" d="m820.5 334h0.841c0.264 0.745 0.67 1.423 1.187 2h-1.678l-1.08 3.11h12.45l-0.385-1.11h1.165c0.317 0 0.629-0.025 0.933-0.072l1.067 3.072v8c0 0.55-0.45 1-1 1h-1c-0.55 0-1-0.45-1-1v-1h-12v1c0 0.55-0.45 1-1 1h-1c-0.55 0-1-0.45-1-1v-8l2.08-5.99c0.21-0.59 0.76-1.01 1.42-1.01zm12.5 12h-14v-5h14z" clip-rule="evenodd" fill-rule="evenodd"></path>
  </g>
 </g>
</svg>