<svg version="1.1" viewBox="0 0 24 24" xmlns="http://www.w3.org/2000/svg">
<g transform="translate(-718,-329)">
  <g id="Icon_55">
   <path id="path20" d="m725.5 344c0.828 0 1.5-0.672 1.5-1.5s-0.672-1.5-1.5-1.5-1.5 0.672-1.5 1.5 0.672 1.5 1.5 1.5z"></path>
   <path id="path21" d="m736 342.5c0 0.828-0.672 1.5-1.5 1.5s-1.5-0.672-1.5-1.5 0.672-1.5 1.5-1.5 1.5 0.672 1.5 1.5z"></path>
   <path id="path22" d="m736.92 334.01c-0.2-0.59-0.76-1.01-1.42-1.01h-11c-0.66 0-1.21 0.42-1.42 1.01l-2.08 5.99v8c0 0.55 0.45 1 1 1h1c0.55 0 1-0.45 1-1v-1h12v1c0 0.55 0.45 1 1 1h1c0.55 0 1-0.45 1-1v-8zm-12.07 0.99h10.29l1.04 3h-12.37zm12.15 10h-14v-5h14z" clip-rule="evenodd" fill-rule="evenodd"></path>
  </g>
 </g>
</svg>