<svg version="1.1" viewBox="0 0 24 24" xmlns="http://www.w3.org/2000/svg">
<g transform="translate(-558,-328)">
  <path id="Icon_50" d="m574.18 342.75c0.283-0.417 0.492-0.858 0.625-1.325s0.2-0.942 0.2-1.425c0-0.633-0.121-1.263-0.362-1.888-0.242-0.625-0.605-1.179-1.088-1.662s-1.029-0.842-1.637-1.075c-0.609-0.233-1.23-0.35-1.863-0.35l0.95-0.975-1.05-1.05-2.85 2.825 2.85 2.825 1.05-1.05-1.1-1.1c0.45 0 0.908 0.087 1.375 0.262s0.867 0.43 1.2 0.763 0.588 0.717 0.763 1.15 0.262 0.867 0.262 1.3c0 0.283-0.038 0.567-0.113 0.85s-0.179 0.558-0.312 0.825zm-4.125 4.25 2.85-2.825-2.85-2.825-1.05 1.05 1.075 1.075c-0.467 0.017-0.921-0.058-1.362-0.225-0.442-0.167-0.838-0.425-1.188-0.775-0.333-0.333-0.588-0.717-0.763-1.15s-0.262-0.867-0.262-1.3c0-0.283 0.038-0.567 0.113-0.85s0.179-0.558 0.312-0.825l-1.1-1.1c-0.283 0.417-0.492 0.858-0.625 1.325s-0.2 0.942-0.2 1.425c0 0.633 0.125 1.258 0.375 1.875s0.617 1.167 1.1 1.65 1.025 0.846 1.625 1.088c0.6 0.241 1.217 0.37 1.85 0.387l-0.95 0.95zm-0.05 3c-1.383 0-2.683-0.263-3.9-0.788s-2.275-1.237-3.175-2.137-1.612-1.958-2.137-3.175-0.788-2.517-0.788-3.9 0.263-2.683 0.788-3.9 1.237-2.275 2.137-3.175 1.958-1.613 3.175-2.138 2.517-0.787 3.9-0.787 2.683 0.262 3.9 0.787 2.275 1.238 3.175 2.138 1.612 1.958 2.137 3.175 0.788 2.517 0.788 3.9-0.263 2.683-0.788 3.9-1.237 2.275-2.137 3.175-1.958 1.612-3.175 2.137-2.517 0.788-3.9 0.788zm0-2c2.217 0 4.104-0.779 5.663-2.337 1.558-1.559 2.337-3.446 2.337-5.663s-0.779-4.104-2.337-5.663c-1.559-1.558-3.446-2.337-5.663-2.337s-4.104 0.779-5.662 2.337c-1.559 1.559-2.338 3.446-2.338 5.663s0.779 4.104 2.338 5.663c1.558 1.558 3.445 2.337 5.662 2.337z"></path>
 </g>
</svg>