<svg version="1.1" viewBox="0 0 24 24" xmlns="http://www.w3.org/2000/svg">
<g transform="translate(-142,-328)">
  <path id="Icon_37" d="m147 349c-0.55 0-1.021-0.196-1.413-0.587-0.391-0.392-0.587-0.863-0.587-1.413v-14c0-0.55 0.196-1.021 0.587-1.413 0.392-0.391 0.863-0.587 1.413-0.587h14c0.55 0 1.021 0.196 1.413 0.587 0.391 0.392 0.587 0.863 0.587 1.413v14c0 0.55-0.196 1.021-0.587 1.413-0.392 0.391-0.863 0.587-1.413 0.587zm5.6-4.8 7.05-7.05-1.4-1.4-5.65 5.65-2.85-2.85-1.4 1.4z"></path>
 </g>
</svg>