<svg version="1.1" viewBox="0 0 24 24" xmlns="http://www.w3.org/2000/svg">
<g transform="translate(-590,-328)">
  <path id="Icon_51" d="m596.5 348c-1.517 0-2.812-0.525-3.887-1.575s-1.613-2.333-1.613-3.85c0-1.3 0.392-2.458 1.175-3.475s1.808-1.667 3.075-1.95c0.417-1.533 1.25-2.775 2.5-3.725s2.667-1.425 4.25-1.425c1.95 0 3.604 0.679 4.962 2.037 1.359 1.359 2.038 3.013 2.038 4.963 1.15 0.133 2.104 0.629 2.863 1.487 0.758 0.859 1.137 1.863 1.137 3.013 0 1.25-0.437 2.313-1.312 3.188s-1.938 1.312-3.188 1.312zm0-2h12c0.7 0 1.292-0.242 1.775-0.725s0.725-1.075 0.725-1.775-0.242-1.292-0.725-1.775-1.075-0.725-1.775-0.725h-1.5v-2c0-1.383-0.487-2.563-1.462-3.538s-2.155-1.462-3.538-1.462-2.562 0.487-3.537 1.462-1.463 2.155-1.463 3.538h-0.5c-0.967 0-1.792 0.342-2.475 1.025s-1.025 1.508-1.025 2.475 0.342 1.792 1.025 2.475 1.508 1.025 2.475 1.025z"></path>
 </g>
</svg>