<svg version="1.1" viewBox="0 0 24 24" xmlns="http://www.w3.org/2000/svg">
<g transform="translate(-1134,-328)">
  <path id="Icon_68" d="m1154 330h-16c-1.1 0-2 0.9-2 2v16c0 1.1 0.9 2 2 2h16c1.1 0 2-0.9 2-2v-16c0-1.1-0.9-2-2-2zm0 18h-16v-16h16zm-3.1-8.9c1.1 0 1.9-1.1 1.9-2.5s-0.8-2.5-1.9-2.5-1.9 1.1-1.9 2.5 0.9 2.5 1.9 2.5zm0-4c0.5 0 0.9 0.7 0.9 1.5s-0.4 1.5-0.9 1.5-0.9-0.7-0.9-1.5 0.4-1.5 0.9-1.5zm-9.8 10.8c1.1 0 1.9-1.1 1.9-2.5s-0.8-2.5-1.9-2.5-1.9 1.1-1.9 2.5 0.8 2.5 1.9 2.5zm0-4c0.5 0 0.9 0.7 0.9 1.5s-0.4 1.5-0.9 1.5-0.9-0.7-0.9-1.5 0.4-1.5 0.9-1.5zm3-2.8c1.1 0 1.9-1.1 1.9-2.5s-0.8-2.5-1.9-2.5-1.9 1.1-1.9 2.5 0.8 2.5 1.9 2.5zm0-4c0.5 0 0.9 0.7 0.9 1.5s-0.4 1.5-0.9 1.5-0.9-0.7-0.9-1.5 0.4-1.5 0.9-1.5zm0.6 5.9-1 0.3c-0.3 0.1-0.4 0.4-0.3 0.6 0.1 0.3 0.4 0.4 0.6 0.3l0.3-0.1v3.2c0 0.3 0.2 0.5 0.5 0.5s0.5-0.2 0.5-0.5v-3.9c0-0.2-0.1-0.3-0.2-0.4s-0.3-0.1-0.4 0zm3 0-1 0.3c-0.3 0.1-0.4 0.4-0.3 0.6 0.1 0.3 0.4 0.4 0.6 0.3l0.3-0.1v3.2c0 0.3 0.2 0.5 0.5 0.5s0.5-0.2 0.5-0.5v-3.9c0-0.2-0.1-0.3-0.2-0.4 0-0.1-0.2-0.1-0.4 0zm-7.9-5.6 0.3-0.1v3.2c0 0.3 0.2 0.5 0.5 0.5s0.5-0.2 0.5-0.5v-3.9c0-0.2-0.1-0.3-0.2-0.4s-0.3-0.1-0.4 0l-1 0.3c-0.3 0.1-0.4 0.4-0.3 0.6 0.1 0.3 0.4 0.4 0.6 0.3zm7.3 0 0.3-0.1v3.2c0 0.3 0.2 0.5 0.5 0.5s0.5-0.2 0.5-0.5v-3.9c0-0.2-0.1-0.3-0.2-0.4s-0.3-0.1-0.5-0.1l-1 0.3c-0.3 0.1-0.4 0.4-0.3 0.6 0.1 0.4 0.4 0.5 0.7 0.4zm3.8 10.5c1.1 0 1.9-1.1 1.9-2.5s-0.8-2.5-1.9-2.5-1.9 1.1-1.9 2.5 0.9 2.5 1.9 2.5zm0-4c0.5 0 0.9 0.7 0.9 1.5s-0.4 1.5-0.9 1.5-0.9-0.7-0.9-1.5 0.4-1.5 0.9-1.5z"></path>
 </g>
</svg>