<svg version="1.1" viewBox="0 0 24 24" xmlns="http://www.w3.org/2000/svg">
<g transform="translate(-431.5,-444.5)">
  <path id="Icon_81" d="m453 450.5c0 3.038-2.462 5.5-5.5 5.5s-5.5-2.462-5.5-5.5 2.462-5.5 5.5-5.5 5.5 2.462 5.5 5.5zm-6-3.5v5h1v-5zm0.5 6c-0.276 0-0.5 0.224-0.5 0.5s0.224 0.5 0.5 0.5 0.5-0.224 0.5-0.5-0.224-0.5-0.5-0.5zm-11.5-4h4.15c-0.098 0.485-0.15 0.986-0.15 1.5 0 0.168 6e-3 0.335 0.016 0.5h-4.016v13h12v-6.016c0.697-0.046 1.368-0.187 2-0.411v8.427c0 1.105-0.895 2-2 2h-12c-1.105 0-2-0.895-2-2v-15c0-1.105 0.895-2 2-2zm6 18c0.552 0 1-0.448 1-1s-0.448-1-1-1-1 0.448-1 1 0.448 1 1 1z" clip-rule="evenodd" fill-rule="evenodd"></path>
 </g>
</svg>