<svg version="1.1" viewBox="0 0 24 24" xmlns="http://www.w3.org/2000/svg">
<g transform="translate(-462 -445)">
  <g id="Icon_82">
   <path id="path50" d="m465.32 446.91 0.012-0.018 1.665 1.665v0.03l3.036 3.036 5e-3 -0.026 1.959 1.96v0.03l9.414 9.414h0.03l2.495 2.494-7e-3 0.024 1.066 1.065-1.415 1.415-1.065-1.066c-0.165 0.044-0.339 0.068-0.518 0.068h-10c-1.105 0-2-0.895-2-2v-10.586l-3-3v7.586h1v4h-1c-1.105 0-2-0.895-2-2v-11.586l-2-2 1.414-1.414zm6.677 9.505v6.586h6.586zm5 9.586c0.552 0 1-0.448 1-1s-0.448-1-1-1-1 0.448-1 1 0.448 1 1 1z" clip-rule="evenodd" fill-rule="evenodd"></path>
   <path id="path51" d="m473.26 452-1.897-1.898c0.199-0.066 0.412-0.102 0.633-0.102h10c1.105 0 2 0.895 2 2v10.736l-2-2v-8.736z"></path>
   <path id="path52" d="m467.26 446 2 2h8.736c0-1.105-0.895-2-2-2z"></path>
  </g>
 </g>
</svg>