<svg version="1.1" viewBox="0 0 24 24" xmlns="http://www.w3.org/2000/svg">
<g transform="translate(-398.5,-444.5)">
  <g id="Icon_80">
   <path id="path48" d="m403 448h11c0-1.105-0.895-2-2-2h-9c-1.105 0-2 0.895-2 2v13c0 1.105 0.895 2 2 2h1v-4h-1z"></path>
   <path id="path49" d="m408 450c-1.105 0-2 0.895-2 2v13c0 1.105 0.895 2 2 2h10c1.105 0 2-0.895 2-2v-13c0-1.105-0.895-2-2-2zm10 2h-10v11h10zm-5 14c0.552 0 1-0.448 1-1s-0.448-1-1-1-1 0.448-1 1 0.448 1 1 1z" clip-rule="evenodd" fill-rule="evenodd"></path>
  </g>
 </g>
</svg>