<svg version="1.1" viewBox="0 0 24 24" xmlns="http://www.w3.org/2000/svg">
<g transform="translate(-366,-444)">
  <path id="Icon_79" d="m373 446h-3c-1.105 0-2 0.895-2 2v5c0 3.526 2.608 6.444 6 6.929v0.071c0 3.314 2.686 6 6 6 2.642 0 4.885-1.707 5.686-4.079 1.326-0.31 2.314-1.5 2.314-2.921 0-1.657-1.343-3-3-3s-3 1.343-3 3c0 1.165 0.664 2.175 1.635 2.672-0.633 1.374-2.023 2.328-3.635 2.328-2.209 0-4-1.791-4-4v-0.071c3.392-0.485 6-3.403 6-6.929v-5c0-1.105-0.895-2-2-2h-3v2h3v5c0 2.761-2.239 5-5 5s-5-2.239-5-5v-5h3zm12 14c0.552 0 1-0.448 1-1s-0.448-1-1-1-1 0.448-1 1 0.448 1 1 1z" clip-rule="evenodd" fill-rule="evenodd"></path>
 </g>
</svg>