<svg version="1.1" viewBox="0 0 24 24" xmlns="http://www.w3.org/2000/svg">
<g transform="translate(-78,-443)">
  <g id="Icon_70">
   <path id="path39" d="m85.5 458c0.8284 0 1.5-0.672 1.5-1.5s-0.6716-1.5-1.5-1.5-1.5 0.672-1.5 1.5 0.6716 1.5 1.5 1.5z"></path>
   <path id="path40" d="m96 456.5c0 0.828-0.6716 1.5-1.5 1.5s-1.5-0.672-1.5-1.5 0.6716-1.5 1.5-1.5 1.5 0.672 1.5 1.5z"></path>
   <path id="path41" d="m96.92 448.01c-0.2-0.59-0.76-1.01-1.42-1.01h-11c-0.66 0-1.21 0.42-1.42 1.01l-2.08 5.99v8c0 0.55 0.45 1 1 1h1c0.55 0 1-0.45 1-1v-1h12v1c0 0.55 0.45 1 1 1h1c0.55 0 1-0.45 1-1v-8zm-12.07 0.99h10.29l1.08 3.11h-12.45zm12.15 10h-14v-5h14z" clip-rule="evenodd" fill-rule="evenodd"></path>
  </g>
 </g>
</svg>