<svg version="1.1" viewBox="0 0 24 24" xmlns="http://www.w3.org/2000/svg">
<g transform="translate(-239,-447)">
  <g id="Icon_75">
   <path id="path42" d="m258 453h-16v2h16z"></path>
   <path id="path43" d="m242 459h11.207c0.21-0.742 0.572-1.421 1.05-2h-12.257z"></path>
   <path id="path44" d="m259 459v1c0.55 0 1 0.45 1 1v3c0 0.55-0.45 1-1 1h-4c-0.55 0-1-0.45-1-1v-3c0-0.55 0.45-1 1-1v-1c0-1.1 0.9-2 2-2s2 0.9 2 2zm-3 1h2v-1c0-0.55-0.45-1-1-1s-1 0.45-1 1z" clip-rule="evenodd" fill-rule="evenodd"></path>
  </g>
 </g>
</svg>