<svg version="1.1" viewBox="0 0 24 24" xmlns="http://www.w3.org/2000/svg">
<g transform="translate(-206,-560)">
  <path id="Icon_88" d="m212 575v1c0 0.283-0.096 0.521-0.287 0.713-0.192 0.191-0.43 0.287-0.713 0.287h-1c-0.283 0-0.521-0.096-0.713-0.287-0.191-0.192-0.287-0.43-0.287-0.713v-8l2.1-6c0.1-0.3 0.279-0.542 0.538-0.725 0.258-0.183 0.545-0.275 0.862-0.275h11c0.317 0 0.604 0.092 0.863 0.275 0.258 0.183 0.437 0.425 0.537 0.725l2.1 6v8c0 0.283-0.096 0.521-0.288 0.713-0.191 0.191-0.429 0.287-0.712 0.287h-1c-0.283 0-0.521-0.096-0.712-0.287-0.192-0.192-0.288-0.43-0.288-0.713v-1zm-0.2-9h12.4l-1.05-3h-10.3zm1.7 6c0.417 0 0.771-0.146 1.062-0.438 0.292-0.291 0.438-0.645 0.438-1.062s-0.146-0.771-0.438-1.062c-0.291-0.292-0.645-0.438-1.062-0.438s-0.771 0.146-1.062 0.438c-0.292 0.291-0.438 0.645-0.438 1.062s0.146 0.771 0.438 1.062c0.291 0.292 0.645 0.438 1.062 0.438zm9 0c0.417 0 0.771-0.146 1.062-0.438 0.292-0.291 0.438-0.645 0.438-1.062s-0.146-0.771-0.438-1.062c-0.291-0.292-0.645-0.438-1.062-0.438s-0.771 0.146-1.062 0.438c-0.292 0.291-0.438 0.645-0.438 1.062s0.146 0.771 0.438 1.062c0.291 0.292 0.645 0.438 1.062 0.438zm-3.5 11-6-3h4v-2l6 3h-4zm-8-10h14v-5h-14z"></path>
 </g>
</svg>