<svg version="1.1" viewBox="0 0 24 24" xmlns="http://www.w3.org/2000/svg">
<g transform="translate(-334,-560)">
  <path id="Icon_92" d="m351.2 568.1h-5.2v1.9h5.2zm-5.2 8.5h5.2v-1.9h-5.2zm8.3-13.7h-3.6v2h2.6v15.1h-14.6v-15.1h2.5v-2h-3.5c-0.6 0-1 0.4-1 1v17.1c0 0.6 0.4 1 1 1h16.6c0.6 0 1-0.4 1-1v-17.1c0-0.6-0.5-1-1-1zm-14.6 6.4 2.5 2.2 3.2-4-1.7-1.2-1.8 2.3-0.9-0.8zm4-4.1h4.6c0.4 0 0.8-0.3 0.8-0.8v-1.6c0-0.4-0.3-0.8-0.8-0.8h-4.6c-0.4 0-0.8 0.3-0.8 0.8v1.7c0 0.4 0.4 0.7 0.8 0.7zm0.3 7.4-1.3 1.3-1.3-1.3-1.5 1.4 1.3 1.3-1.3 1.3 1.4 1.4 1.3-1.3 1.4 1.3 1.4-1.4-1.3-1.3 1.3-1.3z"></path>
 </g>
</svg>