<svg version="1.1" viewBox="0 0 24 24" xmlns="http://www.w3.org/2000/svg">
<g transform="translate(-142,-560)">
  <path id="Icon_86" d="m154 577c0.283 0 0.521-0.096 0.713-0.288 0.191-0.191 0.287-0.429 0.287-0.712s-0.096-0.521-0.287-0.713c-0.192-0.191-0.43-0.287-0.713-0.287s-0.521 0.096-0.712 0.287c-0.192 0.192-0.288 0.43-0.288 0.713s0.096 0.521 0.288 0.712c0.191 0.192 0.429 0.288 0.712 0.288zm-1-4h2v-6h-2zm1 9c-1.383 0-2.683-0.263-3.9-0.788s-2.275-1.237-3.175-2.137-1.612-1.958-2.137-3.175-0.788-2.517-0.788-3.9 0.263-2.683 0.788-3.9 1.237-2.275 2.137-3.175 1.958-1.613 3.175-2.138 2.517-0.787 3.9-0.787 2.683 0.262 3.9 0.787 2.275 1.238 3.175 2.138 1.612 1.958 2.137 3.175 0.788 2.517 0.788 3.9-0.263 2.683-0.788 3.9-1.237 2.275-2.137 3.175-1.958 1.612-3.175 2.137-2.517 0.788-3.9 0.788z"></path>
 </g>
</svg>