<svg version="1.1" viewBox="0 0 24 24" xmlns="http://www.w3.org/2000/svg">
<g transform="translate(-399,-561)">
  <mask id="mask1_27_68" x="398" y="560" width="24" height="24" maskUnits="userSpaceOnUse">
   <rect id="Bounding box_2" x="398" y="560" width="24" height="24"></rect>
  </mask>
  <g id="g55" mask="url(#mask1_27_68)">
   <path id="export_notes" d="m414.2 580.5 2.8-2.8v2.3h1v-4h-4v1h2.3l-2.8 2.8zm-11.2 0.5c-0.55 0-1.021-0.196-1.412-0.587-0.392-0.392-0.588-0.863-0.588-1.413v-14c0-0.55 0.196-1.021 0.588-1.412 0.391-0.392 0.862-0.588 1.412-0.588h14c0.55 0 1.021 0.196 1.413 0.588 0.391 0.391 0.587 0.862 0.587 1.412v6.7c-0.317-0.15-0.642-0.279-0.975-0.388-0.333-0.108-0.675-0.187-1.025-0.237v-6.075h-14v14h6.05c0.05 0.367 0.129 0.717 0.238 1.05 0.108 0.333 0.237 0.65 0.387 0.95zm0-2v-14 6.075-0.075zm2-2h4.075c0.05-0.35 0.129-0.692 0.237-1.025 0.109-0.333 0.23-0.658 0.363-0.975h-4.675zm0-4h6.1c0.533-0.5 1.129-0.917 1.787-1.25 0.659-0.333 1.363-0.558 2.113-0.675v-0.075h-10zm0-4h10v-2h-10zm11 14c-1.383 0-2.562-0.487-3.537-1.462-0.975-0.976-1.463-2.155-1.463-3.538s0.488-2.562 1.463-3.537 2.154-1.463 3.537-1.463 2.562 0.488 3.538 1.463c0.975 0.975 1.462 2.154 1.462 3.537s-0.487 2.562-1.462 3.538c-0.976 0.975-2.155 1.462-3.538 1.462z"></path>
  </g>
 </g>
</svg>