<svg version="1.1" viewBox="0 0 24 24" xmlns="http://www.w3.org/2000/svg">
<g transform="translate(-78,-908)">
  <path id="Icon_106" d="m90 929c-2.3 0-4.3042-0.762-6.0125-2.287s-2.6875-3.43-2.9375-5.713h2.05c0.2333 1.733 1.0042 3.167 2.3125 4.3s2.8375 1.7 4.5875 1.7c1.95 0 3.6042-0.679 4.9625-2.037 1.3583-1.359 2.0375-3.013 2.0375-4.963s-0.6792-3.604-2.0375-4.963c-1.3583-1.358-3.0125-2.037-4.9625-2.037-1.15 0-2.225 0.267-3.225 0.8s-1.8417 1.267-2.525 2.2h2.75v2h-6v-6h2v2.35c0.85-1.067 1.8875-1.892 3.1125-2.475s2.5208-0.875 3.8875-0.875c1.25 0 2.4208 0.237 3.5125 0.713 1.0917 0.475 2.0417 1.116 2.85 1.925 0.8083 0.808 1.45 1.758 1.925 2.85 0.475 1.091 0.7125 2.262 0.7125 3.512s-0.2375 2.421-0.7125 3.512c-0.475 1.092-1.1167 2.042-1.925 2.851-0.8083 0.808-1.7583 1.449-2.85 1.925-1.0917 0.475-2.2625 0.712-3.5125 0.712zm2.8-4.8-3.8-3.8v-5.4h2v4.6l3.2 3.2z"></path>
 </g>
</svg>