<svg version="1.1" viewBox="0 0 24 24" xmlns="http://www.w3.org/2000/svg">
<g transform="translate(-78,-1024)">
  <path id="Icon_110" d="m89 1041h2v-6h-2zm1-8c0.2833 0 0.521-0.1 0.713-0.29 0.1913-0.19 0.287-0.43 0.287-0.71s-0.0957-0.52-0.287-0.71c-0.192-0.19-0.4297-0.29-0.713-0.29s-0.5207 0.1-0.712 0.29c-0.192 0.19-0.288 0.43-0.288 0.71s0.096 0.52 0.288 0.71c0.1913 0.19 0.4287 0.29 0.712 0.29zm0 13c-1.3833 0-2.6833-0.26-3.9-0.79-1.2167-0.52-2.275-1.23-3.175-2.13s-1.6123-1.96-2.137-3.18c-0.5253-1.22-0.788-2.52-0.788-3.9s0.2627-2.68 0.788-3.9c0.5247-1.22 1.237-2.27 2.137-3.17s1.9583-1.62 3.175-2.14c1.2167-0.53 2.5167-0.79 3.9-0.79s2.6833 0.26 3.9 0.79c1.2167 0.52 2.275 1.24 3.175 2.14s1.6123 1.95 2.137 3.17c0.5253 1.22 0.788 2.52 0.788 3.9s-0.2627 2.68-0.788 3.9c-0.5247 1.22-1.237 2.28-2.137 3.18s-1.9583 1.61-3.175 2.13c-1.2167 0.53-2.5167 0.79-3.9 0.79z"></path>
 </g>
</svg>