<svg version="1.1" viewBox="0 0 24 24" xmlns="http://www.w3.org/2000/svg">
<g transform="translate(-109.75,-1024)">
  <g id="Icon_111">
   <path id="path63" d="m116 1030h-2v14h6v2h-6c-1.1 0-2-0.9-2-2v-14c0-1.1 0.9-2 2-2h4.18c0.42-1.16 1.52-2 2.82-2s2.4 0.84 2.82 2h4.18c1.1 0 2 0.9 2 2v5h-2v-5h-2v3h-10zm6-1c0-0.55-0.45-1-1-1s-1 0.45-1 1 0.45 1 1 1 1-0.45 1-1z" clip-rule="evenodd" fill-rule="evenodd"></path>
   <path id="path64" d="m124.51 1042 5.49-5.5 1.5 1.5-6.99 7-4.51-4.5 1.5-1.5z"></path>
  </g>
 </g>
</svg>