<svg version="1.1" viewBox="0 0 24 24" xmlns="http://www.w3.org/2000/svg">
<g transform="translate(-174,-1140)">
  <path id="Icon_118" d="m186 1149c1.65 0 3 1.35 3 3s-1.35 3-3 3-3-1.35-3-3 1.35-3 3-3zm0-2c-2.76 0-5 2.24-5 5s2.24 5 5 5 5-2.24 5-5-2.24-5-5-5zm-10 6h2c0.55 0 1-0.45 1-1s-0.45-1-1-1h-2c-0.55 0-1 0.45-1 1s0.45 1 1 1zm18 0h2c0.55 0 1-0.45 1-1s-0.45-1-1-1h-2c-0.55 0-1 0.45-1 1s0.45 1 1 1zm-9-11v2c0 0.55 0.45 1 1 1s1-0.45 1-1v-2c0-0.55-0.45-1-1-1s-1 0.45-1 1zm0 18v2c0 0.55 0.45 1 1 1s1-0.45 1-1v-2c0-0.55-0.45-1-1-1s-1 0.45-1 1zm-5.01-15.42c-0.39-0.39-1.03-0.39-1.41 0-0.39 0.39-0.39 1.03 0 1.41l1.06 1.06c0.39 0.39 1.03 0.39 1.41 0s0.39-1.03 0-1.41zm12.37 12.37c-0.39-0.39-1.03-0.39-1.41 0-0.39 0.39-0.39 1.03 0 1.41l1.06 1.06c0.39 0.39 1.03 0.39 1.41 0 0.39-0.39 0.39-1.03 0-1.41zm1.06-10.96c0.39-0.39 0.39-1.03 0-1.41-0.39-0.39-1.03-0.39-1.41 0l-1.06 1.06c-0.39 0.39-0.39 1.03 0 1.41s1.03 0.39 1.41 0zm-12.37 12.37c0.39-0.39 0.39-1.03 0-1.41-0.39-0.39-1.03-0.39-1.41 0l-1.06 1.06c-0.39 0.39-0.39 1.03 0 1.41s1.03 0.39 1.41 0z"></path>
 </g>
</svg>