<svg version="1.1" viewBox="0 0 24 24" xmlns="http://www.w3.org/2000/svg">
<g transform="translate(-109.7,-1140.7)">
  <path id="Icon_116" d="m129.25 1156.4-1.5-1.55c0.65-0.18 1.188-0.54 1.613-1.06 0.425-0.53 0.637-1.14 0.637-1.84 0-0.83-0.292-1.54-0.875-2.13-0.583-0.58-1.292-0.87-2.125-0.87h-4v-2h4c1.383 0 2.563 0.48 3.538 1.44s1.462 2.14 1.462 3.56c0 0.95-0.25 1.83-0.75 2.64s-1.167 1.41-2 1.81zm-3.4-3.45-2-2h2.15v2zm3.95 9.6-18.4-18.4 1.4-1.4 18.4 18.4zm-8.8-5.6h-4c-1.383 0-2.562-0.49-3.537-1.46-0.975-0.98-1.463-2.16-1.463-3.54 0-1.17 0.354-2.2 1.062-3.09 0.709-0.89 1.605-1.48 2.688-1.76l1.85 1.85h-0.6c-0.833 0-1.542 0.29-2.125 0.87-0.583 0.59-0.875 1.3-0.875 2.13s0.292 1.54 0.875 2.12c0.583 0.59 1.292 0.88 2.125 0.88h4zm-3-4v-2h1.625l1.975 2z"></path>
 </g>
</svg>