<svg version="1.1" viewBox="0 0 24 24" xmlns="http://www.w3.org/2000/svg">
<g transform="translate(-78,-1141.5)">
  <path id="Icon_115" d="m89 1157h-4c-1.3833 0-2.5623-0.49-3.537-1.46-0.9753-0.98-1.463-2.16-1.463-3.54s0.4877-2.56 1.463-3.54c0.9747-0.97 2.1537-1.46 3.537-1.46h4v2h-4c-0.8333 0-1.5417 0.29-2.125 0.88-0.5833 0.58-0.875 1.29-0.875 2.12s0.2917 1.54 0.875 2.12c0.5833 0.59 1.2917 0.88 2.125 0.88h4zm-3-4v-2h8v2zm14-1h-2c0-0.83-0.2917-1.54-0.875-2.12-0.5833-0.59-1.2917-0.88-2.125-0.88h-4v-2h4c1.3833 0 2.5627 0.49 3.538 1.46 0.9747 0.98 1.462 2.16 1.462 3.54zm-5 8v-3h-3v-2h3v-3h2v3h3v2h-3v3z"></path>
 </g>
</svg>