<svg version="1.1" viewBox="0 0 24 24" xmlns="http://www.w3.org/2000/svg">
<g transform="translate(-142,-1140)">
  <path id="Icon_117" d="m153 1157h-4c-1.383 0-2.562-0.49-3.537-1.46-0.975-0.98-1.463-2.16-1.463-3.54s0.488-2.56 1.463-3.54c0.975-0.97 2.154-1.46 3.537-1.46h4v2h-4c-0.833 0-1.542 0.29-2.125 0.88-0.583 0.58-0.875 1.29-0.875 2.12s0.292 1.54 0.875 2.12c0.583 0.59 1.292 0.88 2.125 0.88h4zm-3-4v-2h8v2zm5 4v-2h4c0.833 0 1.542-0.29 2.125-0.88 0.583-0.58 0.875-1.29 0.875-2.12s-0.292-1.54-0.875-2.12c-0.583-0.59-1.292-0.88-2.125-0.88h-4v-2h4c1.383 0 2.563 0.49 3.538 1.46 0.975 0.98 1.462 2.16 1.462 3.54s-0.487 2.56-1.462 3.54c-0.975 0.97-2.155 1.46-3.538 1.46z"></path>
 </g>
</svg>