<svg version="1.1" viewBox="0 0 24 24" xmlns="http://www.w3.org/2000/svg">
<g transform="translate(-238.5 -1256)">
  <path id="Icon_127" d="m241.94 1271c-0.335 0.1-0.639-0.1-0.67-0.14l0.266 3.58c0.226 1.09 0.999 1.89 1.585 2.2s1.923 0.36 1.923 0.36l11.437-0.52s0.894-0.15 1.558-0.49c0.664-0.33 1.275-1.39 1.275-1.39 0.69-1.92 0.668-7.86 0.668-7.86s0.049-2.22 0-4.07c-0.049-1.86-1.662-2.54-3.121-2.81-1.459-0.28-14.479-0.84-15.195-0.86-0.632-0.02-0.632 0.7-0.632 0.7v0.29h9e-3c0.051-0.02 0.309-0.1 0.667-0.09 0.647 0.02 13.238 1.32 14.362 1.5s2.25 0.82 2.3 1.8c9e-3 0.19 0.023 0.38 0.037 0.58 0.061 0.86 0.123 1.75-0.159 1.91-0.371 0.22-1.147 0.5-1.811 0.74-0.109 0.03-0.215 0.07-0.316 0.11-0.487 0.17-13.888 4.38-14.183 4.46zm9.591-4.76c-0.103 0.06-8.896 3.26-8.896 3.26-0.734 0.32-1.406 0.29-1.406-0.61l-0.225-6.55c-2e-3 -1.31 1.022-1.16 1.022-1.16s9.432 1.45 9.607 1.48c0.264 0.04 0.432 0.22 0.432 0.46 0 0.13-0.114 2.41-0.126 2.61-0.02 0.3-0.267 0.44-0.384 0.5-9e-3 0-0.017 0.01-0.024 0.01z" clip-rule="evenodd" fill-rule="evenodd"></path>
 </g>
</svg>