<svg version="1.1" viewBox="0 0 24 24" xmlns="http://www.w3.org/2000/svg">
<g transform="translate(-46 -1372)">
  <path id="Icon_128" d="m48.1 1383.1-2.1-2.1c1.5333-1.57 3.325-2.79 5.375-3.68 2.05-0.88 4.2583-1.32 6.625-1.32 0.4 0 0.8 0.01 1.2 0.04 0.4 0.02 0.8 0.06 1.2 0.11l-1.5 2.9c-0.2-0.03-0.3623-0.05-0.487-0.05h-0.413c-1.9333 0-3.746 0.36-5.438 1.09-1.6913 0.72-3.1787 1.73-4.462 3.01zm4.25 4.25-2.1-2.15c0.9333-0.93 2.0043-1.67 3.213-2.21 1.208-0.54 2.5203-0.86 3.937-0.94l-1.6 3.25c-0.65 0.2-1.2667 0.47-1.85 0.81s-1.1167 0.76-1.6 1.24zm4.95 4.5c-0.5-0.18-0.8873-0.53-1.162-1.04-0.2753-0.51-0.288-1.01-0.038-1.51l6-12.2c0.0667-0.13 0.1623-0.22 0.287-0.26 0.1253-0.04 0.263-0.04 0.413 0.01 0.1333 0.05 0.2333 0.13 0.3 0.25s0.0833 0.25 0.05 0.4l-3.25 13.15c-0.1333 0.55-0.4667 0.94-1 1.16-0.5333 0.23-1.0667 0.24-1.6 0.04zm6.35-4.5c-0.1-0.1-0.2083-0.2-0.325-0.3s-0.2417-0.2-0.375-0.3l0.8-3.15c0.35 0.25 0.696 0.5 1.038 0.76 0.3413 0.26 0.662 0.54 0.962 0.84zm4.25-4.25c-0.5-0.5-1.0373-0.96-1.612-1.37-0.5753-0.42-1.188-0.8-1.838-1.13l0.7-3c0.9 0.43 1.7583 0.93 2.575 1.5s1.575 1.2 2.275 1.9z"></path>
 </g>
</svg>