<svg version="1.1" viewBox="0 0 24 24" xmlns="http://www.w3.org/2000/svg">
<g transform="translate(-110,-1604)">
  <path id="Icon_133" d="m119 1617.8c-2.34 0-7 1.17-7 3.5v1.75h14v-1.75c0-2.33-4.66-3.5-7-3.5zm-4.66 3.25c0.84-0.58 2.87-1.25 4.66-1.25s3.82 0.67 4.66 1.25zm4.66-5c1.93 0 3.5-1.57 3.5-3.5s-1.57-3.5-3.5-3.5-3.5 1.57-3.5 3.5 1.57 3.5 3.5 3.5zm0-5c0.83 0 1.5 0.67 1.5 1.5s-0.67 1.5-1.5 1.5-1.5-0.67-1.5-1.5 0.67-1.5 1.5-1.5zm7.04 6.81c1.16 0.84 1.96 1.96 1.96 3.44v1.75h4v-1.75c0-2.02-3.5-3.17-5.96-3.44zm-1.04-1.81c1.93 0 3.5-1.57 3.5-3.5s-1.57-3.5-3.5-3.5c-0.54 0-1.04 0.13-1.5 0.35 0.63 0.89 1 1.98 1 3.15s-0.37 2.26-1 3.15c0.46 0.22 0.96 0.35 1.5 0.35z"></path>
 </g>
</svg>