<svg version="1.1" viewBox="0 0 24 24" xmlns="http://www.w3.org/2000/svg">
<g transform="translate(-270,-1604)">
  <g id="Icon_138">
   <path id="path79" d="m271 1608c0-1.1 0.895-2 2-2h5c1.105 0 2 0.9 2 2v5c0 1.1-0.895 2-2 2h-5c-1.105 0-2-0.9-2-2zm2 0h5v5h-5z" clip-rule="evenodd" fill-rule="evenodd"></path>
   <path id="path80" d="m271 1619c0-1.1 0.895-2 2-2h5c1.105 0 2 0.9 2 2v5c0 1.1-0.895 2-2 2h-5c-1.105 0-2-0.9-2-2zm2 0h5v5h-5z" clip-rule="evenodd" fill-rule="evenodd"></path>
   <path id="path81" d="m282 1607h11v2h-11z"></path>
   <path id="path82" d="m282 1611h8v2h-8z"></path>
   <path id="path83" d="m293 1618h-11v2h11z"></path>
   <path id="path84" d="m282 1622h8v2h-8z"></path>
  </g>
 </g>
</svg>