<svg version="1.1" viewBox="0 0 24 24" xmlns="http://www.w3.org/2000/svg">
<g transform="translate(-46,-1720.5)">
  <path id="Icon_142" d="m48.625 1738.2-1.625-1.17 5-8 3 3.5 4-6.5 2.725 4.07c-0.3833 0.02-0.746 0.07-1.088 0.14-0.3413 0.08-0.6787 0.18-1.012 0.31l-0.55-0.82-3.8 6.18-3.025-3.53zm18.95 4.83-3.125-3.12c-0.3333 0.23-0.7043 0.4-1.113 0.52-0.408 0.12-0.8287 0.18-1.262 0.18-1.25 0-2.3123-0.44-3.187-1.32-0.8753-0.87-1.313-1.93-1.313-3.18s0.4377-2.32 1.313-3.19c0.8747-0.88 1.937-1.32 3.187-1.32s2.3127 0.44 3.188 1.32c0.8747 0.87 1.312 1.94 1.312 3.19 0 0.43-0.0583 0.85-0.175 1.26s-0.2917 0.78-0.525 1.14l3.125 3.1zm-5.5-4.42c0.7 0 1.2917-0.25 1.775-0.73s0.725-1.07 0.725-1.77-0.2417-1.3-0.725-1.78-1.075-0.73-1.775-0.73-1.2917 0.25-1.775 0.73-0.725 1.08-0.725 1.78 0.2417 1.29 0.725 1.77 1.075 0.73 1.775 0.73zm2.225-8.01c-0.3167-0.13-0.646-0.24-0.988-0.32-0.3413-0.08-0.6953-0.13-1.062-0.15l5.125-8.1 1.625 1.17z"></path>
 </g>
</svg>