<svg version="1.1" viewBox="0 0 24 24" xmlns="http://www.w3.org/2000/svg">
<g transform="translate(-206,-1836)">
  <path id="Icon_149" d="m218 1858c-1.383 0-2.683-0.26-3.9-0.79-1.217-0.52-2.275-1.23-3.175-2.13s-1.613-1.96-2.137-3.18c-0.525-1.22-0.788-2.52-0.788-3.9s0.263-2.68 0.788-3.9c0.524-1.22 1.237-2.27 2.137-3.18 0.9-0.89 1.958-1.61 3.175-2.13 1.217-0.53 2.517-0.79 3.9-0.79s2.683 0.26 3.9 0.79c1.217 0.52 2.275 1.24 3.175 2.13 0.9 0.91 1.613 1.96 2.137 3.18 0.526 1.22 0.788 2.52 0.788 3.9s-0.262 2.68-0.788 3.9c-0.524 1.22-1.237 2.28-2.137 3.18s-1.958 1.61-3.175 2.13c-1.217 0.53-2.517 0.79-3.9 0.79zm0-2c0.933 0 1.812-0.15 2.637-0.44 0.826-0.29 1.58-0.7 2.263-1.23l-1.425-1.43c-0.483 0.35-1.021 0.62-1.612 0.81-0.592 0.19-1.213 0.29-1.863 0.29-1.667 0-3.083-0.58-4.25-1.75s-1.75-2.58-1.75-4.25 0.583-3.08 1.75-4.25 2.583-1.75 4.25-1.75 3.083 0.58 4.25 1.75 1.75 2.58 1.75 4.25c0 0.65-0.1 1.28-0.3 1.88s-0.475 1.14-0.825 1.62l1.425 1.43c0.533-0.69 0.95-1.45 1.25-2.28s0.45-1.72 0.45-2.65c0-2.23-0.775-4.12-2.325-5.67s-3.442-2.33-5.675-2.33-4.125 0.78-5.675 2.33-2.325 3.44-2.325 5.67 0.775 4.12 2.325 5.68c1.55 1.55 3.442 2.32 5.675 2.32zm0-4c0.367 0 0.721-0.05 1.062-0.14 0.342-0.09 0.663-0.23 0.963-0.41l-1.525-1.52c-0.083 0.03-0.167 0.05-0.25 0.06s-0.167 0.01-0.25 0.01c-0.55 0-1.021-0.2-1.412-0.59-0.392-0.39-0.588-0.86-0.588-1.41s0.196-1.02 0.588-1.41c0.391-0.39 0.862-0.59 1.412-0.59s1.021 0.2 1.413 0.59c0.391 0.39 0.587 0.86 0.587 1.41 0 0.1-4e-3 0.2-0.012 0.29-9e-3 0.09-0.03 0.18-0.063 0.26l1.5 1.5c0.183-0.3 0.325-0.62 0.425-0.96s0.15-0.71 0.15-1.09c0-1.1-0.392-2.04-1.175-2.82-0.783-0.79-1.725-1.18-2.825-1.18s-2.042 0.39-2.825 1.18c-0.783 0.78-1.175 1.72-1.175 2.82s0.392 2.04 1.175 2.82c0.783 0.79 1.725 1.18 2.825 1.18z"></path>
 </g>
</svg>