<svg version="1.1" viewBox="0 0 24 24" xmlns="http://www.w3.org/2000/svg">
<g transform="translate(-270,-1836)">
  <g id="Icon_151">
   <path id="path93" d="m279 1843v2h6v-2z"></path>
   <path id="path94" d="m286 1843h2v2h-2z"></path>
   <path id="path95" d="m279 1846v2h6v-2z"></path>
   <path id="path96" d="m286 1846h2v2h-2z"></path>
   <path id="path97" d="m289.5 1839.5-1.5-1.5-1.5 1.5-1.5-1.5-1.5 1.5-1.5-1.5-1.5 1.5-1.5-1.5-1.5 1.5-1.5-1.5v14h-3v3c0 1.66 1.34 3 3 3h12c1.66 0 3-1.34 3-3v-17zm-13.5 16.5c-0.55 0-1-0.45-1-1v-1h10v2zm13-1c0 0.55-0.45 1-1 1s-1-0.45-1-1v-3h-9v-11h11z" clip-rule="evenodd" fill-rule="evenodd"></path>
  </g>
 </g>
</svg>