<svg version="1.1" viewBox="0 0 24 24" xmlns="http://www.w3.org/2000/svg">
<g transform="translate(-110,-1836)">
  <path id="Icon_146" d="m122 1856c-2.233 0-4.125-0.78-5.675-2.33s-2.325-3.44-2.325-5.67 0.775-4.13 2.325-5.68 3.442-2.32 5.675-2.32c1.15 0 2.25 0.24 3.3 0.71 1.05 0.48 1.95 1.16 2.7 2.04v-2.75h2v7h-7v-2h4.2c-0.533-0.93-1.262-1.67-2.187-2.2s-1.93-0.8-3.013-0.8c-1.667 0-3.083 0.58-4.25 1.75s-1.75 2.58-1.75 4.25 0.583 3.08 1.75 4.25 2.583 1.75 4.25 1.75c1.283 0 2.442-0.37 3.475-1.1s1.758-1.7 2.175-2.9h2.1c-0.467 1.77-1.417 3.21-2.85 4.33-1.433 1.11-3.067 1.67-4.9 1.67z"></path>
 </g>
</svg>