<svg version="1.1" viewBox="0 0 24 24" xmlns="http://www.w3.org/2000/svg">
<g transform="translate(-238,-1836)">
  <path id="Icon_150" d="m254.32 1854.8-2.2 2.2-2.125-2.12 2.2-2.2c-0.067-0.19-0.117-0.38-0.15-0.58s-0.05-0.4-0.05-0.6c0-0.97 0.342-1.79 1.025-2.47 0.683-0.69 1.508-1.03 2.475-1.03 0.3 0 0.592 0.04 0.875 0.11 0.283 0.08 0.55 0.18 0.8 0.32l-2.375 2.37 1.4 1.4 2.375-2.35c0.133 0.25 0.237 0.51 0.313 0.79 0.074 0.27 0.112 0.56 0.112 0.86 0 0.97-0.342 1.79-1.025 2.48-0.683 0.68-1.508 1.02-2.475 1.02-0.217 0-0.421-0.02-0.613-0.05-0.191-0.03-0.379-0.08-0.562-0.15zm4.45-8.8h-2.075c-0.433-1.47-1.258-2.67-2.475-3.6s-2.625-1.4-4.225-1.4c-1.95 0-3.604 0.68-4.963 2.04-1.358 1.36-2.037 3.01-2.037 4.96 0 1.2 0.271 2.3 0.812 3.3 0.542 1 1.271 1.82 2.188 2.45v-2.75h2v6h-6v-2h2.35c-1.033-0.83-1.85-1.85-2.45-3.06s-0.9-2.52-0.9-3.94c0-1.25 0.237-2.42 0.713-3.51 0.475-1.09 1.116-2.04 1.925-2.85 0.808-0.81 1.758-1.45 2.85-1.93 1.091-0.47 2.262-0.71 3.512-0.71 2.15 0 4.038 0.66 5.663 1.99 1.625 1.32 2.662 2.99 3.112 5.01z"></path>
 </g>
</svg>