<svg version="1.1" viewBox="0 0 24 24" xmlns="http://www.w3.org/2000/svg">
<g transform="translate(-526,-1952)">
  <path id="Icon_167" d="m545 1967v4h-14v-4zm1-2h-16c-0.55 0-1 0.45-1 1v6c0 0.55 0.45 1 1 1h16c0.55 0 1-0.45 1-1v-6c0-0.55-0.45-1-1-1zm-13 5.5c-0.82 0-1.5-0.67-1.5-1.5s0.68-1.5 1.5-1.5 1.5 0.67 1.5 1.5-0.67 1.5-1.5 1.5zm12-13.5v4h-14v-4zm1-2h-16c-0.55 0-1 0.45-1 1v6c0 0.55 0.45 1 1 1h16c0.55 0 1-0.45 1-1v-6c0-0.55-0.45-1-1-1zm-13 5.5c-0.82 0-1.5-0.67-1.5-1.5s0.68-1.5 1.5-1.5 1.5 0.68 1.5 1.5-0.67 1.5-1.5 1.5z"></path>
 </g>
</svg>