<svg version="1.1" viewBox="0 0 24 24" xmlns="http://www.w3.org/2000/svg">
<g transform="translate(-558,-1952)">
  <g id="Icon_168" clip-rule="evenodd" fill-rule="evenodd">
   <path id="path106" d="m562 1965h16c0.55 0 1 0.45 1 1v6c0 0.55-0.45 1-1 1h-16c-0.55 0-1-0.45-1-1v-6c0-0.55 0.45-1 1-1zm3 5.5c-0.82 0-1.5-0.67-1.5-1.5s0.68-1.5 1.5-1.5 1.5 0.67 1.5 1.5-0.67 1.5-1.5 1.5z"></path>
   <path id="path107" d="m562 1955h16c0.55 0 1 0.45 1 1v6c0 0.55-0.45 1-1 1h-16c-0.55 0-1-0.45-1-1v-6c0-0.55 0.45-1 1-1zm3 5.5c-0.82 0-1.5-0.67-1.5-1.5s0.68-1.5 1.5-1.5 1.5 0.68 1.5 1.5-0.67 1.5-1.5 1.5z"></path>
  </g>
 </g>
</svg>