<svg version="1.1" viewBox="0 0 24 24" xmlns="http://www.w3.org/2000/svg">
<g transform="translate(-46 -1952)">
  <path id="Icon_152" d="m64 1968.1c-0.76 0-1.44 0.3-1.96 0.77l-7.13-4.15c0.05-0.23 0.09-0.46 0.09-0.7s-0.04-0.47-0.09-0.7l7.05-4.11c0.54 0.5 1.25 0.81 2.04 0.81 1.66 0 3-1.34 3-3s-1.34-3-3-3-3 1.34-3 3c0 0.24 0.04 0.47 0.09 0.7l-7.05 4.11c-0.54-0.5-1.25-0.81-2.04-0.81-1.66 0-3 1.34-3 3s1.34 3 3 3c0.79 0 1.5-0.31 2.04-0.81l7.12 4.16c-0.05 0.21-0.08 0.43-0.08 0.65 0 1.61 1.31 2.92 2.92 2.92s2.92-1.31 2.92-2.92-1.31-2.92-2.92-2.92zm0-12.08c0.55 0 1 0.45 1 1s-0.45 1-1 1-1-0.45-1-1 0.45-1 1-1zm-12 9c-0.55 0-1-0.45-1-1s0.45-1 1-1 1 0.45 1 1-0.45 1-1 1zm12 7.02c-0.55 0-1-0.45-1-1s0.45-1 1-1 1 0.45 1 1-0.45 1-1 1z"></path>
 </g>
</svg>