<svg version="1.1" viewBox="0 0 24 24" xmlns="http://www.w3.org/2000/svg">
<g transform="translate(-398,-1952)">
  <g id="Icon_163">
   <path id="path100" d="m401 1957v4h2v-4h4v-2h-4c-0.55 0-1.021 0.2-1.413 0.59-0.391 0.39-0.587 0.86-0.587 1.41z"></path>
   <path id="path101" d="m403 1973h4v-2h-4v-4h-2v4c0 0.55 0.196 1.02 0.587 1.41 0.392 0.39 0.863 0.59 1.413 0.59z"></path>
   <path id="path102" d="m413 1971v2h4c0.55 0 1.021-0.2 1.413-0.59 0.391-0.39 0.587-0.86 0.587-1.41v-4h-2v4z"></path>
   <path id="path103" d="m413 1957h4v4h2v-4c0-0.55-0.196-1.02-0.587-1.41-0.392-0.39-0.863-0.59-1.413-0.59h-4z"></path>
   <path id="path104" d="m414 1961h-8v2h8z"></path>
   <path id="path105" d="m406 1965h6v2h-6z"></path>
  </g>
 </g>
</svg>