<svg version="1.1" viewBox="0 0 24 24" xmlns="http://www.w3.org/2000/svg">
<g transform="translate(-334 -1952)">
  <path id="Icon_161" d="m344.45 1967.5c0.4 0.4 0.917 0.6 1.55 0.59s1.1-0.24 1.4-0.69l5.6-8.4-8.4 5.6c-0.45 0.3-0.687 0.76-0.712 1.38-0.025 0.61 0.162 1.12 0.562 1.52zm-5.35 4.5c-0.35 0-0.683-0.08-1-0.25s-0.567-0.4-0.75-0.7c-0.433-0.75-0.767-1.55-1-2.39s-0.35-1.73-0.35-2.66c0-1.38 0.263-2.68 0.788-3.89s1.241-2.26 2.15-3.17c0.908-0.91 1.97-1.63 3.187-2.15 1.217-0.53 2.508-0.79 3.875-0.79 0.983 0 1.929 0.14 2.838 0.41 0.908 0.28 1.762 0.69 2.562 1.24l-1.9 1.2c-0.55-0.28-1.121-0.5-1.712-0.64-0.592-0.14-1.188-0.21-1.788-0.21-2.217 0-4.104 0.78-5.662 2.34-1.559 1.56-2.338 3.44-2.338 5.66 0 0.7 0.096 1.39 0.287 2.08 0.192 0.68 0.463 1.32 0.813 1.92h13.8c0.383-0.63 0.663-1.29 0.838-1.98 0.175-0.68 0.262-1.39 0.262-2.12 0-0.6-0.071-1.18-0.212-1.75-0.142-0.57-0.355-1.12-0.638-1.65l1.2-1.9c0.5 0.78 0.896 1.62 1.188 2.5 0.291 0.88 0.445 1.8 0.462 2.75s-0.092 1.86-0.325 2.73c-0.233 0.86-0.575 1.69-1.025 2.47-0.183 0.3-0.433 0.53-0.75 0.7s-0.65 0.25-1 0.25z"></path>
 </g>
</svg>