<svg version="1.1" viewBox="0 0 24 24" xmlns="http://www.w3.org/2000/svg">
<g transform="translate(-429.68 -1952)">
  <path id="Icon_164" d="m442 1972c-2.233 0-4.125-0.78-5.675-2.33s-2.325-3.44-2.325-5.67 0.775-4.13 2.325-5.68 3.442-2.32 5.675-2.32c1.15 0 2.25 0.24 3.3 0.71l-0.8 1.89c-0.648-0.23-1.768-0.6-2.5-0.6-1.667 0-3.083 0.58-4.25 1.75s-1.75 2.58-1.75 4.25 0.583 3.08 1.75 4.25 2.583 1.75 4.25 1.75c1.283 0 2.442-0.37 3.475-1.1s1.758-1.7 2.175-2.9l1.715 1.13c-0.53 1.26-1.351 2.33-2.465 3.2-1.433 1.11-3.067 1.67-4.9 1.67z"></path>
 </g>
</svg>