<svg version="1.1" viewBox="0 0 24 24" xmlns="http://www.w3.org/2000/svg">
<g transform="translate(-655,-1951)">
  <g id="Icon_171" clip-rule="evenodd" fill-rule="evenodd">
   <path id="path111" d="m668 1957c0-2.76 2.24-5 5-5s5 2.24 5 5-2.24 5-5 5-5-2.24-5-5zm5.5 0.5h2.5v-1h-2.5v-2.5h-1v2.5h-2.5v1h2.5v2.5h1z"></path>
   <path id="path112" d="m666 1954c0.223 0 0.444 0.01 0.663 0.02-0.425 0.91-0.663 1.91-0.663 2.98 0 1.7 0.604 3.25 1.61 4.47-0.465-0.3-1.017-0.47-1.61-0.47-1.66 0-3 1.34-3 3s1.34 3 3 3 3-1.34 3-3c0-0.59-0.171-1.15-0.466-1.61 1.212 1.01 2.768 1.61 4.466 1.61 1.065 0 2.075-0.24 2.978-0.66 0.015 0.22 0.022 0.44 0.022 0.66 0 5.52-4.48 10-10 10s-10-4.48-10-10 4.48-10 10-10zm-2.87 2.54 1.17 2.78c-1.38 0.5-2.47 1.59-2.98 2.97l-2.78-1.16c0.81-2.11 2.48-3.78 4.59-4.59zm-4.59 10.33 2.78-1.15c0.51 1.38 1.59 2.46 2.97 2.96l-1.17 2.78c-2.1-0.81-3.77-2.48-4.58-4.59zm10.34 4.59-1.15-2.78c1.37-0.51 2.45-1.59 2.95-2.97l2.78 1.17c-0.81 2.1-2.48 3.77-4.58 4.58z"></path>
  </g>
 </g>
</svg>