<svg version="1.1" viewBox="0 0 24 24" xmlns="http://www.w3.org/2000/svg">
<g transform="translate(-334,-2068)">
  <path id="Icon_183" d="m347 2079v-2h5v2zm0-4v-2h8v2zm-5 14c-1.383 0-2.562-0.49-3.537-1.46-0.975-0.98-1.463-2.16-1.463-3.54 0-0.8 0.175-1.55 0.525-2.24s0.842-1.28 1.475-1.76v-6c0-0.83 0.292-1.54 0.875-2.12 0.583-0.59 1.292-0.88 2.125-0.88s1.542 0.29 2.125 0.88c0.583 0.58 0.875 1.29 0.875 2.12v6c0.633 0.48 1.125 1.07 1.475 1.76s0.525 1.44 0.525 2.24c0 1.38-0.487 2.56-1.462 3.54-0.975 0.97-2.155 1.46-3.538 1.46zm-3-5h6c0-0.48-0.104-0.93-0.312-1.35-0.209-0.42-0.505-0.77-0.888-1.05l-0.8-0.6v-7c0-0.28-0.096-0.52-0.287-0.71-0.192-0.19-0.43-0.29-0.713-0.29s-0.521 0.1-0.713 0.29c-0.191 0.19-0.287 0.43-0.287 0.71v7l-0.8 0.6c-0.383 0.28-0.679 0.63-0.888 1.05-0.208 0.42-0.312 0.87-0.312 1.35z"></path>
 </g>
</svg>