<svg version="1.1" viewBox="0 0 24 24" xmlns="http://www.w3.org/2000/svg">
<g transform="translate(-270,-2068)">
  <path id="Icon_181" d="m277 2089c-0.833 0-1.542-0.29-2.125-0.88-0.583-0.58-0.875-1.29-0.875-2.12h-1c-0.55 0-1.021-0.2-1.412-0.59-0.392-0.39-0.588-0.86-0.588-1.41v-4h9.231l-6.231-3.38v0.38c0 0.55-0.448 1-1 1h-1c-0.552 0-1-0.45-1-1v-2c0-0.65 0.333-1.19 0.811-1.5 0.1-0.06 0.208-0.12 0.319-0.16 0.464-0.19 1.009-0.18 1.508 0.09l8.362 4.53v-2.96c0-0.55 0.196-1.02 0.588-1.41 0.391-0.39 0.862-0.59 1.412-0.59h2v-1c0-0.28 0.096-0.52 0.288-0.71 0.191-0.19 0.429-0.29 0.712-0.29h1c0.283 0 0.521 0.1 0.712 0.29 0.192 0.19 0.288 0.43 0.288 0.71v1h0.55c0.433 0 0.825 0.12 1.175 0.38 0.35 0.24 0.592 0.58 0.725 1l1.45 4.3c0.033 0.1 0.058 0.2 0.075 0.31s0.025 0.22 0.025 0.33v6.68h-3c0 0.83-0.292 1.54-0.875 2.12-0.583 0.59-1.292 0.88-2.125 0.88s-1.542-0.29-2.125-0.88c-0.583-0.58-0.875-1.29-0.875-2.12h-4c0 0.83-0.292 1.54-0.875 2.12-0.583 0.59-1.292 0.88-2.125 0.88zm0-2c0.283 0 0.521-0.1 0.713-0.29 0.191-0.19 0.287-0.43 0.287-0.71s-0.096-0.52-0.287-0.71c-0.192-0.19-0.43-0.29-0.713-0.29s-0.521 0.1-0.713 0.29c-0.191 0.19-0.287 0.43-0.287 0.71s0.096 0.52 0.287 0.71c0.192 0.19 0.43 0.29 0.713 0.29zm10 0c0.283 0 0.521-0.1 0.712-0.29 0.192-0.19 0.288-0.43 0.288-0.71s-0.096-0.52-0.288-0.71c-0.191-0.19-0.429-0.29-0.712-0.29s-0.521 0.1-0.712 0.29c-0.192 0.19-0.288 0.43-0.288 0.71s0.096 0.52 0.288 0.71c0.191 0.19 0.429 0.29 0.712 0.29zm-14-5v2h1.775c0.283-0.32 0.617-0.56 1-0.74 0.383-0.17 0.792-0.26 1.225-0.26s0.842 0.09 1.225 0.26c0.383 0.18 0.717 0.42 1 0.74h2.775v-2zm11 2h0.775c0.283-0.32 0.617-0.56 1-0.74 0.383-0.17 0.792-0.26 1.225-0.26s0.842 0.09 1.225 0.26c0.383 0.18 0.717 0.42 1 0.74h1.775v-3h-7zm0-5h6.9l-1.35-4h-5.55z" clip-rule="evenodd" fill-rule="evenodd"></path>
 </g>
</svg>