<svg version="1.1" viewBox="0 0 24 24" xmlns="http://www.w3.org/2000/svg">
<g transform="translate(-302,-2068)">
  <g id="Icon_182" clip-rule="evenodd" fill-rule="evenodd">
   <path id="path117" d="m302 2071c0-0.55 0.448-1 1-1h15c0.552 0 1 0.45 1 1v13c0 0.55-0.448 1-1 1h-15c-0.552 0-1-0.45-1-1zm2 1v11h13v-11z"></path>
   <path id="path118" d="m317 2076c0-0.55 0.448-1 1-1h4c0.265 0 0.52 0.11 0.707 0.29l3 3c0.188 0.19 0.293 0.44 0.293 0.71v5c0 0.55-0.448 1-1 1h-7c-0.552 0-1-0.45-1-1zm2 1v6h5v-3.59l-2.414-2.41z"></path>
   <path id="path119" d="m307.5 2085c-0.828 0-1.5 0.67-1.5 1.5s0.672 1.5 1.5 1.5 1.5-0.67 1.5-1.5-0.672-1.5-1.5-1.5zm-3.5 1.5c0-1.93 1.567-3.5 3.5-3.5s3.5 1.57 3.5 3.5-1.567 3.5-3.5 3.5-3.5-1.57-3.5-3.5z"></path>
   <path id="path120" d="m320.5 2085c-0.828 0-1.5 0.67-1.5 1.5s0.672 1.5 1.5 1.5 1.5-0.67 1.5-1.5-0.672-1.5-1.5-1.5zm-3.5 1.5c0-1.93 1.567-3.5 3.5-3.5s3.5 1.57 3.5 3.5-1.567 3.5-3.5 3.5-3.5-1.57-3.5-3.5z"></path>
  </g>
 </g>
</svg>