<svg version="1.1" viewBox="0 0 24 24" xmlns="http://www.w3.org/2000/svg">
<g transform="translate(-82,-2184)">
  <path id="Icon_185" d="m94 2206c-0.55 0-1.0208-0.2-1.4125-0.59s-0.5875-0.86-0.5875-1.41c0-0.35 0.0917-0.67 0.275-0.98 0.1833-0.29 0.425-0.54 0.725-0.72v-2.3h-3c-0.55 0-1.0208-0.2-1.4125-0.59s-0.5875-0.86-0.5875-1.41v-2.3c-0.3-0.15-0.5417-0.38-0.725-0.67-0.1833-0.3-0.275-0.65-0.275-1.03 0-0.55 0.1958-1.02 0.5875-1.41s0.8625-0.59 1.4125-0.59 1.0208 0.2 1.4125 0.59 0.5875 0.86 0.5875 1.41c0 0.38-0.0917 0.72-0.275 1s-0.425 0.52-0.725 0.7v2.3h3v-8h-2l3-4 3 4h-2v8h3v-2h-1v-4h4v4h-1v2c0 0.55-0.1958 1.02-0.5875 1.41s-0.8625 0.59-1.4125 0.59h-3v2.3c0.3167 0.17 0.5625 0.4 0.7375 0.7s0.2625 0.63 0.2625 1c0 0.55-0.1958 1.02-0.5875 1.41s-0.8625 0.59-1.4125 0.59z"></path>
 </g>
</svg>