<svg version="1.1" viewBox="0 0 24 24" xmlns="http://www.w3.org/2000/svg">
<g transform="translate(-142 -2300)">
  <path id="Icon_189" d="m158.73 2316-3.746-3.75-1.963-1.96-3.745-3.75-2.118-2.11-2.295-2.3-1.558 1.56 1.05 1.05c-0.247 0.14-0.472 0.29-0.659 0.46-0.224 0.28-0.405 0.62-0.543 1.02-0.138 0.41-0.181 0.81-0.129 1.2l2.325 8.47c0.103 0.61 0.387 1.13 0.852 1.57s1.025 0.66 1.679 0.66h4.624v-1.99h-4.727c-0.121 0-0.228-0.05-0.323-0.14-0.095-0.1-0.177-0.2-0.245-0.3l-2.196-8.5c0-0.1 4e-3 -0.21 0.013-0.31s0.039-0.18 0.09-0.23c0.069-0.05 0.147-0.09 0.233-0.11h0.81l3.745 3.75h-1.481v1.96h3.445l3.746 3.75h-0.139v1.99h2.128l3.982 3.98 1.558-1.56-2.49-2.49zm6.199-9.79c-0.121-0.4-0.293-0.73-0.517-1.01-0.224-0.27-0.491-0.47-0.801-0.59s-0.629-0.18-0.956-0.18h-12.38l2.118 2.11h10.159c0.052 0 0.086 0.01 0.103 0.02s0.052 0.04 0.103 0.09c0.052 0.05 0.099 0.13 0.142 0.23s0.03 0.21-0.039 0.31l-2.062 7.76 1.584 1.59c0.123-0.24 0.218-0.48 0.271-0.75l2.196-8.37v-0.13c0.173-0.32 0.199-0.69 0.079-1.08zm-5.141 4.08h-3.65l1.963 1.96h1.687z"></path>
 </g>
</svg>