<svg version="1.1" viewBox="0 0 24 24" xmlns="http://www.w3.org/2000/svg">
<g transform="translate(-110 -2300.2)">
  <path id="Icon_188" d="m132.41 2306.2c0.224 0.28 0.396 0.61 0.517 1.01s0.094 0.76-0.077 1.09v0.13l-2.195 8.36c-0.121 0.61-0.421 1.12-0.904 1.55s-1.024 0.65-1.627 0.65h-4.649v-1.99h4.649c0.155 0 0.284-0.04 0.387-0.13 0.104-0.08 0.156-0.19 0.156-0.31v-0.1l2.195-8.27c0.068-0.1 0.082-0.21 0.039-0.31s-0.091-0.18-0.142-0.23-0.085-0.08-0.104-0.09c-0.018-0.01-0.051-0.02-0.104-0.02h-17.204c-0.085 0.02-0.163 0.06-0.232 0.11-0.051 0.05-0.082 0.13-0.09 0.23-9e-3 0.11-0.012 0.21-0.012 0.31l2.195 8.5c0.068 0.11 0.15 0.2 0.245 0.3 0.094 0.09 0.203 0.14 0.323 0.14h4.728v1.99h-4.624c-0.654 0-1.214-0.22-1.679-0.66-0.466-0.44-0.75-0.96-0.852-1.56l-2.326-8.47c-0.052-0.4-9e-3 -0.8 0.129-1.21 0.138-0.4 0.319-0.74 0.543-1.02 0.224-0.2 0.49-0.38 0.801-0.54 0.31-0.15 0.628-0.23 0.955-0.23h17.203c0.328 0 0.645 0.06 0.956 0.18 0.31 0.12 0.577 0.32 0.8 0.59zm-4.623 5.09v1.97h-11.366v-1.97z"></path>
 </g>
</svg>