<svg version="1.1" viewBox="0 0 24 24" xmlns="http://www.w3.org/2000/svg">
<g transform="translate(-142,-2416)">
  <g id="Icon_193">
   <path id="path127" d="m145 2416c-0.552 0-1 0.45-1 1v8c0 0.55 0.448 1 1 1h5c0.552 0 1-0.45 1-1v-3h2v-2h-2v-3c0-0.55-0.448-1-1-1z"></path>
   <path id="path128" d="m151 2434h2v2h-2v3c0 0.55-0.448 1-1 1h-5c-0.552 0-1-0.45-1-1v-8c0-0.55 0.448-1 1-1h5c0.552 0 1 0.45 1 1z"></path>
   <path id="path129" d="m157 2425v-3h-2v-2h2v-3c0-0.55 0.448-1 1-1h5c0.552 0 1 0.45 1 1v8c0 0.55-0.448 1-1 1h-5c-0.552 0-1-0.45-1-1z"></path>
   <path id="path130" d="m157 2436v3c0 0.55 0.448 1 1 1h5c0.552 0 1-0.45 1-1v-8c0-0.55-0.448-1-1-1h-5c-0.552 0-1 0.45-1 1v3h-2v2z"></path>
  </g>
 </g>
</svg>