<svg version="1.1" viewBox="0 0 24 24" xmlns="http://www.w3.org/2000/svg">
<g transform="translate(-206,-2416.5)">
  <path id="Icon_195" d="m218 2437-12-12c1.6-1.63 3.433-2.88 5.5-3.73 2.067-0.84 4.233-1.27 6.5-1.27 2.283 0 4.458 0.43 6.525 1.27 2.067 0.85 3.892 2.1 5.475 3.73zm-2.975-5.82c0.417-0.3 0.879-0.54 1.388-0.7 0.508-0.17 1.037-0.25 1.587-0.25s1.079 0.08 1.588 0.25c0.508 0.16 0.97 0.4 1.387 0.7l6.125-6.13c-1.3-0.98-2.721-1.74-4.263-2.26-1.541-0.53-3.154-0.79-4.837-0.79s-3.296 0.26-4.838 0.79c-1.541 0.52-2.962 1.28-4.262 2.26z"></path>
 </g>
</svg>