<svg version="1.1" viewBox="0 0 24 24" xmlns="http://www.w3.org/2000/svg">
<g transform="translate(-270,-2416.5)">
  <path id="Icon_197" d="m282 2437-12-12c1.6-1.63 3.433-2.88 5.5-3.73 2.067-0.84 4.233-1.27 6.5-1.27 2.283 0 4.458 0.43 6.525 1.27 2.067 0.85 3.892 2.1 5.475 3.73zm-6.2-9.05c0.883-0.63 1.85-1.13 2.9-1.49s2.15-0.53 3.3-0.53 2.25 0.17 3.3 0.53 2.017 0.86 2.9 1.49l2.9-2.9c-1.3-0.98-2.721-1.74-4.263-2.26-1.541-0.53-3.154-0.79-4.837-0.79s-3.296 0.26-4.838 0.79c-1.541 0.52-2.962 1.28-4.262 2.26z"></path>
 </g>
</svg>