<svg version="1.1" viewBox="0 0 24 24" xmlns="http://www.w3.org/2000/svg">
<g transform="translate(-302,-2416.5)">
  <path id="Icon_198" d="m314 2437-12-12c1.583-1.62 3.413-2.85 5.488-3.71 2.074-0.86 4.245-1.29 6.512-1.29 2.283 0 4.458 0.43 6.525 1.27 2.067 0.85 3.892 2.1 5.475 3.73zm-7.65-10.5c1.117-0.8 2.325-1.42 3.625-1.85s2.642-0.65 4.025-0.65 2.725 0.22 4.025 0.65 2.508 1.05 3.625 1.85l1.45-1.45c-1.317-1-2.75-1.76-4.3-2.27-1.55-0.52-3.15-0.78-4.8-0.78s-3.25 0.26-4.8 0.78c-1.55 0.51-2.983 1.27-4.3 2.27z"></path>
 </g>
</svg>