<svg version="1.1" viewBox="0 0 24 24" xmlns="http://www.w3.org/2000/svg">
<g transform="translate(-238,-2416.5)">
  <path id="Icon_196" d="m250 2437-12-12c1.6-1.63 3.433-2.88 5.5-3.73 2.067-0.84 4.233-1.27 6.5-1.27 2.283 0 4.458 0.43 6.525 1.27 2.067 0.85 3.892 2.1 5.475 3.73zm-4.525-7.38c0.633-0.46 1.333-0.82 2.1-1.08s1.575-0.39 2.425-0.39 1.658 0.13 2.425 0.39 1.467 0.62 2.1 1.08l4.575-4.57c-1.3-0.98-2.721-1.74-4.263-2.26-1.541-0.53-3.154-0.79-4.837-0.79s-3.296 0.26-4.838 0.79c-1.541 0.52-2.962 1.28-4.262 2.26z"></path>
 </g>
</svg>