<svg id="svg139" fill="none" version="1.1" viewBox="0 0 24 24" xmlns="http://www.w3.org/2000/svg">
 <g id="Arrow Back" transform="translate(-46,-96)">
  <path id="Icon" d="m58 116-8-8 8-8 1.425 1.4-5.6 5.6h12.175v2h-12.175l5.6 5.6z" />
 </g>
 <g id="Arrow Forward" transform="translate(-78,-96)">
  <path id="Icon_2" d="m90 116-1.425-1.4 5.6-5.6h-12.175v-2h12.175l-5.6-5.6 1.425-1.4 8 8z" />
 </g>
 <g id="Apps" transform="translate(-110,-96)">
  <path id="Icon_3" d="m114 104h4v-4h-4zm6 12h4v-4h-4zm-6 0h4v-4h-4zm0-6h4v-4h-4zm6 0h4v-4h-4zm6-10v4h4v-4zm-6 4h4v-4h-4zm6 6h4v-4h-4zm0 6h4v-4h-4z" />
 </g>
 <g id="Attach File" transform="translate(-142.5,-96)">
  <path id="Icon_4" d="m158.5 102v11.5c0 2.21-1.79 4-4 4s-4-1.79-4-4v-12.5c0-1.38 1.12-2.5 2.5-2.5s2.5 1.12 2.5 2.5v10.5c0 0.55-0.45 1-1 1s-1-0.45-1-1v-9.5h-1.5v9.5c0 1.38 1.12 2.5 2.5 2.5s2.5-1.12 2.5-2.5v-10.5c0-2.21-1.79-4-4-4s-4 1.79-4 4v12.5c0 3.04 2.46 5.5 5.5 5.5s5.5-2.46 5.5-5.5v-11.5z" />
 </g>
 <g id="Arrow Right" transform="translate(-174.5,-96)">
  <path id="Icon_5" d="m184 113 5-5-5-5z" />
 </g>
 <g id="Arrow Left" transform="translate(-205.5,-96)">
  <path id="Icon_6" d="m220 103-5 5 5 5z" />
 </g>
 <g id="Arrow Drop Up" transform="translate(-238,-95.5)">
  <path id="Icon_7" d="m245 110 5-5 5 5z" />
 </g>
 <g id="Arrow Drop Down" transform="translate(-270,-96.5)">
  <path id="Icon_8" d="m277 106 5 5 5-5z" />
 </g>
 <g id="Add" transform="translate(-302,-96)">
  <path id="Icon_9" d="m313 115v-6h-6v-2h6v-6h2v6h6v2h-6v6z" />
 </g>
 <g id="Add Circle" transform="translate(-334,-96)">
  <path id="Icon_10" d="m347 103h-2v4h-4v2h4v4h2v-4h4v-2h-4zm-1-5c-5.52 0-10 4.48-10 10s4.48 10 10 10 10-4.48 10-10-4.48-10-10-10zm0 18c-4.41 0-8-3.59-8-8s3.59-8 8-8 8 3.59 8 8-3.59 8-8 8z" />
 </g>
 <g id="Account Circle" transform="translate(-366,-96)">
  <g id="Icon_11" clip-rule="evenodd"  fill-rule="evenodd">
   <path id="path3" d="m374.5 105.5c0-1.93 1.57-3.5 3.5-3.5s3.5 1.57 3.5 3.5-1.57 3.5-3.5 3.5-3.5-1.57-3.5-3.5zm2 0c0 0.83 0.67 1.5 1.5 1.5s1.5-0.67 1.5-1.5-0.67-1.5-1.5-1.5-1.5 0.67-1.5 1.5z"/>
   <path id="path4" d="m368 108c0-5.52 4.48-10 10-10s10 4.48 10 10-4.48 10-10 10-10-4.48-10-10zm10 5c-1.74 0-3.34 0.56-4.65 1.5 1.31 0.94 2.91 1.5 4.65 1.5s3.34-0.56 4.65-1.5c-1.31-0.94-2.91-1.5-4.65-1.5zm0-2c2.32 0 4.45 0.8 6.14 2.12 1.16-1.39 1.86-3.17 1.86-5.12 0-4.42-3.58-8-8-8s-8 3.58-8 8c0 1.95 0.7 3.73 1.86 5.12 1.69-1.32 3.82-2.12 6.14-2.12z"/>
  </g>
 </g>
 <g id="Automated" transform="translate(-398,-96)">
  <path id="Icon_12" d="m400.88 103.88 1.54 1.54c-0.27 0.81-0.42 1.68-0.42 2.58 0 4.41 3.59 8 8 8s8-3.59 8-8-3.59-8-8-8c-0.9 0-1.77 0.15-2.58 0.42l-1.53-1.53c1.26-0.57 2.65-0.89 4.11-0.89 5.52 0 10 4.48 10 10s-4.48 10-10 10-10-4.48-10-10c0-1.47 0.32-2.86 0.88-4.12zm4.12-2.38c0 0.83-0.67 1.5-1.5 1.5s-1.5-0.67-1.5-1.5 0.67-1.5 1.5-1.5 1.5 0.67 1.5 1.5zm5.03 3.49h-0.07l-1.16 3.31h2.39zm-0.03 9.01c3.31 0 6-2.69 6-6s-2.69-6-6-6-6 2.69-6 6 2.69 6 6 6zm-0.71-10.5h1.43l3.01 8h-1.39l-0.72-2.04h-3.23l-0.73 2.04h-1.38z" />
 </g>
 <g id="AC Unit" transform="translate(-430,-96)">
  <path id="Icon_13" d="m452 107h-4.17l3.24-3.24-1.41-1.42-4.66 4.66h-2v-2l4.66-4.66-1.42-1.41-3.24 3.24v-4.17h-2v4.17l-3.24-3.24-1.42 1.41 4.66 4.66v2h-2l-4.66-4.66-1.41 1.42 3.24 3.24h-4.17v2h4.17l-3.24 3.24 1.41 1.42 4.66-4.66h2v2l-4.66 4.66 1.42 1.41 3.24-3.24v4.17h2v-4.17l3.24 3.24 1.42-1.41-4.66-4.66v-2h2l4.66 4.66 1.41-1.42-3.24-3.24h4.17z" />
 </g>
 <g id="All Season" transform="translate(-462,-96)">
  <g id="Icon_14" >
   <path id="path5" d="m474 97h-2v5.17l-3.24-3.24-1.42 1.41 4.66 4.66v2h-2l-4.66-4.66-1.41 1.42 3.24 3.24h-4.17v2h4.17l-3.24 3.24 1.41 1.42 4.66-4.66h2v2l-4.66 4.66 1.42 1.41 3.24-3.24v5.17h2z"/>
   <path id="path6" d="m481.42 100.58c0.39 0.38 0.39 1.02 0 1.41l-1.06 1.06c-0.38 0.39-1.02 0.38-1.41 0s-0.39-1.02 0-1.41l1.06-1.06c0.38-0.39 1.02-0.39 1.41 0z"/>
   <path id="path7" d="m476 112.58c1.765-0.772 3-2.534 3-4.583s-1.235-3.811-3-4.583v2.352c0.613 0.55 1 1.347 1 2.231s-0.387 1.681-1 2.231z"/>
   <path id="path8" d="m484 109h-2c-0.55 0-1-0.45-1-1s0.45-1 1-1h2c0.55 0 1 0.45 1 1s-0.45 1-1 1z"/>
   <path id="path9" d="m480.36 112.95c-0.39-0.39-1.03-0.39-1.41 0-0.39 0.39-0.39 1.03 0 1.41l1.06 1.06c0.39 0.39 1.03 0.39 1.41 0 0.39-0.39 0.39-1.03 0-1.41z"/>
  </g>
 </g>
 <g id="Automated Diagnosis" transform="translate(-494,-96.5)">
  <path id="Icon_15" d="m515 101.89c-0.2-0.497-0.7-0.894-1.3-0.894h-8c0.8 0.397 1.5 0.795 2.1 1.391h6l1.4 4.271h-4.9c0.1 0.596 0.2 1.192 0.2 1.888 0 2.185-0.8 4.172-2.2 5.662h6v0.894c0 0.497 0.4 0.894 0.9 0.894h0.9c0.5 0 0.9-0.397 0.9-0.894v-7.55zm-1.3 9.338c-0.8 0-1.4-0.596-1.4-1.391s0.6-1.391 1.4-1.391 1.4 0.596 1.4 1.391-0.7 1.391-1.4 1.391zm-12 3.968c-3.7 0-6.7-3-6.7-6.7s3-6.7 6.7-6.7 6.7 3 6.7 6.7-3 6.7-6.7 6.7zm0-11.7c-2.8 0-5 2.3-5 5 0 2.8 2.3 5 5 5s5-2.3 5-5c0-2.8-2.3-5-5-5zm-1.8 2 4.7 2.7c0.2 0.2 0.2 0.5 0 0.6l-4.7 2.7c-0.2 0.1-0.5-0.1-0.5-0.3v-5.4c0-0.2 0.3-0.4 0.5-0.3z" clip-rule="evenodd"  fill-rule="evenodd"/>
 </g>
 <g id="ASA" transform="translate(-526 -96)">
  <path id="Icon_16" d="m545.07 100.93c-1.954-1.9534-4.512-2.929-7.071-2.929s-5.118 0.9756-7.071 2.929c-3.906 3.904-3.906 10.237 0 14.142 1.953 1.953 4.512 2.929 7.071 2.929s5.117-0.976 7.071-2.929c3.905-3.905 3.905-10.237 0-14.142zm-1.415 12.728c-1.511 1.511-3.52 2.343-5.656 2.343-2.137 0-4.146-0.832-5.657-2.343s-2.343-3.52-2.343-5.657 0.832-4.146 2.343-5.657 3.52-2.343 5.657-2.343c2.136 0 4.145 0.832 5.656 2.343s2.344 3.52 2.344 5.657-0.833 4.146-2.344 5.657zm-10.416-8.174-1.623 5.017h1.07l0.345-1.189h1.723l0.343 1.189h1.068l-1.631-5.018zm0.049 2.939 0.316-1.094c7e-3 -0.025 0.018-0.065 0.033-0.116 0.014-0.052 0.031-0.113 0.05-0.181s0.037-0.141 0.057-0.219c0.022-0.078 0.042-0.154 0.062-0.231 0.02-0.075 0.035-0.148 0.051-0.217 0.015-0.068 0.026-0.126 0.035-0.177 0.012 0.08 0.03 0.176 0.058 0.291 0.028 0.114 0.057 0.226 0.088 0.34 0.03 0.112 0.06 0.215 0.086 0.309 0.027 0.093 0.048 0.161 0.063 0.202l0.321 1.094zm5.916-0.214c-0.104-0.116-0.227-0.22-0.37-0.315-0.145-0.094-0.301-0.186-0.473-0.277-0.141-0.075-0.261-0.144-0.36-0.203s-0.18-0.116-0.242-0.174c-0.062-0.057-0.108-0.118-0.137-0.183-0.028-0.066-0.043-0.14-0.043-0.225 0-0.157 0.046-0.283 0.142-0.377 0.096-0.095 0.23-0.142 0.408-0.142 0.082 0 0.164 6e-3 0.245 0.019 0.081 0.012 0.164 0.031 0.247 0.056 0.086 0.025 0.172 0.055 0.26 0.092 0.09 0.037 0.186 0.079 0.287 0.125l0.342-0.824c-0.12-0.057-0.237-0.107-0.352-0.15-0.116-0.043-0.228-0.08-0.34-0.109-0.114-0.03-0.227-0.052-0.343-0.068-0.115-0.015-0.233-0.024-0.354-0.024-0.242 0-0.46 0.032-0.656 0.095-0.194 0.065-0.36 0.157-0.496 0.279-0.137 0.123-0.242 0.271-0.316 0.447-0.074 0.177-0.111 0.377-0.111 0.6 0 0.228 0.039 0.423 0.117 0.586 0.076 0.163 0.173 0.302 0.288 0.416 0.115 0.115 0.236 0.211 0.367 0.289 0.129 0.078 0.247 0.145 0.353 0.198 0.125 0.065 0.237 0.129 0.34 0.188 0.102 0.059 0.187 0.12 0.26 0.183 0.072 0.063 0.127 0.13 0.167 0.202 0.04 0.071 0.06 0.155 0.06 0.248 0 0.078-0.012 0.149-0.035 0.213-0.024 0.066-0.062 0.121-0.112 0.168-0.053 0.046-0.119 0.083-0.203 0.109-0.083 0.026-0.183 0.039-0.299 0.039-0.114 0-0.228-0.011-0.344-0.035-0.116-0.023-0.229-0.054-0.346-0.092-0.115-0.038-0.228-0.083-0.341-0.131-0.111-0.049-0.222-0.1-0.331-0.152v0.984c0.191 0.1 0.399 0.176 0.625 0.226 0.225 0.051 0.456 0.075 0.699 0.075 0.275 0 0.52-0.034 0.732-0.103s0.394-0.165 0.54-0.292 0.259-0.279 0.335-0.458 0.116-0.38 0.116-0.604c0-0.196-0.029-0.367-0.086-0.514-0.055-0.139-0.135-0.27-0.24-0.385zm3.548-2.725h-1.296l-1.623 5.017h1.07l0.346-1.189h1.723l0.342 1.189h1.069zm-1.248 2.939 0.317-1.094c7e-3 -0.025 0.018-0.065 0.032-0.116 0.015-0.052 0.031-0.113 0.05-0.181s0.038-0.141 0.058-0.219c0.021-0.078 0.041-0.154 0.061-0.231 0.02-0.075 0.036-0.148 0.051-0.217 0.016-0.068 0.027-0.126 0.036-0.177 0.012 0.08 0.03 0.176 0.057 0.291 0.028 0.114 0.057 0.226 0.088 0.34 0.03 0.112 0.06 0.215 0.087 0.309 0.027 0.093 0.048 0.161 0.062 0.202l0.321 1.094z" />
 </g>
 <g id="Actuator" transform="translate(-558,-96)">
  <path id="Icon_17" d="m570.3 103.1c-1.2 0-2.4 0.3-3.4 0.9-2 1.2-3.3 3.3-3.3 5.7 0 3.7 3 6.7 6.7 6.7s6.7-3 6.7-6.7-3-6.6-6.7-6.6zm0 11.3c-2.6 0-4.7-2.1-4.7-4.7 0-1.3 0.6-2.6 1.5-3.4l2.3 3.9c0.2 0.3 0.5 0.5 0.9 0.5 0.2 0 0.3 0 0.5-0.1 0.5-0.3 0.6-0.9 0.4-1.4l-2.3-3.9c0.5-0.2 0.9-0.3 1.4-0.3 2.6 0 4.7 2.1 4.7 4.7s-2.1 4.7-4.7 4.7zm-1.6-12.8c0.6 0 1-0.4 1-1s-0.4-1-1-1-1 0.4-1 1c0 0.5 0.4 1 1 1zm3.2 0c0.6 0 1-0.4 1-1s-0.4-1-1-1-1 0.4-1 1 0.5 1 1 1zm6.5 2.2c0-0.6-0.4-1-1-1s-1 0.4-1 1 0.4 1 1 1 1-0.5 1-1zm-3.4-1.1c0.6 0 1-0.4 1-1s-0.4-1-1-1-1 0.4-1 1 0.4 1 1 1zm4 2.9c-0.6 0-1 0.4-1 1s0.4 1 1 1 1-0.4 1-1-0.4-1-1-1zm-12.862-3.004c0.522-0.296 0.672-0.842 0.376-1.364-0.296-0.521-0.841-0.672-1.363-0.376-1.611 0.914-2.908 2.267-3.804 3.868l-2e-3 -1e-3c-0.861 1.511-1.345 3.219-1.345 4.977 0 0.6 0.4 1 1 1s1-0.4 1-1c0-1.36 0.364-2.693 1.006-3.875 0.72-1.335 1.798-2.473 3.132-3.229z" />
 </g>
 <g id="ADAS Guided Calibration" transform="translate(-590,-96)" clip-path="url(#clip0_27_68)">
  <g id="ADAS Guided Calibration_2">
   <path id="Union" d="m593 97h19v13h-6.132c0.087-0.487 0.132-0.988 0.132-1.5 0-4.694-3.806-8.5-8.5-8.5-1.653 0-3.195 0.472-4.5 1.288zm-2 16.978v0.022h0.019zm14.248-1.978c-0.851 1.881-2.367 3.397-4.248 4.248v0.752h-4v2h11v-2h-4v-3h9v-2zm-7.748 3c-3.59 0-6.5-2.91-6.5-6.5s2.91-6.5 6.5-6.5 6.5 2.91 6.5 6.5-2.91 6.5-6.5 6.5zm0-11.351c-2.716 0-4.851 2.232-4.851 4.851 0 2.716 2.232 4.851 4.851 4.851s4.851-2.232 4.851-4.851c0-2.716-2.232-4.851-4.851-4.851zm3.1 4.751-4.7-2.7c-0.2-0.1-0.5 0.1-0.5 0.3v5.4c0 0.2 0.3 0.4 0.5 0.3l4.7-2.7c0.2-0.1 0.2-0.4 0-0.6z" clip-rule="evenodd" fill-rule="evenodd"/>
  </g>
 </g>
 <g id="ADAS Hardware" transform="translate(-622,-96)" clip-path="url(#clip1_27_68)">
  <g id="Icon_18" >
   <path id="path10" d="m626 96h2v2h-2z"/>
   <path id="path11" d="m639 97h2v6h-2z"/>
   <path id="path12" d="m628 120v-2h-2v2z"/>
   <path id="path13" d="m639 114 1 1 1-1v5h-2z"/>
   <path id="path14" d="m640 113 6-9h-12z"/>
   <path id="path15" d="m622 117v-18h10v18zm5-10c1.657 0 3-1.343 3-3s-1.343-3-3-3-3 1.343-3 3 1.343 3 3 3zm0 8c1.657 0 3-1.343 3-3s-1.343-3-3-3-3 1.343-3 3 1.343 3 3 3z" clip-rule="evenodd" fill-rule="evenodd"/>
  </g>
 </g>
 <g id="Bookmark Filled" transform="translate(-46,-212)">
  <path id="Icon_19" d="m51 233v-16c0-0.55 0.196-1.021 0.588-1.413 0.3913-0.391 0.862-0.587 1.412-0.587h10c0.55 0 1.021 0.196 1.413 0.587 0.3913 0.392 0.587 0.863 0.587 1.413v16l-7-3z" />
 </g>
 <g id="Bookmark Outline" transform="translate(-78,-212)">
  <path id="Icon_20" d="m83 233v-16c0-0.55 0.196-1.021 0.588-1.413 0.3913-0.391 0.862-0.587 1.412-0.587h10c0.55 0 1.021 0.196 1.413 0.587 0.3913 0.392 0.587 0.863 0.587 1.413v16l-7-3zm2-3.05 5-2.15 5 2.15v-12.95h-10zm0-12.95h10-5z" />
 </g>
 <g id="Bluetooth" transform="translate(-109.36 -212)">
  <path id="Icon_21" d="m127.71 219.71-5.71-5.71h-1v7.59l-4.59-4.59-1.41 1.41 5.59 5.59-5.59 5.59 1.41 1.41 4.59-4.59v7.59h1l5.71-5.71-4.3-4.29zm-4.71-1.88 1.88 1.88-1.88 1.88zm1.88 10.46-1.88 1.88v-3.76z" />
 </g>
 <g id="Bluetooth disabled" transform="translate(-141.3,-212.3)">
  <path id="Icon_22" d="m161.8 234.6-4.2-4.2-3.6 3.6h-1v-7.6l-4.6 4.6-1.4-1.4 4.9-4.9-8.5-8.5 1.4-1.4 18.4 18.4zm-6.8-4.45 1.15-1.15-1.15-1.15zm1.1-6.85-1.4-1.4 2.2-2.2-1.9-1.85v4.35l-2-2v-6.2h1l5.7 5.7z" />
 </g>
 <g id="Battery Full" transform="translate(-174,-212)">
  <path id="Icon_23" d="m189.67 216h-1.67v-2h-4v2h-1.67c-0.73 0-1.33 0.6-1.33 1.33v15.33c0 0.74 0.6 1.34 1.33 1.34h7.33c0.74 0 1.34-0.6 1.34-1.33v-15.34c0-0.73-0.6-1.33-1.33-1.33z" />
 </g>
 <g id="Battery Loading" transform="translate(-206,-212)">
  <path id="Icon_24" d="m221.67 216h-1.67v-2h-4v2h-1.67c-0.73 0-1.33 0.6-1.33 1.33v15.33c0 0.74 0.6 1.34 1.33 1.34h7.33c0.74 0 1.34-0.6 1.34-1.33v-15.34c0-0.73-0.6-1.33-1.33-1.33zm-4.67 16v-5.5h-2l4-7.5v5.5h2z" />
 </g>
 <g id="Battery Alert" transform="translate(-238,-212)">
  <path id="Icon_25" d="m253.67 216h-1.67v-2h-4v2h-1.67c-0.73 0-1.33 0.6-1.33 1.33v15.33c0 0.74 0.6 1.34 1.33 1.34h7.33c0.74 0 1.34-0.6 1.34-1.33v-15.34c0-0.73-0.6-1.33-1.33-1.33zm-2.67 14h-2v-2h2zm0-4h-2v-5h2z" />
 </g>
 <g id="Battery 6" transform="translate(-270,-212)">
  <path id="Icon_26" d="m287 217v16c0 0.55-0.45 1-1 1h-8c-0.55 0-1-0.45-1-1v-16c0-0.55 0.45-1 1-1h2v-2h4v2h2c0.55 0 1 0.45 1 1zm-2 1h-6v2h6z" />
 </g>
 <g id="Battery 5" transform="translate(-302,-212)">
  <path id="Icon_27" d="m319 217v16c0 0.55-0.45 1-1 1h-8c-0.55 0-1-0.45-1-1v-16c0-0.55 0.45-1 1-1h2v-2h4v2h2c0.55 0 1 0.45 1 1zm-2 1h-6v4h6z" />
 </g>
 <g id="Battery 4" transform="translate(-334,-212)">
  <path id="Icon_28" d="m351 217v16c0 0.55-0.45 1-1 1h-8c-0.55 0-1-0.45-1-1v-16c0-0.55 0.45-1 1-1h2v-2h4v2h2c0.55 0 1 0.45 1 1zm-2 1h-6v6h6z" />
 </g>
 <g id="Battery 3" transform="translate(-366,-212)">
  <path id="Icon_29" d="m383 217v16c0 0.55-0.45 1-1 1h-8c-0.55 0-1-0.45-1-1v-16c0-0.55 0.45-1 1-1h2v-2h4v2h2c0.55 0 1 0.45 1 1zm-2 1h-6v8h6z" />
 </g>
 <g id="Battery 2" transform="translate(-398,-212)">
  <path id="Icon_30" d="m415 217v16c0 0.55-0.45 1-1 1h-8c-0.55 0-1-0.45-1-1v-16c0-0.55 0.45-1 1-1h2v-2h4v2h2c0.55 0 1 0.45 1 1zm-2 1h-6v10h6z" />
 </g>
 <g id="Battery 1" transform="translate(-430,-212)">
  <path id="Icon_31" d="m447 217v16c0 0.55-0.45 1-1 1h-8c-0.55 0-1-0.45-1-1v-16c0-0.55 0.45-1 1-1h2v-2h4v2h2c0.55 0 1 0.45 1 1zm-2 1h-6v12h6z" />
 </g>
 <g id="Battery 0" transform="translate(-462,-212)">
  <path id="Icon_32" d="m479 217v16c0 0.55-0.45 1-1 1h-8c-0.55 0-1-0.45-1-1v-16c0-0.55 0.45-1 1-1h2v-2h4v2h2c0.55 0 1 0.45 1 1zm-2 1h-6v14h6z" />
 </g>
 <g id="Business" transform="translate(-494,-212)">
  <path id="Icon_33" d="m506 219v-4h-10v18h20v-14zm-6 12h-2v-2h2zm0-4h-2v-2h2zm0-4h-2v-2h2zm0-4h-2v-2h2zm4 12h-2v-2h2zm0-4h-2v-2h2zm0-4h-2v-2h2zm0-4h-2v-2h2zm10 12h-8v-2h2v-2h-2v-2h2v-2h-2v-2h8zm-2-8h-2v2h2zm0 4h-2v2h2z" />
 </g>
 <g id="Check" transform="translate(-46.2,-328.3)">
  <path id="Icon_34" d="m55 344.2-4.2-4.2-1.4 1.4 5.6 5.6 12-12-1.4-1.4z" />
 </g>
 <g id="Check Box Indeterminate" transform="translate(-78,-328)">
  <path id="Icon_35" d="m85 341h10v-2h-10zm-2 8c-0.55 0-1.021-0.196-1.413-0.587-0.3913-0.392-0.587-0.863-0.587-1.413v-14c0-0.55 0.1957-1.021 0.587-1.413 0.392-0.391 0.863-0.587 1.413-0.587h14c0.55 0 1.021 0.196 1.413 0.587 0.3913 0.392 0.587 0.863 0.587 1.413v14c0 0.55-0.1957 1.021-0.587 1.413-0.392 0.391-0.863 0.587-1.413 0.587z" />
 </g>
 <g id="Check Box Outline Blank" transform="translate(-110,-328)">
  <path id="Icon_36" d="m115 349c-0.55 0-1.021-0.196-1.413-0.587-0.391-0.392-0.587-0.863-0.587-1.413v-14c0-0.55 0.196-1.021 0.587-1.413 0.392-0.391 0.863-0.587 1.413-0.587h14c0.55 0 1.021 0.196 1.413 0.587 0.391 0.392 0.587 0.863 0.587 1.413v14c0 0.55-0.196 1.021-0.587 1.413-0.392 0.391-0.863 0.587-1.413 0.587zm0-2h14v-14h-14z" />
 </g>
 <g id="Check Box Filled" transform="translate(-142,-328)">
  <path id="Icon_37" d="m147 349c-0.55 0-1.021-0.196-1.413-0.587-0.391-0.392-0.587-0.863-0.587-1.413v-14c0-0.55 0.196-1.021 0.587-1.413 0.392-0.391 0.863-0.587 1.413-0.587h14c0.55 0 1.021 0.196 1.413 0.587 0.391 0.392 0.587 0.863 0.587 1.413v14c0 0.55-0.196 1.021-0.587 1.413-0.392 0.391-0.863 0.587-1.413 0.587zm5.6-4.8 7.05-7.05-1.4-1.4-5.65 5.65-2.85-2.85-1.4 1.4z" />
 </g>
 <g id="Check Box" transform="translate(-174,-328)">
  <path id="Icon_38" d="m184.6 344.2 7.05-7.05-1.4-1.4-5.65 5.65-2.85-2.85-1.4 1.4zm-5.6 4.8c-0.55 0-1.021-0.196-1.413-0.587-0.391-0.392-0.587-0.863-0.587-1.413v-14c0-0.55 0.196-1.021 0.587-1.413 0.392-0.391 0.863-0.587 1.413-0.587h14c0.55 0 1.021 0.196 1.413 0.587 0.391 0.392 0.587 0.863 0.587 1.413v14c0 0.55-0.196 1.021-0.587 1.413-0.392 0.391-0.863 0.587-1.413 0.587zm0-2h14v-14h-14zm0-14v14z" />
 </g>
 <g id="Chat Bubble Outline" transform="translate(-206,-328)">
  <path id="Icon_39" d="m208 350v-18c0-0.55 0.196-1.021 0.588-1.413 0.391-0.391 0.862-0.587 1.412-0.587h16c0.55 0 1.021 0.196 1.413 0.587 0.391 0.392 0.587 0.863 0.587 1.413v12c0 0.55-0.196 1.021-0.587 1.413-0.392 0.391-0.863 0.587-1.413 0.587h-14zm2-4.825 1.175-1.175h14.825v-12h-16zm0-13.175v13.175z" />
 </g>
 <g id="Chat Bubble Filled" transform="translate(-238,-328)">
  <path id="Icon_40" d="m258 330h-16c-1.1 0-2 0.9-2 2v18l4-4h14c1.1 0 2-0.9 2-2v-12c0-1.1-0.9-2-2-2z" />
 </g>
 <g id="Calendar" transform="translate(-270,-328)">
  <path id="Icon_41" d="m290 331h-1v-2h-2v2h-10v-2h-2v2h-1c-1.1 0-2 0.9-2 2v16c0 1.1 0.9 2 2 2h16c1.1 0 2-0.9 2-2v-16c0-1.1-0.9-2-2-2zm0 18h-16v-11h16zm0-13h-16v-3h16z" />
 </g>
 <g id="Circle" transform="translate(-302,-328)">
  <path id="Icon_42" d="m314 331c-4.971 0-9 4.029-9 9s4.029 9 9 9 9-4.029 9-9-4.029-9-9-9zm-11 9c0-6.075 4.925-11 11-11s11 4.925 11 11-4.925 11-11 11-11-4.925-11-11z" clip-rule="evenodd"  fill-rule="evenodd"/>
 </g>
 <g id="Chevron Right" transform="translate(-333.7,-328)">
  <path id="Icon_43" d="m343.4 346-1.4-1.4 4.6-4.6-4.6-4.6 1.4-1.4 6 6z" />
 </g>
 <g id="Chevron Left" transform="translate(-365.7 -328)">
  <path id="Icon_44" d="m381.41 335.41-1.41-1.41-6 6 6 6 1.41-1.41-4.58-4.59z" />
 </g>
 <g id="Chevron Up" transform="translate(-398 -327.68)">
  <path id="Icon_45" d="m405.4 343.38-1.4-1.4 6-6 6 6-1.4 1.4-4.6-4.6z" />
 </g>
 <g id="Chevron Down" transform="translate(-430 -327.68)">
  <path id="Icon_46" d="m442 343.38-6-6 1.4-1.4 4.6 4.6 4.6-4.6 1.4 1.4z" />
 </g>
 <g id="Close" transform="translate(-462,-328)">
  <path id="Icon_47" d="m468.4 347-1.4-1.4 5.6-5.6-5.6-5.6 1.4-1.4 5.6 5.6 5.6-5.6 1.4 1.4-5.6 5.6 5.6 5.6-1.4 1.4-5.6-5.6z" />
 </g>
 <g id="Clock" transform="translate(-494,-328)">
  <path id="Icon_48" d="m505.99 330c-5.52 0-9.99 4.48-9.99 10s4.47 10 9.99 10c5.53 0 10.01-4.48 10.01-10s-4.48-10-10.01-10zm0.01 18c-4.42 0-8-3.58-8-8s3.58-8 8-8 8 3.58 8 8-3.58 8-8 8zm0.5-13h-1.5v6l5.25 3.15 0.75-1.23-4.5-2.67z" />
 </g>
 <g id="Close Circle" transform="translate(-526,-328)">
  <path id="Icon_49" d="m538 330c-5.53 0-10 4.47-10 10s4.47 10 10 10 10-4.47 10-10-4.47-10-10-10zm0 18c-4.41 0-8-3.59-8-8s3.59-8 8-8 8 3.59 8 8-3.59 8-8 8zm3.59-13-3.59 3.59-3.59-3.59-1.41 1.41 3.59 3.59-3.59 3.59 1.41 1.41 3.59-3.59 3.59 3.59 1.41-1.41-3.59-3.59 3.59-3.59z" />
 </g>
 <g id="Change Circle" transform="translate(-558,-328)">
  <path id="Icon_50" d="m574.18 342.75c0.283-0.417 0.492-0.858 0.625-1.325s0.2-0.942 0.2-1.425c0-0.633-0.121-1.263-0.362-1.888-0.242-0.625-0.605-1.179-1.088-1.662s-1.029-0.842-1.637-1.075c-0.609-0.233-1.23-0.35-1.863-0.35l0.95-0.975-1.05-1.05-2.85 2.825 2.85 2.825 1.05-1.05-1.1-1.1c0.45 0 0.908 0.087 1.375 0.262s0.867 0.43 1.2 0.763 0.588 0.717 0.763 1.15 0.262 0.867 0.262 1.3c0 0.283-0.038 0.567-0.113 0.85s-0.179 0.558-0.312 0.825zm-4.125 4.25 2.85-2.825-2.85-2.825-1.05 1.05 1.075 1.075c-0.467 0.017-0.921-0.058-1.362-0.225-0.442-0.167-0.838-0.425-1.188-0.775-0.333-0.333-0.588-0.717-0.763-1.15s-0.262-0.867-0.262-1.3c0-0.283 0.038-0.567 0.113-0.85s0.179-0.558 0.312-0.825l-1.1-1.1c-0.283 0.417-0.492 0.858-0.625 1.325s-0.2 0.942-0.2 1.425c0 0.633 0.125 1.258 0.375 1.875s0.617 1.167 1.1 1.65 1.025 0.846 1.625 1.088c0.6 0.241 1.217 0.37 1.85 0.387l-0.95 0.95zm-0.05 3c-1.383 0-2.683-0.263-3.9-0.788s-2.275-1.237-3.175-2.137-1.612-1.958-2.137-3.175-0.788-2.517-0.788-3.9 0.263-2.683 0.788-3.9 1.237-2.275 2.137-3.175 1.958-1.613 3.175-2.138 2.517-0.787 3.9-0.787 2.683 0.262 3.9 0.787 2.275 1.238 3.175 2.138 1.612 1.958 2.137 3.175 0.788 2.517 0.788 3.9-0.263 2.683-0.788 3.9-1.237 2.275-2.137 3.175-1.958 1.612-3.175 2.137-2.517 0.788-3.9 0.788zm0-2c2.217 0 4.104-0.779 5.663-2.337 1.558-1.559 2.337-3.446 2.337-5.663s-0.779-4.104-2.337-5.663c-1.559-1.558-3.446-2.337-5.663-2.337s-4.104 0.779-5.662 2.337c-1.559 1.559-2.338 3.446-2.338 5.663s0.779 4.104 2.338 5.663c1.558 1.558 3.445 2.337 5.662 2.337z" />
 </g>
 <g id="Cloud" transform="translate(-590,-328)">
  <path id="Icon_51" d="m596.5 348c-1.517 0-2.812-0.525-3.887-1.575s-1.613-2.333-1.613-3.85c0-1.3 0.392-2.458 1.175-3.475s1.808-1.667 3.075-1.95c0.417-1.533 1.25-2.775 2.5-3.725s2.667-1.425 4.25-1.425c1.95 0 3.604 0.679 4.962 2.037 1.359 1.359 2.038 3.013 2.038 4.963 1.15 0.133 2.104 0.629 2.863 1.487 0.758 0.859 1.137 1.863 1.137 3.013 0 1.25-0.437 2.313-1.312 3.188s-1.938 1.312-3.188 1.312zm0-2h12c0.7 0 1.292-0.242 1.775-0.725s0.725-1.075 0.725-1.775-0.242-1.292-0.725-1.775-1.075-0.725-1.775-0.725h-1.5v-2c0-1.383-0.487-2.563-1.462-3.538s-2.155-1.462-3.538-1.462-2.562 0.487-3.537 1.462-1.463 2.155-1.463 3.538h-0.5c-0.967 0-1.792 0.342-2.475 1.025s-1.025 1.508-1.025 2.475 0.342 1.792 1.025 2.475 1.508 1.025 2.475 1.025z" />
 </g>
 <g id="Check Circle" transform="translate(-622,-328)">
  <path id="Icon_52" d="m634 330c-5.52 0-10 4.48-10 10s4.48 10 10 10 10-4.48 10-10-4.48-10-10-10zm0 18c-4.41 0-8-3.59-8-8s3.59-8 8-8 8 3.59 8 8-3.59 8-8 8zm4.59-12.42-6.59 6.59-2.59-2.58-1.41 1.41 4 4 8-8z" />
 </g>
 <g id="Check Circle Filled" transform="translate(-654,-328)">
  <path id="Icon_53" d="m666 330c-5.52 0-10 4.48-10 10s4.48 10 10 10 10-4.48 10-10-4.48-10-10-10zm-2 15-5-5 1.41-1.41 3.59 3.58 7.59-7.59 1.41 1.42z" />
 </g>
 <g id="Clipboard" transform="translate(-686,-327)">
  <path id="Icon_54" d="m705 330h-4.18c-0.42-1.16-1.52-2-2.82-2s-2.4 0.84-2.82 2h-4.18c-1.1 0-2 0.9-2 2v16c0 1.1 0.9 2 2 2h14c1.1 0 2-0.9 2-2v-16c0-1.1-0.9-2-2-2zm-7 0c0.55 0 1 0.45 1 1s-0.45 1-1 1-1-0.45-1-1 0.45-1 1-1zm7 18h-14v-16h2v3h10v-3h2z" />
 </g>
 <g id="Car" transform="translate(-718,-329)">
  <g id="Icon_55" >
   <path id="path20" d="m725.5 344c0.828 0 1.5-0.672 1.5-1.5s-0.672-1.5-1.5-1.5-1.5 0.672-1.5 1.5 0.672 1.5 1.5 1.5z"/>
   <path id="path21" d="m736 342.5c0 0.828-0.672 1.5-1.5 1.5s-1.5-0.672-1.5-1.5 0.672-1.5 1.5-1.5 1.5 0.672 1.5 1.5z"/>
   <path id="path22" d="m736.92 334.01c-0.2-0.59-0.76-1.01-1.42-1.01h-11c-0.66 0-1.21 0.42-1.42 1.01l-2.08 5.99v8c0 0.55 0.45 1 1 1h1c0.55 0 1-0.45 1-1v-1h12v1c0 0.55 0.45 1 1 1h1c0.55 0 1-0.45 1-1v-8zm-12.07 0.99h10.29l1.04 3h-12.37zm12.15 10h-14v-5h14z" clip-rule="evenodd" fill-rule="evenodd"/>
  </g>
 </g>
 <g id="Car Filled" transform="translate(-750,-329)">
  <path id="Icon_56" d="m768.92 334.01c-0.2-0.59-0.76-1.01-1.42-1.01h-11c-0.66 0-1.21 0.42-1.42 1.01l-2.08 5.99v8c0 0.55 0.45 1 1 1h1c0.55 0 1-0.45 1-1v-1h12v1c0 0.55 0.45 1 1 1h1c0.55 0 1-0.45 1-1v-8zm-12.42 9.99c-0.83 0-1.5-0.67-1.5-1.5s0.67-1.5 1.5-1.5 1.5 0.67 1.5 1.5-0.67 1.5-1.5 1.5zm11 0c-0.83 0-1.5-0.67-1.5-1.5s0.67-1.5 1.5-1.5 1.5 0.67 1.5 1.5-0.67 1.5-1.5 1.5zm-12.5-5 1.5-4.5h11l1.5 4.5z" />
 </g>
 <g id="Car Warning" transform="translate(-783,-327)">
  <path id="Icon_57" d="m805 334.5c0 3.038-2.462 5.5-5.5 5.5s-5.5-2.462-5.5-5.5 2.462-5.5 5.5-5.5 5.5 2.462 5.5 5.5zm-6-3.5v5h1v-5zm0.5 6c-0.276 0-0.5 0.224-0.5 0.5s0.224 0.5 0.5 0.5 0.5-0.224 0.5-0.5-0.224-0.5-0.5-0.5zm-11-4h3.65c-0.098 0.485-0.15 0.986-0.15 1.5h-3.5l-1.5 4.5h6.499c1.109 1.476 2.749 2.529 4.636 2.876-0.087 0.19-0.135 0.401-0.135 0.624 0 0.83 0.67 1.5 1.5 1.5s1.5-0.67 1.5-1.5c0-0.223-0.048-0.434-0.135-0.624 0.758-0.139 1.475-0.392 2.135-0.741v6.865c0 0.55-0.45 1-1 1h-1c-0.55 0-1-0.45-1-1v-1h-12v1c0 0.55-0.45 1-1 1h-1c-0.55 0-1-0.45-1-1v-8l2.08-5.99c0.21-0.59 0.76-1.01 1.42-1.01zm-1.5 9.5c0 0.83 0.67 1.5 1.5 1.5s1.5-0.67 1.5-1.5-0.67-1.5-1.5-1.5-1.5 0.67-1.5 1.5z" clip-rule="evenodd"  fill-rule="evenodd"/>
 </g>
 <g id="Car Connection" transform="translate(-815,-327)">
  <g id="Icon_58" >
   <path id="path23" d="m829 334h-2c-1.1 0-2-0.9-2-2s0.9-2 2-2h2v-2h-2c-2.21 0-4 1.79-4 4s1.79 4 4 4h2z"/>
   <path id="path24" d="m833 328h-2v2h2c1.1 0 2 0.9 2 2s-0.9 2-2 2h-2v2h2c2.21 0 4-1.79 4-4s-1.79-4-4-4z"/>
   <path id="path25" d="m833 333v-2h-6v2z"/>
   <path id="path26" d="m821.5 345c0.828 0 1.5-0.672 1.5-1.5s-0.672-1.5-1.5-1.5-1.5 0.672-1.5 1.5 0.672 1.5 1.5 1.5z"/>
   <path id="path27" d="m832 343.5c0 0.828-0.672 1.5-1.5 1.5s-1.5-0.672-1.5-1.5 0.672-1.5 1.5-1.5 1.5 0.672 1.5 1.5z"/>
   <path id="path28" d="m820.5 334h0.841c0.264 0.745 0.67 1.423 1.187 2h-1.678l-1.08 3.11h12.45l-0.385-1.11h1.165c0.317 0 0.629-0.025 0.933-0.072l1.067 3.072v8c0 0.55-0.45 1-1 1h-1c-0.55 0-1-0.45-1-1v-1h-12v1c0 0.55-0.45 1-1 1h-1c-0.55 0-1-0.45-1-1v-8l2.08-5.99c0.21-0.59 0.76-1.01 1.42-1.01zm12.5 12h-14v-5h14z" clip-rule="evenodd" fill-rule="evenodd"/>
  </g>
 </g>
 <g id="Car Connection Filled" transform="translate(-847,-327)">
  <g id="Icon_59" >
   <path id="path29" d="m859 334h2v2h-2c-2.21 0-4-1.79-4-4s1.79-4 4-4h2v2h-2c-1.1 0-2 0.9-2 2s0.9 2 2 2z"/>
   <path id="path30" d="m863 328h2c2.21 0 4 1.79 4 4s-1.79 4-4 4h-2v-2h2c1.1 0 2-0.9 2-2s-0.9-2-2-2h-2z"/>
   <path id="path31" d="m865 333v-2h-6v2z"/>
   <path id="path32" d="m853.34 334h-0.841c-0.66 0-1.21 0.42-1.42 1.01l-2.08 5.99v8c0 0.55 0.45 1 1 1h1c0.55 0 1-0.45 1-1v-1h12v1c0 0.55 0.45 1 1 1h1c0.55 0 1-0.45 1-1v-8l-1.067-3.072c-0.304 0.047-0.616 0.072-0.933 0.072h-1.165l0.385 1.11h-12.45l1.08-3.11h1.678c-0.517-0.577-0.923-1.255-1.187-2zm1.659 9.5c0 0.828-0.672 1.5-1.5 1.5s-1.5-0.672-1.5-1.5 0.672-1.5 1.5-1.5 1.5 0.672 1.5 1.5zm7.5 1.5c0.828 0 1.5-0.672 1.5-1.5s-0.672-1.5-1.5-1.5-1.5 0.672-1.5 1.5 0.672 1.5 1.5 1.5z" clip-rule="evenodd" fill-rule="evenodd"/>
  </g>
 </g>
 <g id="Call" transform="translate(-878,-328)">
  <path id="Icon_60" d="m884.54 333c0.06 0.89 0.21 1.76 0.45 2.59l-1.2 1.2c-0.41-1.2-0.67-2.47-0.76-3.79zm9.86 12.02c0.85 0.24 1.72 0.39 2.6 0.45v1.49c-1.32-0.09-2.59-0.35-3.8-0.75zm-8.9-14.02h-3.5c-0.55 0-1 0.45-1 1 0 9.39 7.61 17 17 17 0.55 0 1-0.45 1-1v-3.49c0-0.55-0.45-1-1-1-1.24 0-2.45-0.2-3.57-0.57-0.1-0.04-0.21-0.05-0.31-0.05-0.26 0-0.51 0.1-0.71 0.29l-2.2 2.2c-2.83-1.45-5.15-3.76-6.59-6.59l2.2-2.2c0.28-0.28 0.36-0.67 0.25-1.02-0.37-1.12-0.57-2.32-0.57-3.57 0-0.55-0.45-1-1-1z" />
 </g>
 <g id="Call Manage" transform="translate(-910.33,-327.5)">
  <g id="Icon_61" clip-rule="evenodd"  fill-rule="evenodd">
   <path id="path33" d="m930.52 334.4c0.028 0.201 0.056 0.393 0.056 0.604s-0.028 0.403-0.056 0.604l-4e-3 0.026 1.14 1.01-1 1.73-1.45-0.49c-0.32 0.27-0.68 0.48-1.08 0.63l-0.3 1.49h-2l-0.3-1.49c-0.4-0.15-0.76-0.36-1.08-0.63l-1.45 0.49-1-1.73 1.14-1.01c-1e-3 -9e-3 -3e-3 -0.018-4e-3 -0.026-0.028-0.201-0.056-0.393-0.056-0.604s0.028-0.403 0.056-0.604l4e-3 -0.026-1.14-1.01 1-1.73 1.45 0.49c0.32-0.27 0.68-0.48 1.08-0.63l0.3-1.49h2l0.3 1.49c0.4 0.15 0.76 0.36 1.08 0.63l1.45-0.49 1 1.73-1.14 1.01zm-5.694 0.604c0 1.1 0.9 2 2 2s2-0.9 2-2-0.9-2-2-2-2 0.9-2 2z"/>
   <path id="path34" d="m914 331h3.5c0.55 0 1 0.45 1 1 0 1.25 0.2 2.45 0.57 3.57 0.11 0.35 0.03 0.74-0.25 1.02l-2.2 2.2c1.44 2.83 3.76 5.14 6.59 6.59l2.2-2.2c0.2-0.19 0.45-0.29 0.71-0.29 0.1 0 0.21 0.01 0.31 0.05 1.12 0.37 2.33 0.57 3.57 0.57 0.55 0 1 0.45 1 1v3.49c0 0.55-0.45 1-1 1-9.39 0-17-7.61-17-17 0-0.55 0.45-1 1-1zm2.99 4.59c-0.24-0.83-0.39-1.7-0.45-2.59h-1.51c0.09 1.32 0.35 2.59 0.76 3.79zm12.01 9.88c-0.88-0.06-1.75-0.21-2.6-0.45l-1.2 1.19c1.21 0.4 2.48 0.66 3.8 0.75z"/>
  </g>
 </g>
 <g id="Chart" transform="translate(-942,-328)">
  <path id="Icon_62" d="m945.5 346.49 6-6.01 4 4 8.5-9.56-1.41-1.41-7.09 7.97-4-4-7.5 7.51z" />
 </g>
 <g id="Code" transform="translate(-974,-328)">
  <path id="Icon_63" d="m983.4 344.6-4.6-4.6 4.6-4.6-1.4-1.4-6 6 6 6zm5.2 0 4.6-4.6-4.6-4.6 1.4-1.4 6 6-6 6z" />
 </g>
 <g id="Camera" transform="translate(-1006,-327)">
  <path id="Icon_64" d="m1020.1 332 1.83 2h4.05v12h-16v-12h4.05l1.83-2zm0.88-2h-6l-1.83 2h-3.17c-1.1 0-2 0.9-2 2v12c0 1.1 0.9 2 2 2h16c1.1 0 2-0.9 2-2v-12c0-1.1-0.9-2-2-2h-3.17zm-3 7c1.65 0 3 1.35 3 3s-1.35 3-3 3-3-1.35-3-3 1.35-3 3-3zm0-2c-2.76 0-5 2.24-5 5s2.24 5 5 5 5-2.24 5-5-2.24-5-5-5z" />
 </g>
 <g id="Camera Filled" transform="translate(-1038,-327)">
  <path id="Icon_65" d="m1045.2 332 1.83-2h6l1.83 2h3.17c1.1 0 2 0.9 2 2v12c0 1.1-0.9 2-2 2h-16c-1.1 0-2-0.9-2-2v-12c0-1.1 0.9-2 2-2zm-0.17 8c0 2.76 2.24 5 5 5s5-2.24 5-5-2.24-5-5-5-5 2.24-5 5zm8.2 0c0 1.767-1.43 3.2-3.2 3.2s-3.2-1.433-3.2-3.2 1.43-3.2 3.2-3.2 3.2 1.433 3.2 3.2z" clip-rule="evenodd"  fill-rule="evenodd"/>
 </g>
 <g id="Car Electro" transform="translate(-1070,-328)">
  <path id="Icon_66" d="m1092 332.69v-1.689h-6.18c-0.88 0-1.42 0.37-1.63 1.109l-2.33 6.757v1.596h-1.53l-1.94-1.94h-3.06c-0.27 0-0.53 0.115-0.76 0.345s-0.34 0.484-0.34 0.762h-2.23v1.12h2.23v2.214h-2.23v1.12h2.23c0 0.278 0.11 0.532 0.34 0.762s0.49 0.345 0.76 0.345h3.06l1.94-1.94h1.54v4.644c0 0.317 0.1 0.581 0.31 0.792 0.21 0.208 0.48 0.314 0.79 0.314h1.17c0.31 0 0.58-0.106 0.79-0.317s0.31-0.475 0.31-0.792v-1.161h6.76v-8.973h-7.86l1.68-5.068zm-7.36 7.786c0.33-0.334 0.73-0.502 1.18-0.502 0.46 0 0.86 0.167 1.19 0.502 0.34 0.334 0.5 0.73 0.5 1.188s-0.16 0.853-0.5 1.188c-0.33 0.334-0.73 0.501-1.19 0.501-0.45 0-0.85-0.167-1.18-0.501-0.34-0.334-0.5-0.73-0.5-1.188s0.16-0.854 0.5-1.188z" />
 </g>
 <g id="Car Selection" transform="translate(-1102.5 -329)" clip-path="url(#clip2_27_68)">
  <g id="Icon_67" clip-rule="evenodd"  fill-rule="evenodd">
   <path id="path35" d="m1117.5 332c0.66 0 1.22 0.42 1.42 1.01l0.72 2.076c-0.37-0.057-0.75-0.086-1.14-0.086-0.34 0-0.67 0.022-0.99 0.065l-0.37-1.065h-10.29l-1.04 3h7.59c-1.48 1.37-2.4 3.327-2.4 5.5 0 1.264 0.31 2.455 0.87 3.5h-5.87v1c0 0.55-0.45 1-1 1h-1c-0.55 0-1-0.45-1-1v-8l2.08-5.99c0.21-0.59 0.76-1.01 1.42-1.01zm-10 11c0.83 0 1.5-0.672 1.5-1.5s-0.67-1.5-1.5-1.5-1.5 0.672-1.5 1.5 0.67 1.5 1.5 1.5z"/>
   <path id="path36" d="m1118.5 348c1.16 0 2.23-0.358 3.12-0.968l2.97 2.972 1.41-1.415-2.97-2.971c0.61-0.887 0.97-1.961 0.97-3.118 0-3.038-2.46-5.5-5.5-5.5s-5.5 2.462-5.5 5.5 2.46 5.5 5.5 5.5zm0-2c1.93 0 3.5-1.567 3.5-3.5s-1.57-3.5-3.5-3.5-3.5 1.567-3.5 3.5 1.57 3.5 3.5 3.5z"/>
  </g>
 </g>
 <g id="Coding" transform="translate(-1134,-328)">
  <path id="Icon_68" d="m1154 330h-16c-1.1 0-2 0.9-2 2v16c0 1.1 0.9 2 2 2h16c1.1 0 2-0.9 2-2v-16c0-1.1-0.9-2-2-2zm0 18h-16v-16h16zm-3.1-8.9c1.1 0 1.9-1.1 1.9-2.5s-0.8-2.5-1.9-2.5-1.9 1.1-1.9 2.5 0.9 2.5 1.9 2.5zm0-4c0.5 0 0.9 0.7 0.9 1.5s-0.4 1.5-0.9 1.5-0.9-0.7-0.9-1.5 0.4-1.5 0.9-1.5zm-9.8 10.8c1.1 0 1.9-1.1 1.9-2.5s-0.8-2.5-1.9-2.5-1.9 1.1-1.9 2.5 0.8 2.5 1.9 2.5zm0-4c0.5 0 0.9 0.7 0.9 1.5s-0.4 1.5-0.9 1.5-0.9-0.7-0.9-1.5 0.4-1.5 0.9-1.5zm3-2.8c1.1 0 1.9-1.1 1.9-2.5s-0.8-2.5-1.9-2.5-1.9 1.1-1.9 2.5 0.8 2.5 1.9 2.5zm0-4c0.5 0 0.9 0.7 0.9 1.5s-0.4 1.5-0.9 1.5-0.9-0.7-0.9-1.5 0.4-1.5 0.9-1.5zm0.6 5.9-1 0.3c-0.3 0.1-0.4 0.4-0.3 0.6 0.1 0.3 0.4 0.4 0.6 0.3l0.3-0.1v3.2c0 0.3 0.2 0.5 0.5 0.5s0.5-0.2 0.5-0.5v-3.9c0-0.2-0.1-0.3-0.2-0.4s-0.3-0.1-0.4 0zm3 0-1 0.3c-0.3 0.1-0.4 0.4-0.3 0.6 0.1 0.3 0.4 0.4 0.6 0.3l0.3-0.1v3.2c0 0.3 0.2 0.5 0.5 0.5s0.5-0.2 0.5-0.5v-3.9c0-0.2-0.1-0.3-0.2-0.4 0-0.1-0.2-0.1-0.4 0zm-7.9-5.6 0.3-0.1v3.2c0 0.3 0.2 0.5 0.5 0.5s0.5-0.2 0.5-0.5v-3.9c0-0.2-0.1-0.3-0.2-0.4s-0.3-0.1-0.4 0l-1 0.3c-0.3 0.1-0.4 0.4-0.3 0.6 0.1 0.3 0.4 0.4 0.6 0.3zm7.3 0 0.3-0.1v3.2c0 0.3 0.2 0.5 0.5 0.5s0.5-0.2 0.5-0.5v-3.9c0-0.2-0.1-0.3-0.2-0.4s-0.3-0.1-0.5-0.1l-1 0.3c-0.3 0.1-0.4 0.4-0.3 0.6 0.1 0.4 0.4 0.5 0.7 0.4zm3.8 10.5c1.1 0 1.9-1.1 1.9-2.5s-0.8-2.5-1.9-2.5-1.9 1.1-1.9 2.5 0.9 2.5 1.9 2.5zm0-4c0.5 0 0.9 0.7 0.9 1.5s-0.4 1.5-0.9 1.5-0.9-0.7-0.9-1.5 0.4-1.5 0.9-1.5z" />
 </g>
 <g id="Delete" transform="translate(-46,-444)">
  <path id="Icon_69" d="m53 465c-0.55 0-1.0207-0.196-1.412-0.587-0.392-0.392-0.588-0.863-0.588-1.413v-13h-1v-2h5v-1h6v1h5v2h-1v13c0 0.55-0.1957 1.021-0.587 1.413-0.392 0.391-0.863 0.587-1.413 0.587zm10-15h-10v13h10zm-8 11h2v-9h-2zm4 0h2v-9h-2zm-6-11v13z" />
 </g>
 <g id="Directions Car" transform="translate(-78,-443)">
  <g id="Icon_70" >
   <path id="path39" d="m85.5 458c0.8284 0 1.5-0.672 1.5-1.5s-0.6716-1.5-1.5-1.5-1.5 0.672-1.5 1.5 0.6716 1.5 1.5 1.5z"/>
   <path id="path40" d="m96 456.5c0 0.828-0.6716 1.5-1.5 1.5s-1.5-0.672-1.5-1.5 0.6716-1.5 1.5-1.5 1.5 0.672 1.5 1.5z"/>
   <path id="path41" d="m96.92 448.01c-0.2-0.59-0.76-1.01-1.42-1.01h-11c-0.66 0-1.21 0.42-1.42 1.01l-2.08 5.99v8c0 0.55 0.45 1 1 1h1c0.55 0 1-0.45 1-1v-1h12v1c0 0.55 0.45 1 1 1h1c0.55 0 1-0.45 1-1v-8zm-12.07 0.99h10.29l1.08 3.11h-12.45zm12.15 10h-14v-5h14z" clip-rule="evenodd" fill-rule="evenodd"/>
  </g>
 </g>
 <g id="Discount" transform="translate(-110,-444)">
  <path id="Icon_71" d="m117.5 448c-1.93 0-3.5 1.57-3.5 3.5s1.57 3.5 3.5 3.5 3.5-1.57 3.5-3.5-1.57-3.5-3.5-3.5zm0 5c-0.83 0-1.5-0.67-1.5-1.5s0.67-1.5 1.5-1.5 1.5 0.67 1.5 1.5-0.67 1.5-1.5 1.5zm9 4c-1.93 0-3.5 1.57-3.5 3.5s1.57 3.5 3.5 3.5 3.5-1.57 3.5-3.5-1.57-3.5-3.5-3.5zm0 5c-0.83 0-1.5-0.67-1.5-1.5s0.67-1.5 1.5-1.5 1.5 0.67 1.5 1.5-0.67 1.5-1.5 1.5zm-11.09 2-1.41-1.41 14.59-14.59 1.41 1.41z" />
 </g>
 <g id="Download" transform="translate(-142,-443.5)">
  <path id="Icon_72" d="m161 453h-4v-6h-6v6h-4l7 7zm-8 2v-6h2v6h1.17l-2.17 2.17-2.17-2.17zm-6 7h14v2h-14z" />
 </g>
 <g id="Dataset" transform="translate(-174,-444)">
  <path id="Icon_73" d="m179 465c-0.55 0-1.021-0.196-1.413-0.587-0.391-0.392-0.587-0.863-0.587-1.413v-14c0-0.55 0.196-1.021 0.587-1.413 0.392-0.391 0.863-0.587 1.413-0.587h14c0.55 0 1.021 0.196 1.413 0.587 0.391 0.392 0.587 0.863 0.587 1.413v14c0 0.55-0.196 1.021-0.587 1.413-0.392 0.391-0.863 0.587-1.413 0.587zm0-2h14v-14h-14zm0-14v14zm2 6h4v-4h-4zm6 0h4v-4h-4zm-6 6h4v-4h-4zm6 0h4v-4h-4z" />
 </g>
 <g id="Drag Handle" transform="translate(-206,-444)">
  <path id="Icon_74" d="m226 453h-16v2h16zm-16 6h16v-2h-16z" />
 </g>
 <g id="Drag Handle Locked" transform="translate(-239,-447)">
  <g id="Icon_75" >
   <path id="path42" d="m258 453h-16v2h16z"/>
   <path id="path43" d="m242 459h11.207c0.21-0.742 0.572-1.421 1.05-2h-12.257z"/>
   <path id="path44" d="m259 459v1c0.55 0 1 0.45 1 1v3c0 0.55-0.45 1-1 1h-4c-0.55 0-1-0.45-1-1v-3c0-0.55 0.45-1 1-1v-1c0-1.1 0.9-2 2-2s2 0.9 2 2zm-3 1h2v-1c0-0.55-0.45-1-1-1s-1 0.45-1 1z" clip-rule="evenodd" fill-rule="evenodd"/>
  </g>
 </g>
 <g id="Description" transform="translate(-270,-444)">
  <path id="Icon_76" d="m278 460h8v2h-8zm0-4h8v2h-8zm6-10h-8c-1.1 0-2 0.9-2 2v16c0 1.1 0.89 2 1.99 2h12.01c1.1 0 2-0.9 2-2v-12zm4 18h-12v-16h7v5h5z" />
 </g>
 <g id="Document Error" transform="translate(-302,-444)">
  <g id="Icon_77" >
   <path id="path45" d="m313 452h2v5h-2z"/>
   <path id="path46" d="m314 461c-0.552 0-1-0.448-1-1s0.448-1 1-1 1 0.448 1 1-0.448 1-1 1z"/>
   <path id="path47" d="m308 446h8l6 6v12c0 1.1-0.9 2-2 2h-12.01c-1.1 0-1.99-0.9-1.99-2v-16c0-1.1 0.9-2 2-2zm0 2v16h12v-11h-4.5v-5z" clip-rule="evenodd" fill-rule="evenodd"/>
  </g>
 </g>
 <g id="Dark Mode" transform="translate(-334,-444)">
  <path id="Icon_78" d="m343.37 449.51c-0.18 0.64-0.27 1.31-0.27 1.99 0 4.08 3.32 7.4 7.4 7.4 0.68 0 1.35-0.09 1.99-0.27-1.04 2.56-3.56 4.37-6.49 4.37-3.86 0-7-3.14-7-7 0-2.93 1.81-5.45 4.37-6.49zm2.63-2.51c-4.97 0-9 4.03-9 9s4.03 9 9 9 9-4.03 9-9c0-0.46-0.04-0.92-0.1-1.36-0.98 1.37-2.58 2.26-4.4 2.26-2.98 0-5.4-2.42-5.4-5.4 0-1.81 0.89-3.42 2.26-4.4-0.44-0.06-0.9-0.1-1.36-0.1z" />
 </g>
 <g id="Diagnosis" transform="translate(-366,-444)">
  <path id="Icon_79" d="m373 446h-3c-1.105 0-2 0.895-2 2v5c0 3.526 2.608 6.444 6 6.929v0.071c0 3.314 2.686 6 6 6 2.642 0 4.885-1.707 5.686-4.079 1.326-0.31 2.314-1.5 2.314-2.921 0-1.657-1.343-3-3-3s-3 1.343-3 3c0 1.165 0.664 2.175 1.635 2.672-0.633 1.374-2.023 2.328-3.635 2.328-2.209 0-4-1.791-4-4v-0.071c3.392-0.485 6-3.403 6-6.929v-5c0-1.105-0.895-2-2-2h-3v2h3v5c0 2.761-2.239 5-5 5s-5-2.239-5-5v-5h3zm12 14c0.552 0 1-0.448 1-1s-0.448-1-1-1-1 0.448-1 1 0.448 1 1 1z" clip-rule="evenodd"  fill-rule="evenodd"/>
 </g>
 <g id="Device Connection On" transform="translate(-398.5,-444.5)">
  <g id="Icon_80" >
   <path id="path48" d="m403 448h11c0-1.105-0.895-2-2-2h-9c-1.105 0-2 0.895-2 2v13c0 1.105 0.895 2 2 2h1v-4h-1z"/>
   <path id="path49" d="m408 450c-1.105 0-2 0.895-2 2v13c0 1.105 0.895 2 2 2h10c1.105 0 2-0.895 2-2v-13c0-1.105-0.895-2-2-2zm10 2h-10v11h10zm-5 14c0.552 0 1-0.448 1-1s-0.448-1-1-1-1 0.448-1 1 0.448 1 1 1z" clip-rule="evenodd" fill-rule="evenodd"/>
  </g>
 </g>
 <g id="Device Warning" transform="translate(-431.5,-444.5)">
  <path id="Icon_81" d="m453 450.5c0 3.038-2.462 5.5-5.5 5.5s-5.5-2.462-5.5-5.5 2.462-5.5 5.5-5.5 5.5 2.462 5.5 5.5zm-6-3.5v5h1v-5zm0.5 6c-0.276 0-0.5 0.224-0.5 0.5s0.224 0.5 0.5 0.5 0.5-0.224 0.5-0.5-0.224-0.5-0.5-0.5zm-11.5-4h4.15c-0.098 0.485-0.15 0.986-0.15 1.5 0 0.168 6e-3 0.335 0.016 0.5h-4.016v13h12v-6.016c0.697-0.046 1.368-0.187 2-0.411v8.427c0 1.105-0.895 2-2 2h-12c-1.105 0-2-0.895-2-2v-15c0-1.105 0.895-2 2-2zm6 18c0.552 0 1-0.448 1-1s-0.448-1-1-1-1 0.448-1 1 0.448 1 1 1z" clip-rule="evenodd"  fill-rule="evenodd"/>
 </g>
 <g id="Device Connection Off" transform="translate(-462 -445)">
  <g id="Icon_82" >
   <path id="path50" d="m465.32 446.91 0.012-0.018 1.665 1.665v0.03l3.036 3.036 5e-3 -0.026 1.959 1.96v0.03l9.414 9.414h0.03l2.495 2.494-7e-3 0.024 1.066 1.065-1.415 1.415-1.065-1.066c-0.165 0.044-0.339 0.068-0.518 0.068h-10c-1.105 0-2-0.895-2-2v-10.586l-3-3v7.586h1v4h-1c-1.105 0-2-0.895-2-2v-11.586l-2-2 1.414-1.414zm6.677 9.505v6.586h6.586zm5 9.586c0.552 0 1-0.448 1-1s-0.448-1-1-1-1 0.448-1 1 0.448 1 1 1z" clip-rule="evenodd" fill-rule="evenodd"/>
   <path id="path51" d="m473.26 452-1.897-1.898c0.199-0.066 0.412-0.102 0.633-0.102h10c1.105 0 2 0.895 2 2v10.736l-2-2v-8.736z"/>
   <path id="path52" d="m467.26 446 2 2h8.736c0-1.105-0.895-2-2-2z"/>
  </g>
 </g>
 <g id="Edit" transform="translate(-46.138 -559.88)">
  <path id="Icon_83" d="m51 579h1.4l8.625-8.625-1.4-1.4-8.625 8.625zm14.3-10.075-4.25-4.2 1.4-1.4c0.3833-0.383 0.8543-0.575 1.413-0.575 0.558 0 1.0287 0.192 1.412 0.575l1.4 1.4c0.3833 0.383 0.5833 0.846 0.6 1.388 0.0167 0.541-0.1667 1.004-0.55 1.387zm-1.45 1.475-10.6 10.6h-4.25v-4.25l10.6-10.6zm-3.525-0.725-0.7-0.7 1.4 1.4z" />
 </g>
 <g id="Emoticon" transform="translate(-78,-560)">
  <path id="Icon_84" d="m89.99 562c-5.52 0-9.99 4.48-9.99 10s4.47 10 9.99 10c5.53 0 10.01-4.48 10.01-10s-4.48-10-10.01-10zm0.01 18c-4.42 0-8-3.58-8-8s3.58-8 8-8 8 3.58 8 8-3.58 8-8 8zm3.5-9c0.83 0 1.5-0.67 1.5-1.5s-0.67-1.5-1.5-1.5-1.5 0.67-1.5 1.5 0.67 1.5 1.5 1.5zm-7 0c0.83 0 1.5-0.67 1.5-1.5s-0.67-1.5-1.5-1.5-1.5 0.67-1.5 1.5 0.67 1.5 1.5 1.5zm3.5 6.5c2.33 0 4.31-1.46 5.11-3.5h-10.22c0.8 2.04 2.78 3.5 5.11 3.5z" />
 </g>
 <g id="Error" transform="translate(-110,-560)">
  <path id="Icon_85" d="m122 577c0.283 0 0.521-0.096 0.713-0.288 0.191-0.191 0.287-0.429 0.287-0.712s-0.096-0.521-0.287-0.713c-0.192-0.191-0.43-0.287-0.713-0.287s-0.521 0.096-0.712 0.287c-0.192 0.192-0.288 0.43-0.288 0.713s0.096 0.521 0.288 0.712c0.191 0.192 0.429 0.288 0.712 0.288zm-1-4h2v-6h-2zm1 9c-1.383 0-2.683-0.263-3.9-0.788s-2.275-1.237-3.175-2.137-1.612-1.958-2.137-3.175-0.788-2.517-0.788-3.9 0.263-2.683 0.788-3.9 1.237-2.275 2.137-3.175 1.958-1.613 3.175-2.138 2.517-0.787 3.9-0.787 2.683 0.262 3.9 0.787 2.275 1.238 3.175 2.138 1.612 1.958 2.137 3.175 0.788 2.517 0.788 3.9-0.263 2.683-0.788 3.9-1.237 2.275-2.137 3.175-1.958 1.612-3.175 2.137-2.517 0.788-3.9 0.788zm0-2c2.233 0 4.125-0.775 5.675-2.325s2.325-3.442 2.325-5.675-0.775-4.125-2.325-5.675-3.442-2.325-5.675-2.325-4.125 0.775-5.675 2.325-2.325 3.442-2.325 5.675 0.775 4.125 2.325 5.675 3.442 2.325 5.675 2.325z" />
 </g>
 <g id="Error Filled" transform="translate(-142,-560)">
  <path id="Icon_86" d="m154 577c0.283 0 0.521-0.096 0.713-0.288 0.191-0.191 0.287-0.429 0.287-0.712s-0.096-0.521-0.287-0.713c-0.192-0.191-0.43-0.287-0.713-0.287s-0.521 0.096-0.712 0.287c-0.192 0.192-0.288 0.43-0.288 0.713s0.096 0.521 0.288 0.712c0.191 0.192 0.429 0.288 0.712 0.288zm-1-4h2v-6h-2zm1 9c-1.383 0-2.683-0.263-3.9-0.788s-2.275-1.237-3.175-2.137-1.612-1.958-2.137-3.175-0.788-2.517-0.788-3.9 0.263-2.683 0.788-3.9 1.237-2.275 2.137-3.175 1.958-1.613 3.175-2.138 2.517-0.787 3.9-0.787 2.683 0.262 3.9 0.787 2.275 1.238 3.175 2.138 1.612 1.958 2.137 3.175 0.788 2.517 0.788 3.9-0.263 2.683-0.788 3.9-1.237 2.275-2.137 3.175-1.958 1.612-3.175 2.137-2.517 0.788-3.9 0.788z" />
 </g>
 <g id="Edit Note" transform="translate(-174.06 -561.5)">
  <path id="Icon_87" d="m186 581v-2.125l5.3-5.3 2.125 2.125-5.3 5.3zm-9-5v-2h7v2zm17.125-1-2.125-2.125 0.725-0.725c0.183-0.183 0.417-0.275 0.7-0.275s0.517 0.092 0.7 0.275l0.725 0.725c0.183 0.183 0.275 0.417 0.275 0.7s-0.092 0.517-0.275 0.7zm-17.125-3v-2h11v2zm0-4v-2h11v2z" />
 </g>
 <g id="Electric Vehicle" transform="translate(-206,-560)">
  <path id="Icon_88" d="m212 575v1c0 0.283-0.096 0.521-0.287 0.713-0.192 0.191-0.43 0.287-0.713 0.287h-1c-0.283 0-0.521-0.096-0.713-0.287-0.191-0.192-0.287-0.43-0.287-0.713v-8l2.1-6c0.1-0.3 0.279-0.542 0.538-0.725 0.258-0.183 0.545-0.275 0.862-0.275h11c0.317 0 0.604 0.092 0.863 0.275 0.258 0.183 0.437 0.425 0.537 0.725l2.1 6v8c0 0.283-0.096 0.521-0.288 0.713-0.191 0.191-0.429 0.287-0.712 0.287h-1c-0.283 0-0.521-0.096-0.712-0.287-0.192-0.192-0.288-0.43-0.288-0.713v-1zm-0.2-9h12.4l-1.05-3h-10.3zm1.7 6c0.417 0 0.771-0.146 1.062-0.438 0.292-0.291 0.438-0.645 0.438-1.062s-0.146-0.771-0.438-1.062c-0.291-0.292-0.645-0.438-1.062-0.438s-0.771 0.146-1.062 0.438c-0.292 0.291-0.438 0.645-0.438 1.062s0.146 0.771 0.438 1.062c0.291 0.292 0.645 0.438 1.062 0.438zm9 0c0.417 0 0.771-0.146 1.062-0.438 0.292-0.291 0.438-0.645 0.438-1.062s-0.146-0.771-0.438-1.062c-0.291-0.292-0.645-0.438-1.062-0.438s-0.771 0.146-1.062 0.438c-0.292 0.291-0.438 0.645-0.438 1.062s0.146 0.771 0.438 1.062c0.291 0.292 0.645 0.438 1.062 0.438zm-3.5 11-6-3h4v-2l6 3h-4zm-8-10h14v-5h-14z" />
 </g>
 <g id="Electric Vehicle (Variant 1)" transform="translate(-238,-560)">
  <path id="Icon_89" d="m251.6 576-9.6-4.8h6.4v-3.2l9.6 4.8h-6.4z" />
 </g>
 <g id="Electric Vehicle (Variant 2)" transform="translate(-270,-560.5)">
  <path id="Icon_90" d="m280.75 579v-5.2h-1.75v-7.8h4.833l-1.166 4.55h2.333z" />
 </g>
 <g id="Electric Connector" transform="translate(-302.5 -560)">
  <path id="Icon_91" d="m316.73 569.23c0.278 0 0.532 0.115 0.762 0.345s0.345 0.484 0.345 0.762v3.06l-1.94 1.94v1.666h-2.786v-1.667l-1.94-1.94v-3.06c0-0.278 0.115-0.532 0.345-0.762s0.484-0.345 0.762-0.345v-2.226h1.12v2.227h2.214v-2.227h1.12v2.227z" />
 </g>
 <g id="Error diagnostics" transform="translate(-334,-560)">
  <path id="Icon_92" d="m351.2 568.1h-5.2v1.9h5.2zm-5.2 8.5h5.2v-1.9h-5.2zm8.3-13.7h-3.6v2h2.6v15.1h-14.6v-15.1h2.5v-2h-3.5c-0.6 0-1 0.4-1 1v17.1c0 0.6 0.4 1 1 1h16.6c0.6 0 1-0.4 1-1v-17.1c0-0.6-0.5-1-1-1zm-14.6 6.4 2.5 2.2 3.2-4-1.7-1.2-1.8 2.3-0.9-0.8zm4-4.1h4.6c0.4 0 0.8-0.3 0.8-0.8v-1.6c0-0.4-0.3-0.8-0.8-0.8h-4.6c-0.4 0-0.8 0.3-0.8 0.8v1.7c0 0.4 0.4 0.7 0.8 0.7zm0.3 7.4-1.3 1.3-1.3-1.3-1.5 1.4 1.3 1.3-1.3 1.3 1.4 1.4 1.3-1.3 1.4 1.3 1.4-1.4-1.3-1.3 1.3-1.3z" />
 </g>
 <g id="exclamation" transform="translate(-366,-560)">
  <mask id="mask0_27_68" x="366" y="560" width="24" height="24" maskUnits="userSpaceOnUse">
   <rect id="Bounding box" x="366" y="560" width="24" height="24" />
  </mask>
  <g id="g54" mask="url(#mask0_27_68)">
   <path id="exclamation_2" d="m377 574v-9h2v9zm0 5v-2h2v2z" />
  </g>
 </g>
 <g id="Export notes" transform="translate(-399,-561)">
  <mask id="mask1_27_68" x="398" y="560" width="24" height="24" maskUnits="userSpaceOnUse">
   <rect id="Bounding box_2" x="398" y="560" width="24" height="24" />
  </mask>
  <g id="g55" mask="url(#mask1_27_68)">
   <path id="export_notes" d="m414.2 580.5 2.8-2.8v2.3h1v-4h-4v1h2.3l-2.8 2.8zm-11.2 0.5c-0.55 0-1.021-0.196-1.412-0.587-0.392-0.392-0.588-0.863-0.588-1.413v-14c0-0.55 0.196-1.021 0.588-1.412 0.391-0.392 0.862-0.588 1.412-0.588h14c0.55 0 1.021 0.196 1.413 0.588 0.391 0.391 0.587 0.862 0.587 1.412v6.7c-0.317-0.15-0.642-0.279-0.975-0.388-0.333-0.108-0.675-0.187-1.025-0.237v-6.075h-14v14h6.05c0.05 0.367 0.129 0.717 0.238 1.05 0.108 0.333 0.237 0.65 0.387 0.95zm0-2v-14 6.075-0.075zm2-2h4.075c0.05-0.35 0.129-0.692 0.237-1.025 0.109-0.333 0.23-0.658 0.363-0.975h-4.675zm0-4h6.1c0.533-0.5 1.129-0.917 1.787-1.25 0.659-0.333 1.363-0.558 2.113-0.675v-0.075h-10zm0-4h10v-2h-10zm11 14c-1.383 0-2.562-0.487-3.537-1.462-0.975-0.976-1.463-2.155-1.463-3.538s0.488-2.562 1.463-3.537 2.154-1.463 3.537-1.463 2.562 0.488 3.538 1.463c0.975 0.975 1.462 2.154 1.462 3.537s-0.487 2.562-1.462 3.538c-0.976 0.975-2.155 1.462-3.538 1.462z" />
  </g>
 </g>
 <g id="Event" transform="translate(-430,-560)">
  <path id="Icon_93" d="m449 564h-1v-2h-2v2h-8v-2h-2v2h-1c-1.11 0-1.99 0.9-1.99 2l-0.01 14c0 1.1 0.89 2 2 2h14c1.1 0 2-0.9 2-2v-14c0-1.1-0.9-2-2-2zm0 16h-14v-10h14zm0-12h-14v-2h14zm-7 5h5v5h-5z" />
 </g>
 <g id="Fast Forward" transform="translate(-46.75,-676)">
  <path id="Icon_94" d="m61 685.86 3.03 2.14-3.03 2.14zm-9 0 3.03 2.14-3.03 2.14zm7-3.86v12l8.5-6zm-9 0v12l8.5-6z" />
 </g>
 <g id="Fast Rewind" transform="translate(-77.25,-676)">
  <path id="Icon_95" d="m96 685.86v4.28l-3.03-2.14zm-9 0v4.28l-3.03-2.14zm11-3.86-8.5 6 8.5 6zm-9 0-8.5 6 8.5 6z" />
 </g>
 <g id="Folder Outline" transform="translate(-110,-676)">
  <path id="Icon_96" d="m119.17 682 2 2h8.83v10h-16v-12zm0.83-2h-6c-1.1 0-1.99 0.9-1.99 2l-0.01 12c0 1.1 0.9 2 2 2h16c1.1 0 2-0.9 2-2v-10c0-1.1-0.9-2-2-2h-8z" />
 </g>
 <g id="Folder Filled" transform="translate(-142,-676)">
  <path id="Icon_97" d="m152 680h-6c-1.1 0-1.99 0.9-1.99 2l-0.01 12c0 1.1 0.9 2 2 2h16c1.1 0 2-0.9 2-2v-10c0-1.1-0.9-2-2-2h-8z" />
 </g>
 <g id="Filter List" transform="translate(-174,-676)">
  <path id="Icon_98" d="m184 694v-2h4v2zm-4-5v-2h12v2zm-3-5v-2h18v2z" />
 </g>
 <g id="Filter" transform="translate(-206 -676)">
  <path id="Icon_99" d="m213 682h10l-5.01 6.3zm-2.75-0.39c2.02 2.59 5.75 7.39 5.75 7.39v6c0 0.55 0.45 1 1 1h2c0.55 0 1-0.45 1-1v-6s3.72-4.8 5.74-7.39c0.51-0.66 0.04-1.61-0.79-1.61h-13.91c-0.83 0-1.3 0.95-0.79 1.61z" />
 </g>
 <g id="File Upload" transform="translate(-238,-676)">
  <path id="Icon_100" d="m256 691v3h-12v-3h-2v3c0 1.1 0.9 2 2 2h12c1.1 0 2-0.9 2-2v-3zm-11-6 1.41 1.41 2.59-2.58v8.17h2v-8.17l2.59 2.58 1.41-1.41-5-5z" />
 </g>
 <g id="File Download" transform="translate(-270,-676)">
  <path id="Icon_101" d="m288 691v3h-12v-3h-2v3c0 1.1 0.9 2 2 2h12c1.1 0 2-0.9 2-2v-3zm-1-4-1.41-1.41-2.59 2.58v-8.17h-2v8.17l-2.59-2.58-1.41 1.41 5 5z" />
 </g>
 <g id="Flag" transform="translate(-302.5,-676.5)">
  <path id="Icon_102" d="m307 697v-17h9l0.4 2h5.6v10h-7l-0.4-2h-5.6v7zm9.65-7h3.35v-6h-5.25l-0.4-2h-5.35v6h7.25z" />
 </g>
 <g id="Grid View" transform="translate(-46,-792)">
  <path id="Icon_103" d="m49 795v8h8v-8zm6 6h-4v-4h4zm-6 4v8h8v-8zm6 6h-4v-4h4zm4-16v8h8v-8zm6 6h-4v-4h4zm-6 4v8h8v-8zm6 6h-4v-4h4z" />
 </g>
 <g id="Grid View Filled" transform="translate(-78,-792)">
  <path id="Icon_104" d="m81 795v8h8v-8zm0 10v8h8v-8zm10-10v8h8v-8zm0 10v8h8v-8z" />
 </g>
 <g id="Help Circle" transform="translate(-46,-908)">
  <path id="Icon_105" d="m57 926h2v-2h-2zm1-16c-5.52 0-10 4.48-10 10s4.48 10 10 10 10-4.48 10-10-4.48-10-10-10zm0 18c-4.41 0-8-3.59-8-8s3.59-8 8-8 8 3.59 8 8-3.59 8-8 8zm0-14c-2.21 0-4 1.79-4 4h2c0-1.1 0.9-2 2-2s2 0.9 2 2c0 2-3 1.75-3 5h2c0-2.25 3-2.5 3-5 0-2.21-1.79-4-4-4z" />
 </g>
 <g id="History" transform="translate(-78,-908)">
  <path id="Icon_106" d="m90 929c-2.3 0-4.3042-0.762-6.0125-2.287s-2.6875-3.43-2.9375-5.713h2.05c0.2333 1.733 1.0042 3.167 2.3125 4.3s2.8375 1.7 4.5875 1.7c1.95 0 3.6042-0.679 4.9625-2.037 1.3583-1.359 2.0375-3.013 2.0375-4.963s-0.6792-3.604-2.0375-4.963c-1.3583-1.358-3.0125-2.037-4.9625-2.037-1.15 0-2.225 0.267-3.225 0.8s-1.8417 1.267-2.525 2.2h2.75v2h-6v-6h2v2.35c0.85-1.067 1.8875-1.892 3.1125-2.475s2.5208-0.875 3.8875-0.875c1.25 0 2.4208 0.237 3.5125 0.713 1.0917 0.475 2.0417 1.116 2.85 1.925 0.8083 0.808 1.45 1.758 1.925 2.85 0.475 1.091 0.7125 2.262 0.7125 3.512s-0.2375 2.421-0.7125 3.512c-0.475 1.092-1.1167 2.042-1.925 2.851-0.8083 0.808-1.7583 1.449-2.85 1.925-1.0917 0.475-2.2625 0.712-3.5125 0.712zm2.8-4.8-3.8-3.8v-5.4h2v4.6l3.2 3.2z" />
 </g>
 <g id="High Voltage" transform="translate(-110.57 -908)">
  <path id="Icon_107" d="m127.57 912h-3v-2h-4v2h-3c-0.552 0-1 0.448-1 1v16c0 0.552 0.448 1 1 1h10c0.552 0 1-0.448 1-1v-16c0-0.552-0.447-1-1-1zm-5.431 13.961v-3.882h-2.157l3.1-6.04v3.882h2.077z" />
 </g>
 <g id="Home" transform="translate(-142,-907.5)">
  <path id="Icon_108" d="m154 913.69 5 4.5v7.81h-2v-6h-6v6h-2v-7.81zm0-2.69-10 9h3v8h6v-6h2v6h6v-8h3z" />
 </g>
 <g id="Info Circle" transform="translate(-46,-1024)">
  <path id="Icon_109" d="m57 1031h2v2h-2zm0 4h2v6h-2zm1-9c-5.52 0-10 4.48-10 10s4.48 10 10 10 10-4.48 10-10-4.48-10-10-10zm0 18c-4.41 0-8-3.59-8-8s3.59-8 8-8 8 3.59 8 8-3.59 8-8 8z" />
 </g>
 <g id="Info Circle Filled" transform="translate(-78,-1024)">
  <path id="Icon_110" d="m89 1041h2v-6h-2zm1-8c0.2833 0 0.521-0.1 0.713-0.29 0.1913-0.19 0.287-0.43 0.287-0.71s-0.0957-0.52-0.287-0.71c-0.192-0.19-0.4297-0.29-0.713-0.29s-0.5207 0.1-0.712 0.29c-0.192 0.19-0.288 0.43-0.288 0.71s0.096 0.52 0.288 0.71c0.1913 0.19 0.4287 0.29 0.712 0.29zm0 13c-1.3833 0-2.6833-0.26-3.9-0.79-1.2167-0.52-2.275-1.23-3.175-2.13s-1.6123-1.96-2.137-3.18c-0.5253-1.22-0.788-2.52-0.788-3.9s0.2627-2.68 0.788-3.9c0.5247-1.22 1.237-2.27 2.137-3.17s1.9583-1.62 3.175-2.14c1.2167-0.53 2.5167-0.79 3.9-0.79s2.6833 0.26 3.9 0.79c1.2167 0.52 2.275 1.24 3.175 2.14s1.6123 1.95 2.137 3.17c0.5253 1.22 0.788 2.52 0.788 3.9s-0.2627 2.68-0.788 3.9c-0.5247 1.22-1.237 2.28-2.137 3.18s-1.9583 1.61-3.175 2.13c-1.2167 0.53-2.5167 0.79-3.9 0.79z" />
 </g>
 <g id="Inventory" transform="translate(-109.75,-1024)">
  <g id="Icon_111" >
   <path id="path63" d="m116 1030h-2v14h6v2h-6c-1.1 0-2-0.9-2-2v-14c0-1.1 0.9-2 2-2h4.18c0.42-1.16 1.52-2 2.82-2s2.4 0.84 2.82 2h4.18c1.1 0 2 0.9 2 2v5h-2v-5h-2v3h-10zm6-1c0-0.55-0.45-1-1-1s-1 0.45-1 1 0.45 1 1 1 1-0.45 1-1z" clip-rule="evenodd" fill-rule="evenodd"/>
   <path id="path64" d="m124.51 1042 5.49-5.5 1.5 1.5-6.99 7-4.51-4.5 1.5-1.5z"/>
  </g>
 </g>
 <g id="indicator S" transform="translate(-142,-1024)">
  <path id="Icon_112" d="m154 1038c-0.55 0-1.021-0.2-1.413-0.59-0.391-0.39-0.587-0.86-0.587-1.41s0.196-1.02 0.587-1.41c0.392-0.39 0.863-0.59 1.413-0.59s1.021 0.2 1.413 0.59c0.391 0.39 0.587 0.86 0.587 1.41s-0.196 1.02-0.587 1.41c-0.392 0.39-0.863 0.59-1.413 0.59z" />
 </g>
 <g id="indicator M" transform="translate(-174,-1024)">
  <path id="Icon_113" d="m186 1040c-1.1 0-2.042-0.39-2.825-1.18-0.783-0.78-1.175-1.72-1.175-2.82s0.392-2.04 1.175-2.82c0.783-0.79 1.725-1.18 2.825-1.18s2.042 0.39 2.825 1.18c0.783 0.78 1.175 1.72 1.175 2.82s-0.392 2.04-1.175 2.82c-0.783 0.79-1.725 1.18-2.825 1.18z" />
 </g>
 <g id="Log Out" transform="translate(-46,-1140)">
  <path id="Icon_114" d="m51 1161c-0.55 0-1.021-0.2-1.413-0.59-0.3913-0.39-0.587-0.86-0.587-1.41v-14c0-0.55 0.1957-1.02 0.587-1.41 0.392-0.39 0.863-0.59 1.413-0.59h7v2h-7v14h7v2zm11-4-1.375-1.45 2.55-2.55h-8.175v-2h8.175l-2.55-2.55 1.375-1.45 5 5z" />
 </g>
 <g id="Link Add" transform="translate(-78,-1141.5)">
  <path id="Icon_115" d="m89 1157h-4c-1.3833 0-2.5623-0.49-3.537-1.46-0.9753-0.98-1.463-2.16-1.463-3.54s0.4877-2.56 1.463-3.54c0.9747-0.97 2.1537-1.46 3.537-1.46h4v2h-4c-0.8333 0-1.5417 0.29-2.125 0.88-0.5833 0.58-0.875 1.29-0.875 2.12s0.2917 1.54 0.875 2.12c0.5833 0.59 1.2917 0.88 2.125 0.88h4zm-3-4v-2h8v2zm14-1h-2c0-0.83-0.2917-1.54-0.875-2.12-0.5833-0.59-1.2917-0.88-2.125-0.88h-4v-2h4c1.3833 0 2.5627 0.49 3.538 1.46 0.9747 0.98 1.462 2.16 1.462 3.54zm-5 8v-3h-3v-2h3v-3h2v3h3v2h-3v3z" />
 </g>
 <g id="Link Off" transform="translate(-109.7,-1140.7)">
  <path id="Icon_116" d="m129.25 1156.4-1.5-1.55c0.65-0.18 1.188-0.54 1.613-1.06 0.425-0.53 0.637-1.14 0.637-1.84 0-0.83-0.292-1.54-0.875-2.13-0.583-0.58-1.292-0.87-2.125-0.87h-4v-2h4c1.383 0 2.563 0.48 3.538 1.44s1.462 2.14 1.462 3.56c0 0.95-0.25 1.83-0.75 2.64s-1.167 1.41-2 1.81zm-3.4-3.45-2-2h2.15v2zm3.95 9.6-18.4-18.4 1.4-1.4 18.4 18.4zm-8.8-5.6h-4c-1.383 0-2.562-0.49-3.537-1.46-0.975-0.98-1.463-2.16-1.463-3.54 0-1.17 0.354-2.2 1.062-3.09 0.709-0.89 1.605-1.48 2.688-1.76l1.85 1.85h-0.6c-0.833 0-1.542 0.29-2.125 0.87-0.583 0.59-0.875 1.3-0.875 2.13s0.292 1.54 0.875 2.12c0.583 0.59 1.292 0.88 2.125 0.88h4zm-3-4v-2h1.625l1.975 2z" />
 </g>
 <g id="Link" transform="translate(-142,-1140)">
  <path id="Icon_117" d="m153 1157h-4c-1.383 0-2.562-0.49-3.537-1.46-0.975-0.98-1.463-2.16-1.463-3.54s0.488-2.56 1.463-3.54c0.975-0.97 2.154-1.46 3.537-1.46h4v2h-4c-0.833 0-1.542 0.29-2.125 0.88-0.583 0.58-0.875 1.29-0.875 2.12s0.292 1.54 0.875 2.12c0.583 0.59 1.292 0.88 2.125 0.88h4zm-3-4v-2h8v2zm5 4v-2h4c0.833 0 1.542-0.29 2.125-0.88 0.583-0.58 0.875-1.29 0.875-2.12s-0.292-1.54-0.875-2.12c-0.583-0.59-1.292-0.88-2.125-0.88h-4v-2h4c1.383 0 2.563 0.49 3.538 1.46 0.975 0.98 1.462 2.16 1.462 3.54s-0.487 2.56-1.462 3.54c-0.975 0.97-2.155 1.46-3.538 1.46z" />
 </g>
 <g id="Light Mode" transform="translate(-174,-1140)">
  <path id="Icon_118" d="m186 1149c1.65 0 3 1.35 3 3s-1.35 3-3 3-3-1.35-3-3 1.35-3 3-3zm0-2c-2.76 0-5 2.24-5 5s2.24 5 5 5 5-2.24 5-5-2.24-5-5-5zm-10 6h2c0.55 0 1-0.45 1-1s-0.45-1-1-1h-2c-0.55 0-1 0.45-1 1s0.45 1 1 1zm18 0h2c0.55 0 1-0.45 1-1s-0.45-1-1-1h-2c-0.55 0-1 0.45-1 1s0.45 1 1 1zm-9-11v2c0 0.55 0.45 1 1 1s1-0.45 1-1v-2c0-0.55-0.45-1-1-1s-1 0.45-1 1zm0 18v2c0 0.55 0.45 1 1 1s1-0.45 1-1v-2c0-0.55-0.45-1-1-1s-1 0.45-1 1zm-5.01-15.42c-0.39-0.39-1.03-0.39-1.41 0-0.39 0.39-0.39 1.03 0 1.41l1.06 1.06c0.39 0.39 1.03 0.39 1.41 0s0.39-1.03 0-1.41zm12.37 12.37c-0.39-0.39-1.03-0.39-1.41 0-0.39 0.39-0.39 1.03 0 1.41l1.06 1.06c0.39 0.39 1.03 0.39 1.41 0 0.39-0.39 0.39-1.03 0-1.41zm1.06-10.96c0.39-0.39 0.39-1.03 0-1.41-0.39-0.39-1.03-0.39-1.41 0l-1.06 1.06c-0.39 0.39-0.39 1.03 0 1.41s1.03 0.39 1.41 0zm-12.37 12.37c0.39-0.39 0.39-1.03 0-1.41-0.39-0.39-1.03-0.39-1.41 0l-1.06 1.06c-0.39 0.39-0.39 1.03 0 1.41s1.03 0.39 1.41 0z" />
 </g>
 <g id="Language" transform="translate(-206,-1140)">
  <path id="Icon_119" d="m217.99 1142c-5.52 0-9.99 4.48-9.99 10s4.47 10 9.99 10c5.53 0 10.01-4.48 10.01-10s-4.48-10-10.01-10zm6.93 6h-2.95c-0.32-1.25-0.78-2.45-1.38-3.56 1.84 0.63 3.37 1.91 4.33 3.56zm-6.92-3.96c0.83 1.2 1.48 2.53 1.91 3.96h-3.82c0.43-1.43 1.08-2.76 1.91-3.96zm-7.74 9.96c-0.16-0.64-0.26-1.31-0.26-2s0.1-1.36 0.26-2h3.38c-0.08 0.66-0.14 1.32-0.14 2s0.06 1.34 0.14 2zm0.82 2h2.95c0.32 1.25 0.78 2.45 1.38 3.56-1.84-0.63-3.37-1.9-4.33-3.56zm2.95-8h-2.95c0.96-1.66 2.49-2.93 4.33-3.56-0.6 1.11-1.06 2.31-1.38 3.56zm3.97 11.96c-0.83-1.2-1.48-2.53-1.91-3.96h3.82c-0.43 1.43-1.08 2.76-1.91 3.96zm2.34-5.96h-4.68c-0.09-0.66-0.16-1.32-0.16-2s0.07-1.35 0.16-2h4.68c0.09 0.65 0.16 1.32 0.16 2s-0.07 1.34-0.16 2zm0.25 5.56c0.6-1.11 1.06-2.31 1.38-3.56h2.95c-0.96 1.65-2.49 2.93-4.33 3.56zm1.77-5.56c0.08-0.66 0.14-1.32 0.14-2s-0.06-1.34-0.14-2h3.38c0.16 0.64 0.26 1.31 0.26 2s-0.1 1.36-0.26 2z" />
 </g>
 <g id="List" transform="translate(-238,-1140)">
  <path id="Icon_120" d="m241 1153h2v-2h-2zm0 4h2v-2h-2zm0-8h2v-2h-2zm4 4h14v-2h-14zm0 4h14v-2h-14zm0-10v2h14v-2zm-4 6h2v-2h-2zm0 4h2v-2h-2zm0-8h2v-2h-2zm4 4h14v-2h-14zm0 4h14v-2h-14zm0-10v2h14v-2z" />
 </g>
 <g id="Menu" transform="translate(-46,-1256)">
  <path id="Icon_121" d="m49 1274v-2h18v2zm0-5v-2h18v2zm0-5v-2h18v2z" />
 </g>
 <g id="Menu Close" transform="translate(-78,-1256)">
  <path id="Icon_122" d="m81 1274h13v-2h-13zm0-5h10v-2h-10zm0-7v2h13v-2zm18 9.59-3.58-3.59 3.58-3.59-1.41-1.41-5 5 5 5z" />
 </g>
 <g id="Menu Open" transform="translate(-110,-1256)">
  <g id="Icon_123" >
   <path id="path69" d="m122 1274h-9v-2h9z"/>
   <path id="path70" d="m124 1269h-11v-2h11z"/>
   <path id="path71" d="m113 1264v-2h9v2z"/>
   <path id="path72" d="m124.59 1264.4 3.58 3.59-3.58 3.59 1.41 1.41 5-5-5-5z"/>
  </g>
 </g>
 <g id="Mail" transform="translate(-142,-1256)">
  <path id="Icon_124" d="m164 1262c0-1.1-0.9-2-2-2h-16c-1.1 0-2 0.9-2 2v12c0 1.1 0.9 2 2 2h16c1.1 0 2-0.9 2-2zm-2 0-8 4.99-8-4.99zm0 12h-16v-10l8 5 8-5z" />
 </g>
 <g id="More Vertical" transform="translate(-174,-1256)">
  <path id="Icon_125" d="m186 1264c1.1 0 2-0.9 2-2s-0.9-2-2-2-2 0.9-2 2 0.9 2 2 2zm0 2c-1.1 0-2 0.9-2 2s0.9 2 2 2 2-0.9 2-2-0.9-2-2-2zm-2 8c0-1.1 0.9-2 2-2s2 0.9 2 2-0.9 2-2 2-2-0.9-2-2z" clip-rule="evenodd"  fill-rule="evenodd"/>
 </g>
 <g id="Mic" transform="translate(-206,-1255.5)">
  <path id="Icon_126" d="m221 1267c0 1.66-1.34 3-3 3s-3-1.34-3-3v-6c0-1.66 1.34-3 3-3s3 1.34 3 3zm-3 5c2.76 0 5-2.24 5-5h2c0 3.53-2.61 6.43-6 6.92v3.08h-2v-3.08c-3.39-0.49-6-3.39-6-6.92h2c0 2.76 2.24 5 5 5z" clip-rule="evenodd"  fill-rule="evenodd"/>
 </g>
 <g id="mega macs X" transform="translate(-238.5 -1256)">
  <path id="Icon_127" d="m241.94 1271c-0.335 0.1-0.639-0.1-0.67-0.14l0.266 3.58c0.226 1.09 0.999 1.89 1.585 2.2s1.923 0.36 1.923 0.36l11.437-0.52s0.894-0.15 1.558-0.49c0.664-0.33 1.275-1.39 1.275-1.39 0.69-1.92 0.668-7.86 0.668-7.86s0.049-2.22 0-4.07c-0.049-1.86-1.662-2.54-3.121-2.81-1.459-0.28-14.479-0.84-15.195-0.86-0.632-0.02-0.632 0.7-0.632 0.7v0.29h9e-3c0.051-0.02 0.309-0.1 0.667-0.09 0.647 0.02 13.238 1.32 14.362 1.5s2.25 0.82 2.3 1.8c9e-3 0.19 0.023 0.38 0.037 0.58 0.061 0.86 0.123 1.75-0.159 1.91-0.371 0.22-1.147 0.5-1.811 0.74-0.109 0.03-0.215 0.07-0.316 0.11-0.487 0.17-13.888 4.38-14.183 4.46zm9.591-4.76c-0.103 0.06-8.896 3.26-8.896 3.26-0.734 0.32-1.406 0.29-1.406-0.61l-0.225-6.55c-2e-3 -1.31 1.022-1.16 1.022-1.16s9.432 1.45 9.607 1.48c0.264 0.04 0.432 0.22 0.432 0.46 0 0.13-0.114 2.41-0.126 2.61-0.02 0.3-0.267 0.44-0.384 0.5-9e-3 0-0.017 0.01-0.024 0.01z" clip-rule="evenodd"  fill-rule="evenodd"/>
 </g>
 <g id="Network Check" transform="translate(-46 -1372)">
  <path id="Icon_128" d="m48.1 1383.1-2.1-2.1c1.5333-1.57 3.325-2.79 5.375-3.68 2.05-0.88 4.2583-1.32 6.625-1.32 0.4 0 0.8 0.01 1.2 0.04 0.4 0.02 0.8 0.06 1.2 0.11l-1.5 2.9c-0.2-0.03-0.3623-0.05-0.487-0.05h-0.413c-1.9333 0-3.746 0.36-5.438 1.09-1.6913 0.72-3.1787 1.73-4.462 3.01zm4.25 4.25-2.1-2.15c0.9333-0.93 2.0043-1.67 3.213-2.21 1.208-0.54 2.5203-0.86 3.937-0.94l-1.6 3.25c-0.65 0.2-1.2667 0.47-1.85 0.81s-1.1167 0.76-1.6 1.24zm4.95 4.5c-0.5-0.18-0.8873-0.53-1.162-1.04-0.2753-0.51-0.288-1.01-0.038-1.51l6-12.2c0.0667-0.13 0.1623-0.22 0.287-0.26 0.1253-0.04 0.263-0.04 0.413 0.01 0.1333 0.05 0.2333 0.13 0.3 0.25s0.0833 0.25 0.05 0.4l-3.25 13.15c-0.1333 0.55-0.4667 0.94-1 1.16-0.5333 0.23-1.0667 0.24-1.6 0.04zm6.35-4.5c-0.1-0.1-0.2083-0.2-0.325-0.3s-0.2417-0.2-0.375-0.3l0.8-3.15c0.35 0.25 0.696 0.5 1.038 0.76 0.3413 0.26 0.662 0.54 0.962 0.84zm4.25-4.25c-0.5-0.5-1.0373-0.96-1.612-1.37-0.5753-0.42-1.188-0.8-1.838-1.13l0.7-3c0.9 0.43 1.7583 0.93 2.575 1.5s1.575 1.2 2.275 1.9z" />
 </g>
 <g id="Open in New" transform="translate(-46,-1488)">
  <path id="Icon_129" d="m65 1507h-14v-14h7v-2h-7c-1.11 0-2 0.9-2 2v14c0 1.1 0.89 2 2 2h14c1.1 0 2-0.9 2-2v-7h-2zm-5-16v2h3.59l-9.83 9.83 1.41 1.41 9.83-9.83v3.59h2v-7z" />
 </g>
 <g id="Open in Full" transform="translate(-78,-1488)">
  <path id="Icon_130" d="m99 1499v-8h-8l3.29 3.29-10 10-3.29-3.29v8h8l-3.29-3.29 10-10z" />
 </g>
 <g id="Pause" transform="translate(-46,-1604)">
  <path id="Icon_131" d="m52 1623h4v-14h-4zm8-14v14h4v-14z" />
 </g>
 <g id="Play Arrow" transform="translate(-79.5,-1604)">
  <path id="Icon_132" d="m86 1623v-14l11 7zm2-3.65 5.25-3.35-5.25-3.35z" />
 </g>
 <g id="People" transform="translate(-110,-1604)">
  <path id="Icon_133" d="m119 1617.8c-2.34 0-7 1.17-7 3.5v1.75h14v-1.75c0-2.33-4.66-3.5-7-3.5zm-4.66 3.25c0.84-0.58 2.87-1.25 4.66-1.25s3.82 0.67 4.66 1.25zm4.66-5c1.93 0 3.5-1.57 3.5-3.5s-1.57-3.5-3.5-3.5-3.5 1.57-3.5 3.5 1.57 3.5 3.5 3.5zm0-5c0.83 0 1.5 0.67 1.5 1.5s-0.67 1.5-1.5 1.5-1.5-0.67-1.5-1.5 0.67-1.5 1.5-1.5zm7.04 6.81c1.16 0.84 1.96 1.96 1.96 3.44v1.75h4v-1.75c0-2.02-3.5-3.17-5.96-3.44zm-1.04-1.81c1.93 0 3.5-1.57 3.5-3.5s-1.57-3.5-3.5-3.5c-0.54 0-1.04 0.13-1.5 0.35 0.63 0.89 1 1.98 1 3.15s-0.37 2.26-1 3.15c0.46 0.22 0.96 0.35 1.5 0.35z" />
 </g>
 <g id="User" transform="translate(-142,-1604)">
  <path id="Icon_134" d="m154 1610c1.1 0 2 0.9 2 2s-0.9 2-2 2-2-0.9-2-2 0.9-2 2-2zm0 10c2.7 0 5.8 1.29 6 2h-12c0.23-0.72 3.31-2 6-2zm0-12c-2.21 0-4 1.79-4 4s1.79 4 4 4 4-1.79 4-4-1.79-4-4-4zm0 10c-2.67 0-8 1.34-8 4v2h16v-2c0-2.66-5.33-4-8-4z" />
 </g>
 <g id="Person Add" transform="translate(-174,-1604)">
  <path id="Icon_135" d="m189 1616c2.21 0 4-1.79 4-4s-1.79-4-4-4-4 1.79-4 4 1.79 4 4 4zm0-6c1.1 0 2 0.9 2 2s-0.9 2-2 2-2-0.9-2-2 0.9-2 2-2zm0 8c-2.67 0-8 1.34-8 4v2h16v-2c0-2.66-5.33-4-8-4zm-6 4c0.22-0.72 3.31-2 6-2 2.7 0 5.8 1.29 6 2zm-3-3v-3h3v-2h-3v-3h-2v3h-3v2h3v3z" />
 </g>
 <g id="Phone" transform="translate(-206,-1604)">
  <path id="Icon_136" d="m212.62 1614.8c1.44 2.83 3.76 5.14 6.59 6.59l2.2-2.2c0.27-0.27 0.67-0.36 1.02-0.24 1.12 0.37 2.33 0.57 3.57 0.57 0.55 0 1 0.45 1 1v3.49c0 0.55-0.45 1-1 1-9.39 0-17-7.61-17-17 0-0.55 0.45-1 1-1h3.5c0.55 0 1 0.45 1 1 0 1.25 0.2 2.45 0.57 3.57 0.11 0.35 0.03 0.74-0.25 1.02z" />
 </g>
 <g id="Pointer" transform="translate(-238,-1604)">
  <path id="Icon_137" d="m250 1616c-1.1 0-2-0.9-2-2s0.9-2 2-2 2 0.9 2 2-0.9 2-2 2zm6-1.8c0-3.63-2.65-6.2-6-6.2s-6 2.57-6 6.2c0 2.34 1.95 5.44 6 9.14 4.05-3.7 6-6.8 6-9.14zm-6-8.2c4.2 0 8 3.22 8 8.2 0 3.32-2.67 7.25-8 11.8-5.33-4.55-8-8.48-8-11.8 0-4.98 3.8-8.2 8-8.2z" />
 </g>
 <g id="Product List" transform="translate(-270,-1604)">
  <g id="Icon_138" >
   <path id="path79" d="m271 1608c0-1.1 0.895-2 2-2h5c1.105 0 2 0.9 2 2v5c0 1.1-0.895 2-2 2h-5c-1.105 0-2-0.9-2-2zm2 0h5v5h-5z" clip-rule="evenodd" fill-rule="evenodd"/>
   <path id="path80" d="m271 1619c0-1.1 0.895-2 2-2h5c1.105 0 2 0.9 2 2v5c0 1.1-0.895 2-2 2h-5c-1.105 0-2-0.9-2-2zm2 0h5v5h-5z" clip-rule="evenodd" fill-rule="evenodd"/>
   <path id="path81" d="m282 1607h11v2h-11z"/>
   <path id="path82" d="m282 1611h8v2h-8z"/>
   <path id="path83" d="m293 1618h-11v2h11z"/>
   <path id="path84" d="m282 1622h8v2h-8z"/>
  </g>
 </g>
 <g id="Print" transform="translate(-302,-1604)">
  <g id="Icon_139" >
   <path id="path85" d="m321 1615.5c0 0.55-0.448 1-1 1s-1-0.45-1-1 0.448-1 1-1 1 0.45 1 1z"/>
   <path id="path86" d="m320 1612h1c1.66 0 3 1.34 3 3v6h-4v4h-12v-4h-4v-6c0-1.66 1.34-3 3-3h1v-5h12zm-2-3h-8v3h8zm0 14v-4h-8v4zm2-6v2h2v-4c0-0.55-0.45-1-1-1h-14c-0.55 0-1 0.45-1 1v4h2v-2z" clip-rule="evenodd" fill-rule="evenodd"/>
  </g>
 </g>
 <g id="Power off" transform="translate(-334,-1604)">
  <path id="Icon_140" d="m345 1617v-10h2v10zm1 8c-1.233 0-2.396-0.24-3.487-0.71-1.092-0.48-2.046-1.12-2.863-1.94s-1.462-1.77-1.937-2.86c-0.476-1.09-0.713-2.26-0.713-3.49 0-1.33 0.275-2.59 0.825-3.78 0.55-1.18 1.325-2.2 2.325-3.07l1.4 1.4c-0.8 0.67-1.425 1.48-1.875 2.42-0.45 0.96-0.675 1.96-0.675 3.03 0 1.93 0.683 3.58 2.05 4.95s3.017 2.05 4.95 2.05c1.95 0 3.604-0.68 4.963-2.05 1.358-1.37 2.037-3.02 2.037-4.95 0-1.07-0.221-2.07-0.662-3.03-0.442-0.94-1.071-1.75-1.888-2.42l1.4-1.4c1 0.87 1.775 1.89 2.325 3.07 0.55 1.19 0.825 2.45 0.825 3.78 0 1.23-0.237 2.4-0.712 3.49-0.476 1.09-1.117 2.04-1.925 2.86-0.809 0.82-1.759 1.46-2.851 1.94-1.091 0.47-2.262 0.71-3.512 0.71z" />
 </g>
 <g id="Parameter" transform="translate(-366,-1604)">
  <path id="Icon_141" d="m386 1608h-16c-1.1 0-2 0.9-2 2v12c0 1.1 0.9 2 2 2h16c1.1 0 2-0.9 2-2v-12c0-1.1-0.9-2-2-2zm0 14h-16v-5.8h5v-2.2h2v5.9h6v-4.1h3zm0-8.2h-5v4.1h-2v-5.9h-6v2.2h-3v-4.2h16z" />
 </g>
 <g id="Query Stats" transform="translate(-46,-1720.5)">
  <path id="Icon_142" d="m48.625 1738.2-1.625-1.17 5-8 3 3.5 4-6.5 2.725 4.07c-0.3833 0.02-0.746 0.07-1.088 0.14-0.3413 0.08-0.6787 0.18-1.012 0.31l-0.55-0.82-3.8 6.18-3.025-3.53zm18.95 4.83-3.125-3.12c-0.3333 0.23-0.7043 0.4-1.113 0.52-0.408 0.12-0.8287 0.18-1.262 0.18-1.25 0-2.3123-0.44-3.187-1.32-0.8753-0.87-1.313-1.93-1.313-3.18s0.4377-2.32 1.313-3.19c0.8747-0.88 1.937-1.32 3.187-1.32s2.3127 0.44 3.188 1.32c0.8747 0.87 1.312 1.94 1.312 3.19 0 0.43-0.0583 0.85-0.175 1.26s-0.2917 0.78-0.525 1.14l3.125 3.1zm-5.5-4.42c0.7 0 1.2917-0.25 1.775-0.73s0.725-1.07 0.725-1.77-0.2417-1.3-0.725-1.78-1.075-0.73-1.775-0.73-1.2917 0.25-1.775 0.73-0.725 1.08-0.725 1.78 0.2417 1.29 0.725 1.77 1.075 0.73 1.775 0.73zm2.225-8.01c-0.3167-0.13-0.646-0.24-0.988-0.32-0.3413-0.08-0.6953-0.13-1.062-0.15l5.125-8.1 1.625 1.17z" />
 </g>
 <g id="Question Answer" transform="translate(-78,-1720)">
  <path id="Icon_143" d="m93 1724v7h-9.83l-1.17 1.17v-8.17zm1-2h-13c-0.55 0-1 0.45-1 1v14l4-4h10c0.55 0 1-0.45 1-1v-9c0-0.55-0.45-1-1-1zm5 4h-2v9h-13v2c0 0.55 0.45 1 1 1h11l4 4v-15c0-0.55-0.45-1-1-1z" />
 </g>
 <g id="Radio Button Unselected" transform="translate(-46,-1836)">
  <path id="Icon_144" d="m58 1838c-5.52 0-10 4.48-10 10s4.48 10 10 10 10-4.48 10-10-4.48-10-10-10zm0 18c-4.42 0-8-3.58-8-8s3.58-8 8-8 8 3.58 8 8-3.58 8-8 8z" />
 </g>
 <g id="Radio Button Selected" transform="translate(-78,-1836)">
  <g id="Icon_145" >
   <path id="path91" d="m90 1838c-5.52 0-10 4.48-10 10s4.48 10 10 10 10-4.48 10-10-4.48-10-10-10zm0 18c-4.42 0-8-3.58-8-8s3.58-8 8-8 8 3.58 8 8-3.58 8-8 8z"/>
   <path id="path92" d="m90 1853c2.7614 0 5-2.24 5-5s-2.2386-5-5-5-5 2.24-5 5 2.2386 5 5 5z"/>
  </g>
 </g>
 <g id="Refresh" transform="translate(-110,-1836)">
  <path id="Icon_146" d="m122 1856c-2.233 0-4.125-0.78-5.675-2.33s-2.325-3.44-2.325-5.67 0.775-4.13 2.325-5.68 3.442-2.32 5.675-2.32c1.15 0 2.25 0.24 3.3 0.71 1.05 0.48 1.95 1.16 2.7 2.04v-2.75h2v7h-7v-2h4.2c-0.533-0.93-1.262-1.67-2.187-2.2s-1.93-0.8-3.013-0.8c-1.667 0-3.083 0.58-4.25 1.75s-1.75 2.58-1.75 4.25 0.583 3.08 1.75 4.25 2.583 1.75 4.25 1.75c1.283 0 2.442-0.37 3.475-1.1s1.758-1.7 2.175-2.9h2.1c-0.467 1.77-1.417 3.21-2.85 4.33-1.433 1.11-3.067 1.67-4.9 1.67z" />
 </g>
 <g id="Rule" transform="translate(-142.09 -1836)">
  <path id="Icon_147" d="m158.54 1847-3.54-3.54 1.41-1.41 2.12 2.12 4.24-4.24 1.41 1.41zm-5.54-4h-9v2h9zm10 6.41-1.41-1.41-2.59 2.59-2.59-2.59-1.41 1.41 2.59 2.59-2.59 2.59 1.41 1.41 2.59-2.59 2.59 2.59 1.41-1.41-2.59-2.59zm-10 1.59h-9v2h9z" />
 </g>
 <g id="Redo" transform="translate(-173.77,-1835.5)">
  <path id="Icon_148" d="m192.4 1846.6c-1.85-1.61-4.25-2.6-6.9-2.6-4.65 0-8.58 3.03-9.96 7.22l2.36 0.78c1.05-3.19 4.05-5.5 7.6-5.5 1.95 0 3.73 0.72 5.12 1.88l-3.62 3.62h9v-9z" />
 </g>
 <g id="Radar" transform="translate(-206,-1836)">
  <path id="Icon_149" d="m218 1858c-1.383 0-2.683-0.26-3.9-0.79-1.217-0.52-2.275-1.23-3.175-2.13s-1.613-1.96-2.137-3.18c-0.525-1.22-0.788-2.52-0.788-3.9s0.263-2.68 0.788-3.9c0.524-1.22 1.237-2.27 2.137-3.18 0.9-0.89 1.958-1.61 3.175-2.13 1.217-0.53 2.517-0.79 3.9-0.79s2.683 0.26 3.9 0.79c1.217 0.52 2.275 1.24 3.175 2.13 0.9 0.91 1.613 1.96 2.137 3.18 0.526 1.22 0.788 2.52 0.788 3.9s-0.262 2.68-0.788 3.9c-0.524 1.22-1.237 2.28-2.137 3.18s-1.958 1.61-3.175 2.13c-1.217 0.53-2.517 0.79-3.9 0.79zm0-2c0.933 0 1.812-0.15 2.637-0.44 0.826-0.29 1.58-0.7 2.263-1.23l-1.425-1.43c-0.483 0.35-1.021 0.62-1.612 0.81-0.592 0.19-1.213 0.29-1.863 0.29-1.667 0-3.083-0.58-4.25-1.75s-1.75-2.58-1.75-4.25 0.583-3.08 1.75-4.25 2.583-1.75 4.25-1.75 3.083 0.58 4.25 1.75 1.75 2.58 1.75 4.25c0 0.65-0.1 1.28-0.3 1.88s-0.475 1.14-0.825 1.62l1.425 1.43c0.533-0.69 0.95-1.45 1.25-2.28s0.45-1.72 0.45-2.65c0-2.23-0.775-4.12-2.325-5.67s-3.442-2.33-5.675-2.33-4.125 0.78-5.675 2.33-2.325 3.44-2.325 5.67 0.775 4.12 2.325 5.68c1.55 1.55 3.442 2.32 5.675 2.32zm0-4c0.367 0 0.721-0.05 1.062-0.14 0.342-0.09 0.663-0.23 0.963-0.41l-1.525-1.52c-0.083 0.03-0.167 0.05-0.25 0.06s-0.167 0.01-0.25 0.01c-0.55 0-1.021-0.2-1.412-0.59-0.392-0.39-0.588-0.86-0.588-1.41s0.196-1.02 0.588-1.41c0.391-0.39 0.862-0.59 1.412-0.59s1.021 0.2 1.413 0.59c0.391 0.39 0.587 0.86 0.587 1.41 0 0.1-4e-3 0.2-0.012 0.29-9e-3 0.09-0.03 0.18-0.063 0.26l1.5 1.5c0.183-0.3 0.325-0.62 0.425-0.96s0.15-0.71 0.15-1.09c0-1.1-0.392-2.04-1.175-2.82-0.783-0.79-1.725-1.18-2.825-1.18s-2.042 0.39-2.825 1.18c-0.783 0.78-1.175 1.72-1.175 2.82s0.392 2.04 1.175 2.82c0.783 0.79 1.725 1.18 2.825 1.18z" />
 </g>
 <g id="Reset Wrench" transform="translate(-238,-1836)">
  <path id="Icon_150" d="m254.32 1854.8-2.2 2.2-2.125-2.12 2.2-2.2c-0.067-0.19-0.117-0.38-0.15-0.58s-0.05-0.4-0.05-0.6c0-0.97 0.342-1.79 1.025-2.47 0.683-0.69 1.508-1.03 2.475-1.03 0.3 0 0.592 0.04 0.875 0.11 0.283 0.08 0.55 0.18 0.8 0.32l-2.375 2.37 1.4 1.4 2.375-2.35c0.133 0.25 0.237 0.51 0.313 0.79 0.074 0.27 0.112 0.56 0.112 0.86 0 0.97-0.342 1.79-1.025 2.48-0.683 0.68-1.508 1.02-2.475 1.02-0.217 0-0.421-0.02-0.613-0.05-0.191-0.03-0.379-0.08-0.562-0.15zm4.45-8.8h-2.075c-0.433-1.47-1.258-2.67-2.475-3.6s-2.625-1.4-4.225-1.4c-1.95 0-3.604 0.68-4.963 2.04-1.358 1.36-2.037 3.01-2.037 4.96 0 1.2 0.271 2.3 0.812 3.3 0.542 1 1.271 1.82 2.188 2.45v-2.75h2v6h-6v-2h2.35c-1.033-0.83-1.85-1.85-2.45-3.06s-0.9-2.52-0.9-3.94c0-1.25 0.237-2.42 0.713-3.51 0.475-1.09 1.116-2.04 1.925-2.85 0.808-0.81 1.758-1.45 2.85-1.93 1.091-0.47 2.262-0.71 3.512-0.71 2.15 0 4.038 0.66 5.663 1.99 1.625 1.32 2.662 2.99 3.112 5.01z" />
 </g>
 <g id="Receipt" transform="translate(-270,-1836)">
  <g id="Icon_151" >
   <path id="path93" d="m279 1843v2h6v-2z"/>
   <path id="path94" d="m286 1843h2v2h-2z"/>
   <path id="path95" d="m279 1846v2h6v-2z"/>
   <path id="path96" d="m286 1846h2v2h-2z"/>
   <path id="path97" d="m289.5 1839.5-1.5-1.5-1.5 1.5-1.5-1.5-1.5 1.5-1.5-1.5-1.5 1.5-1.5-1.5-1.5 1.5-1.5-1.5v14h-3v3c0 1.66 1.34 3 3 3h12c1.66 0 3-1.34 3-3v-17zm-13.5 16.5c-0.55 0-1-0.45-1-1v-1h10v2zm13-1c0 0.55-0.45 1-1 1s-1-0.45-1-1v-3h-9v-11h11z" clip-rule="evenodd" fill-rule="evenodd"/>
  </g>
 </g>
 <g id="Share" transform="translate(-46 -1952)">
  <path id="Icon_152" d="m64 1968.1c-0.76 0-1.44 0.3-1.96 0.77l-7.13-4.15c0.05-0.23 0.09-0.46 0.09-0.7s-0.04-0.47-0.09-0.7l7.05-4.11c0.54 0.5 1.25 0.81 2.04 0.81 1.66 0 3-1.34 3-3s-1.34-3-3-3-3 1.34-3 3c0 0.24 0.04 0.47 0.09 0.7l-7.05 4.11c-0.54-0.5-1.25-0.81-2.04-0.81-1.66 0-3 1.34-3 3s1.34 3 3 3c0.79 0 1.5-0.31 2.04-0.81l7.12 4.16c-0.05 0.21-0.08 0.43-0.08 0.65 0 1.61 1.31 2.92 2.92 2.92s2.92-1.31 2.92-2.92-1.31-2.92-2.92-2.92zm0-12.08c0.55 0 1 0.45 1 1s-0.45 1-1 1-1-0.45-1-1 0.45-1 1-1zm-12 9c-0.55 0-1-0.45-1-1s0.45-1 1-1 1 0.45 1 1-0.45 1-1 1zm12 7.02c-0.55 0-1-0.45-1-1s0.45-1 1-1 1 0.45 1 1-0.45 1-1 1z" />
 </g>
 <g id="Share iOS" transform="translate(-78,-1952)">
  <path id="Icon_153" d="m94 1957-1.42 1.42-1.59-1.59v11.17h-1.98v-11.17l-1.59 1.59-1.42-1.42 4-4zm4 5v11c0 1.1-0.9 2-2 2h-12c-1.11 0-2-0.9-2-2v-11c0-1.11 0.89-2 2-2h3v2h-3v11h12v-11h-3v-2h3c1.1 0 2 0.89 2 2z" />
 </g>
 <g id="Skip_Previous" transform="translate(-110,-1952)">
  <path id="Icon_154" d="m116 1958h2v12h-2zm3.5 6 8.5 6v-12zm6.5 2.14-3.03-2.14 3.03-2.14z" />
 </g>
 <g id="Skip_Next" transform="translate(-142,-1952)">
  <path id="Icon_155" d="m148 1970 8.5-6-8.5-6zm2-8.14 3.03 2.14-3.03 2.14zm8-3.86h2v12h-2z" />
 </g>
 <g id="Star_Filled" transform="translate(-174,-1951.5)">
  <path id="Icon_156" d="m186 1969.3 6.18 3.73-1.64-7.03 5.46-4.73-7.19-0.61-2.81-6.63-2.81 6.63-7.19 0.61 5.46 4.73-1.64 7.03z" />
 </g>
 <g id="Star Border" transform="translate(-206,-1951.5)">
  <path id="Icon_157" d="m228 1961.2-7.19-0.62-2.81-6.62-2.81 6.63-7.19 0.61 5.46 4.73-1.64 7.03 6.18-3.73 6.18 3.73-1.63-7.03zm-10 6.16-3.76 2.27 1-4.28-3.32-2.88 4.38-0.38 1.7-4.03 1.71 4.04 4.38 0.38-3.32 2.88 1 4.28z" />
 </g>
 <g id="Search" transform="translate(-237.74 -1951.7)">
  <path id="Icon_158" d="m253.5 1966h-0.79l-0.28-0.27c0.98-1.14 1.57-2.62 1.57-4.23 0-3.59-2.91-6.5-6.5-6.5s-6.5 2.91-6.5 6.5 2.91 6.5 6.5 6.5c1.61 0 3.09-0.59 4.23-1.57l0.27 0.28v0.79l5 4.99 1.49-1.49zm-6 0c-2.49 0-4.5-2.01-4.5-4.5s2.01-4.5 4.5-4.5 4.5 2.01 4.5 4.5-2.01 4.5-4.5 4.5z" />
 </g>
 <g id="Settings" transform="translate(-270 -1952)">
  <path id="Icon_159" d="m289.43 1965c0.04-0.32 0.07-0.64 0.07-0.98s-0.03-0.66-0.07-0.98l2.11-1.65c0.19-0.15 0.24-0.42 0.12-0.64l-2-3.46c-0.09-0.16-0.26-0.25-0.44-0.25-0.06 0-0.12 0.01-0.17 0.03l-2.49 1c-0.52-0.4-1.08-0.73-1.69-0.98l-0.38-2.65c-0.03-0.24-0.24-0.42-0.49-0.42h-4c-0.25 0-0.46 0.18-0.49 0.42l-0.38 2.65c-0.61 0.25-1.17 0.59-1.69 0.98l-2.49-1c-0.06-0.02-0.12-0.03-0.18-0.03-0.17 0-0.34 0.09-0.43 0.25l-2 3.46c-0.13 0.22-0.07 0.49 0.12 0.64l2.11 1.65c-0.04 0.32-0.07 0.65-0.07 0.98s0.03 0.66 0.07 0.98l-2.11 1.65c-0.19 0.15-0.24 0.42-0.12 0.64l2 3.46c0.09 0.16 0.26 0.25 0.44 0.25 0.06 0 0.12-0.01 0.17-0.03l2.49-1c0.52 0.4 1.08 0.73 1.69 0.98l0.38 2.65c0.03 0.24 0.24 0.42 0.49 0.42h4c0.25 0 0.46-0.18 0.49-0.42l0.38-2.65c0.61-0.25 1.17-0.59 1.69-0.98l2.49 1c0.06 0.02 0.12 0.03 0.18 0.03 0.17 0 0.34-0.09 0.43-0.25l2-3.46c0.12-0.22 0.07-0.49-0.12-0.64zm-1.98-1.71c0.04 0.31 0.05 0.52 0.05 0.73s-0.02 0.43-0.05 0.73l-0.14 1.13 0.89 0.7 1.08 0.84-0.7 1.21-1.27-0.51-1.04-0.42-0.9 0.68c-0.43 0.32-0.84 0.56-1.25 0.73l-1.06 0.43-0.16 1.13-0.2 1.35h-1.4l-0.19-1.35-0.16-1.13-1.06-0.43c-0.43-0.18-0.83-0.41-1.23-0.71l-0.91-0.7-1.06 0.43-1.27 0.51-0.7-1.21 1.08-0.84 0.89-0.7-0.14-1.13c-0.03-0.31-0.05-0.54-0.05-0.74s0.02-0.43 0.05-0.73l0.14-1.13-0.89-0.7-1.08-0.84 0.7-1.21 1.27 0.51 1.04 0.42 0.9-0.68c0.43-0.32 0.84-0.56 1.25-0.73l1.06-0.43 0.16-1.13 0.2-1.35h1.39l0.19 1.35 0.16 1.13 1.06 0.43c0.43 0.18 0.83 0.41 1.23 0.71l0.91 0.7 1.06-0.43 1.27-0.51 0.7 1.21-1.07 0.85-0.89 0.7zm-5.45-3.27c-2.21 0-4 1.79-4 4s1.79 4 4 4 4-1.79 4-4-1.79-4-4-4zm0 6c-1.1 0-2-0.9-2-2s0.9-2 2-2 2 0.9 2 2-0.9 2-2 2z" />
 </g>
 <g id="Settings Filled" transform="translate(-302,-1952)">
  <path id="Icon_160" d="m321.14 1964.9c0.04-0.3 0.06-0.61 0.06-0.94 0-0.32-0.02-0.64-0.07-0.94l2.03-1.58c0.18-0.14 0.23-0.41 0.12-0.61l-1.92-3.32c-0.12-0.22-0.37-0.29-0.59-0.22l-2.39 0.96c-0.5-0.38-1.03-0.7-1.62-0.94l-0.36-2.54c-0.04-0.24-0.24-0.41-0.48-0.41h-3.84c-0.24 0-0.43 0.17-0.47 0.41l-0.36 2.54c-0.59 0.24-1.13 0.57-1.62 0.94l-2.39-0.96c-0.22-0.08-0.47 0-0.59 0.22l-1.91 3.32c-0.12 0.21-0.08 0.47 0.12 0.61l2.03 1.58c-0.05 0.3-0.09 0.63-0.09 0.94s0.02 0.64 0.07 0.94l-2.03 1.58c-0.18 0.14-0.23 0.41-0.12 0.61l1.92 3.32c0.12 0.22 0.37 0.29 0.59 0.22l2.39-0.96c0.5 0.38 1.03 0.7 1.62 0.94l0.36 2.54c0.05 0.24 0.24 0.41 0.48 0.41h3.84c0.24 0 0.44-0.17 0.47-0.41l0.36-2.54c0.59-0.24 1.13-0.56 1.62-0.94l2.39 0.96c0.22 0.08 0.47 0 0.59-0.22l1.92-3.32c0.12-0.22 0.07-0.47-0.12-0.61zm-7.14 2.66c-1.98 0-3.6-1.62-3.6-3.6s1.62-3.6 3.6-3.6 3.6 1.62 3.6 3.6-1.62 3.6-3.6 3.6z" />
 </g>
 <g id="Speed" transform="translate(-334 -1952)">
  <path id="Icon_161" d="m344.45 1967.5c0.4 0.4 0.917 0.6 1.55 0.59s1.1-0.24 1.4-0.69l5.6-8.4-8.4 5.6c-0.45 0.3-0.687 0.76-0.712 1.38-0.025 0.61 0.162 1.12 0.562 1.52zm-5.35 4.5c-0.35 0-0.683-0.08-1-0.25s-0.567-0.4-0.75-0.7c-0.433-0.75-0.767-1.55-1-2.39s-0.35-1.73-0.35-2.66c0-1.38 0.263-2.68 0.788-3.89s1.241-2.26 2.15-3.17c0.908-0.91 1.97-1.63 3.187-2.15 1.217-0.53 2.508-0.79 3.875-0.79 0.983 0 1.929 0.14 2.838 0.41 0.908 0.28 1.762 0.69 2.562 1.24l-1.9 1.2c-0.55-0.28-1.121-0.5-1.712-0.64-0.592-0.14-1.188-0.21-1.788-0.21-2.217 0-4.104 0.78-5.662 2.34-1.559 1.56-2.338 3.44-2.338 5.66 0 0.7 0.096 1.39 0.287 2.08 0.192 0.68 0.463 1.32 0.813 1.92h13.8c0.383-0.63 0.663-1.29 0.838-1.98 0.175-0.68 0.262-1.39 0.262-2.12 0-0.6-0.071-1.18-0.212-1.75-0.142-0.57-0.355-1.12-0.638-1.65l1.2-1.9c0.5 0.78 0.896 1.62 1.188 2.5 0.291 0.88 0.445 1.8 0.462 2.75s-0.092 1.86-0.325 2.73c-0.233 0.86-0.575 1.69-1.025 2.47-0.183 0.3-0.433 0.53-0.75 0.7s-0.65 0.25-1 0.25z" />
 </g>
 <g id="Signal Cellular" transform="translate(-366,-1952)">
  <path id="Icon_162" d="m368 1974 20-20v20zm13-2h5v-13.18l-5 5z" />
 </g>
 <g id="Snapshot" transform="translate(-398,-1952)">
  <g id="Icon_163" >
   <path id="path100" d="m401 1957v4h2v-4h4v-2h-4c-0.55 0-1.021 0.2-1.413 0.59-0.391 0.39-0.587 0.86-0.587 1.41z"/>
   <path id="path101" d="m403 1973h4v-2h-4v-4h-2v4c0 0.55 0.196 1.02 0.587 1.41 0.392 0.39 0.863 0.59 1.413 0.59z"/>
   <path id="path102" d="m413 1971v2h4c0.55 0 1.021-0.2 1.413-0.59 0.391-0.39 0.587-0.86 0.587-1.41v-4h-2v4z"/>
   <path id="path103" d="m413 1957h4v4h2v-4c0-0.55-0.196-1.02-0.587-1.41-0.392-0.39-0.863-0.59-1.413-0.59h-4z"/>
   <path id="path104" d="m414 1961h-8v2h8z"/>
   <path id="path105" d="m406 1965h6v2h-6z"/>
  </g>
 </g>
 <g id="Spinner" transform="translate(-429.68 -1952)">
  <path id="Icon_164" d="m442 1972c-2.233 0-4.125-0.78-5.675-2.33s-2.325-3.44-2.325-5.67 0.775-4.13 2.325-5.68 3.442-2.32 5.675-2.32c1.15 0 2.25 0.24 3.3 0.71l-0.8 1.89c-0.648-0.23-1.768-0.6-2.5-0.6-1.667 0-3.083 0.58-4.25 1.75s-1.75 2.58-1.75 4.25 0.583 3.08 1.75 4.25 2.583 1.75 4.25 1.75c1.283 0 2.442-0.37 3.475-1.1s1.758-1.7 2.175-2.9l1.715 1.13c-0.53 1.26-1.351 2.33-2.465 3.2-1.433 1.11-3.067 1.67-4.9 1.67z" />
 </g>
 <g id="Send" transform="translate(-462.5,-1952)">
  <path id="Icon_165" d="m466.01 1958 7.51 3.22-7.52-1zm7.5 8.72-7.51 3.22v-2.22zm-9.5-11.75-0.01 7 15 2-15 2 0.01 7 20.99-9z" />
 </g>
 <g id="Shopping_Bag" transform="translate(-494,-1952)">
  <path id="Icon_166" d="m512 1958h-2c0-2.21-1.79-4-4-4s-4 1.79-4 4h-2c-1.1 0-2 0.9-2 2v12c0 1.1 0.9 2 2 2h12c1.1 0 2-0.9 2-2v-12c0-1.1-0.9-2-2-2zm-6-2c1.1 0 2 0.9 2 2h-4c0-1.1 0.9-2 2-2zm6 16h-12v-12h2v2c0 0.55 0.45 1 1 1s1-0.45 1-1v-2h4v2c0 0.55 0.45 1 1 1s1-0.45 1-1v-2h2z" />
 </g>
 <g id="Server" transform="translate(-526,-1952)">
  <path id="Icon_167" d="m545 1967v4h-14v-4zm1-2h-16c-0.55 0-1 0.45-1 1v6c0 0.55 0.45 1 1 1h16c0.55 0 1-0.45 1-1v-6c0-0.55-0.45-1-1-1zm-13 5.5c-0.82 0-1.5-0.67-1.5-1.5s0.68-1.5 1.5-1.5 1.5 0.67 1.5 1.5-0.67 1.5-1.5 1.5zm12-13.5v4h-14v-4zm1-2h-16c-0.55 0-1 0.45-1 1v6c0 0.55 0.45 1 1 1h16c0.55 0 1-0.45 1-1v-6c0-0.55-0.45-1-1-1zm-13 5.5c-0.82 0-1.5-0.67-1.5-1.5s0.68-1.5 1.5-1.5 1.5 0.68 1.5 1.5-0.67 1.5-1.5 1.5z" />
 </g>
 <g id="Server Filled" transform="translate(-558,-1952)">
  <g id="Icon_168" clip-rule="evenodd"  fill-rule="evenodd">
   <path id="path106" d="m562 1965h16c0.55 0 1 0.45 1 1v6c0 0.55-0.45 1-1 1h-16c-0.55 0-1-0.45-1-1v-6c0-0.55 0.45-1 1-1zm3 5.5c-0.82 0-1.5-0.67-1.5-1.5s0.68-1.5 1.5-1.5 1.5 0.67 1.5 1.5-0.67 1.5-1.5 1.5z"/>
   <path id="path107" d="m562 1955h16c0.55 0 1 0.45 1 1v6c0 0.55-0.45 1-1 1h-16c-0.55 0-1-0.45-1-1v-6c0-0.55 0.45-1 1-1zm3 5.5c-0.82 0-1.5-0.67-1.5-1.5s0.68-1.5 1.5-1.5 1.5 0.68 1.5 1.5-0.67 1.5-1.5 1.5z"/>
  </g>
 </g>
 <g id="Screenshot" transform="translate(-590,-1952)">
  <g id="Icon_169" >
   <path id="path108" d="m596.5 1959.5h2.5v-1.5h-4v4h1.5z"/>
   <path id="path109" d="m607.5 1964h1.5v4h-4v-1.5h2.5z"/>
   <path id="path110" d="m610 1955h-16c-1.11 0-2 0.89-2 2v12c0 1.1 0.89 2 2 2h4v2h8v-2h4c1.1 0 2-0.9 2-2v-12c0-1.11-0.9-2-2-2zm0 14h-16v-12h16z" clip-rule="evenodd" fill-rule="evenodd"/>
  </g>
 </g>
 <g id="Support" transform="translate(-622,-1952)">
  <path id="Icon_170" d="m634 1954c-5.52 0-10 4.48-10 10s4.48 10 10 10 10-4.48 10-10-4.48-10-10-10zm7.46 7.12-2.78 1.15c-0.51-1.36-1.58-2.44-2.95-2.94l1.15-2.78c2.1 0.8 3.77 2.47 4.58 4.57zm-7.46 5.88c-1.66 0-3-1.34-3-3s1.34-3 3-3 3 1.34 3 3-1.34 3-3 3zm-2.87-10.46 1.17 2.78c-1.38 0.5-2.47 1.59-2.98 2.97l-2.78-1.16c0.81-2.11 2.48-3.78 4.59-4.59zm-4.59 10.33 2.78-1.15c0.51 1.38 1.59 2.46 2.97 2.96l-1.17 2.78c-2.1-0.81-3.77-2.48-4.58-4.59zm10.34 4.59-1.15-2.78c1.37-0.51 2.45-1.59 2.95-2.97l2.78 1.17c-0.81 2.1-2.48 3.77-4.58 4.58z" />
 </g>
 <g id="Support Add" transform="translate(-655,-1951)">
  <g id="Icon_171" clip-rule="evenodd"  fill-rule="evenodd">
   <path id="path111" d="m668 1957c0-2.76 2.24-5 5-5s5 2.24 5 5-2.24 5-5 5-5-2.24-5-5zm5.5 0.5h2.5v-1h-2.5v-2.5h-1v2.5h-2.5v1h2.5v2.5h1z"/>
   <path id="path112" d="m666 1954c0.223 0 0.444 0.01 0.663 0.02-0.425 0.91-0.663 1.91-0.663 2.98 0 1.7 0.604 3.25 1.61 4.47-0.465-0.3-1.017-0.47-1.61-0.47-1.66 0-3 1.34-3 3s1.34 3 3 3 3-1.34 3-3c0-0.59-0.171-1.15-0.466-1.61 1.212 1.01 2.768 1.61 4.466 1.61 1.065 0 2.075-0.24 2.978-0.66 0.015 0.22 0.022 0.44 0.022 0.66 0 5.52-4.48 10-10 10s-10-4.48-10-10 4.48-10 10-10zm-2.87 2.54 1.17 2.78c-1.38 0.5-2.47 1.59-2.98 2.97l-2.78-1.16c0.81-2.11 2.48-3.78 4.59-4.59zm-4.59 10.33 2.78-1.15c0.51 1.38 1.59 2.46 2.97 2.96l-1.17 2.78c-2.1-0.81-3.77-2.48-4.58-4.59zm10.34 4.59-1.15-2.78c1.37-0.51 2.45-1.59 2.95-2.97l2.78 1.17c-0.81 2.1-2.48 3.77-4.58 4.58z"/>
  </g>
 </g>
 <g id="Sort" transform="translate(-686,-1952)">
  <path id="Icon_172" d="m689 1970h6v-2h-6zm0-12v2h18v-2zm0 7h12v-2h-12z" />
 </g>
 <g id="Service_Reset" transform="translate(-718.05,-1952)">
  <path id="Icon_173" d="m735.3 1959h-15.2v2h15.5c1.3 0 2.3 0.9 2.3 2s-1.1 2-2.3 2h-6.6v-2l-3.5 3 3.5 3v-2h6.3c2.6 0 4.7-1.8 4.7-4s-2.2-4-4.7-4z" />
 </g>
 <g id="Triangle" transform="translate(-46,-2068)">
  <path id="Icon_174" d="m58 2075.8 6.39 10.23h-12.78zm0-3.77-10 16h20z" />
 </g>
 <g id="Tool" transform="translate(-77.954 -2068)">
  <path id="Icon_175" d="m100.61 2087-9.08-9.08c0.93-2.34 0.45-5.1-1.44-7-2.3-2.3-5.88-2.51-8.43-0.65l3.84 3.85-1.42 1.41-3.83-3.83c-1.86 2.54-1.65 6.13 0.65 8.42 1.86 1.86 4.57 2.35 6.89 1.48l9.11 9.11c0.39 0.39 1.02 0.39 1.41 0l2.3-2.3c0.4-0.38 0.4-1.01 0-1.41zm-3 1.6-9.46-9.46c-0.61 0.45-1.29 0.72-2 0.82-1.36 0.2-2.79-0.21-3.83-1.25-0.95-0.94-1.39-2.2-1.32-3.44l3.09 3.09 4.24-4.24-3.09-3.09c1.24-0.07 2.49 0.37 3.44 1.31 1.08 1.08 1.49 2.57 1.24 3.96-0.12 0.71-0.42 1.37-0.88 1.96l9.45 9.45z" />
 </g>
 <g id="Tool Corrected Filled" transform="translate(-110.48 -2068)">
  <g id="Icon_176" >
   <path id="path115" d="m126.38 2075.8 2.076 2.1 4.162-4.2 1.381 1.4-5.543 5.6-3.457-3.5z"/>
   <path id="path116" d="m123.6 2077.9 9.1 9.1c0.4 0.3 0.4 1-0.1 1.4l-2.3 2.3c-0.4 0.4-1 0.4-1.4 0l-9.1-9.1c-2.3 0.9-5 0.4-6.9-1.5-2-2-2.5-5-1.3-7.4l4.4 4.3 3-3-4.3-4.3c2.4-1.1 5.4-0.7 7.4 1.3 1.9 1.9 2.4 4.6 1.5 6.9z"/>
  </g>
 </g>
 <g id="Thumbs Down" transform="translate(-142,-2069)">
  <path id="Icon_177" d="m157 2071h-9c-0.83 0-1.54 0.5-1.84 1.22l-3.02 7.05c-0.09 0.23-0.14 0.47-0.14 0.73v2c0 1.1 0.9 2 2 2h6.31l-0.95 4.57-0.03 0.32c0 0.41 0.17 0.79 0.44 1.06l1.06 1.05 6.59-6.59c0.36-0.36 0.58-0.86 0.58-1.41v-10c0-1.1-0.9-2-2-2zm0 12-4.34 4.34 1.34-5.34h-9v-2l3-7h9zm4-12h4v12h-4z" />
 </g>
 <g id="Thumbs Down Filled" transform="translate(-174,-2069)">
  <path id="Icon_178" d="m189 2071h-9c-0.83 0-1.54 0.5-1.84 1.22l-3.02 7.05c-0.09 0.23-0.14 0.47-0.14 0.73v2c0 1.1 0.9 2 2 2h6.31l-0.95 4.57-0.03 0.32c0 0.41 0.17 0.79 0.44 1.06l1.06 1.05 6.59-6.59c0.36-0.36 0.58-0.86 0.58-1.41v-10c0-1.1-0.9-2-2-2zm4 0v12h4v-12z" />
 </g>
 <g id="Thumbs Up" transform="translate(-206,-2067)">
  <path id="Icon_179" d="m215 2089h9c0.83 0 1.54-0.5 1.84-1.22l3.02-7.05c0.09-0.23 0.14-0.47 0.14-0.73v-2c0-1.1-0.9-2-2-2h-6.31l0.95-4.57 0.03-0.32c0-0.41-0.17-0.79-0.44-1.06l-1.06-1.05-6.59 6.59c-0.36 0.36-0.58 0.86-0.58 1.41v10c0 1.1 0.9 2 2 2zm0-12 4.34-4.34-1.34 5.34h9v2l-3 7h-9zm-8 0h4v12h-4z" />
 </g>
 <g id="Thumbs Up Filled" transform="translate(-238,-2067)">
  <path id="Icon_180" d="m239 2089h4v-12h-4zm22-11c0-1.1-0.9-2-2-2h-6.31l0.95-4.57 0.03-0.32c0-0.41-0.17-0.79-0.44-1.06l-1.06-1.05-6.58 6.59c-0.37 0.36-0.59 0.86-0.59 1.41v10c0 1.1 0.9 2 2 2h9c0.83 0 1.54-0.5 1.84-1.22l3.02-7.05c0.09-0.23 0.14-0.47 0.14-0.73z" />
 </g>
 <g id="Tow Truck" transform="translate(-270,-2068)">
  <path id="Icon_181" d="m277 2089c-0.833 0-1.542-0.29-2.125-0.88-0.583-0.58-0.875-1.29-0.875-2.12h-1c-0.55 0-1.021-0.2-1.412-0.59-0.392-0.39-0.588-0.86-0.588-1.41v-4h9.231l-6.231-3.38v0.38c0 0.55-0.448 1-1 1h-1c-0.552 0-1-0.45-1-1v-2c0-0.65 0.333-1.19 0.811-1.5 0.1-0.06 0.208-0.12 0.319-0.16 0.464-0.19 1.009-0.18 1.508 0.09l8.362 4.53v-2.96c0-0.55 0.196-1.02 0.588-1.41 0.391-0.39 0.862-0.59 1.412-0.59h2v-1c0-0.28 0.096-0.52 0.288-0.71 0.191-0.19 0.429-0.29 0.712-0.29h1c0.283 0 0.521 0.1 0.712 0.29 0.192 0.19 0.288 0.43 0.288 0.71v1h0.55c0.433 0 0.825 0.12 1.175 0.38 0.35 0.24 0.592 0.58 0.725 1l1.45 4.3c0.033 0.1 0.058 0.2 0.075 0.31s0.025 0.22 0.025 0.33v6.68h-3c0 0.83-0.292 1.54-0.875 2.12-0.583 0.59-1.292 0.88-2.125 0.88s-1.542-0.29-2.125-0.88c-0.583-0.58-0.875-1.29-0.875-2.12h-4c0 0.83-0.292 1.54-0.875 2.12-0.583 0.59-1.292 0.88-2.125 0.88zm0-2c0.283 0 0.521-0.1 0.713-0.29 0.191-0.19 0.287-0.43 0.287-0.71s-0.096-0.52-0.287-0.71c-0.192-0.19-0.43-0.29-0.713-0.29s-0.521 0.1-0.713 0.29c-0.191 0.19-0.287 0.43-0.287 0.71s0.096 0.52 0.287 0.71c0.192 0.19 0.43 0.29 0.713 0.29zm10 0c0.283 0 0.521-0.1 0.712-0.29 0.192-0.19 0.288-0.43 0.288-0.71s-0.096-0.52-0.288-0.71c-0.191-0.19-0.429-0.29-0.712-0.29s-0.521 0.1-0.712 0.29c-0.192 0.19-0.288 0.43-0.288 0.71s0.096 0.52 0.288 0.71c0.191 0.19 0.429 0.29 0.712 0.29zm-14-5v2h1.775c0.283-0.32 0.617-0.56 1-0.74 0.383-0.17 0.792-0.26 1.225-0.26s0.842 0.09 1.225 0.26c0.383 0.18 0.717 0.42 1 0.74h2.775v-2zm11 2h0.775c0.283-0.32 0.617-0.56 1-0.74 0.383-0.17 0.792-0.26 1.225-0.26s0.842 0.09 1.225 0.26c0.383 0.18 0.717 0.42 1 0.74h1.775v-3h-7zm0-5h6.9l-1.35-4h-5.55z" clip-rule="evenodd"  fill-rule="evenodd"/>
 </g>
 <g id="Truck" transform="translate(-302,-2068)">
  <g id="Icon_182" clip-rule="evenodd"  fill-rule="evenodd">
   <path id="path117" d="m302 2071c0-0.55 0.448-1 1-1h15c0.552 0 1 0.45 1 1v13c0 0.55-0.448 1-1 1h-15c-0.552 0-1-0.45-1-1zm2 1v11h13v-11z"/>
   <path id="path118" d="m317 2076c0-0.55 0.448-1 1-1h4c0.265 0 0.52 0.11 0.707 0.29l3 3c0.188 0.19 0.293 0.44 0.293 0.71v5c0 0.55-0.448 1-1 1h-7c-0.552 0-1-0.45-1-1zm2 1v6h5v-3.59l-2.414-2.41z"/>
   <path id="path119" d="m307.5 2085c-0.828 0-1.5 0.67-1.5 1.5s0.672 1.5 1.5 1.5 1.5-0.67 1.5-1.5-0.672-1.5-1.5-1.5zm-3.5 1.5c0-1.93 1.567-3.5 3.5-3.5s3.5 1.57 3.5 3.5-1.567 3.5-3.5 3.5-3.5-1.57-3.5-3.5z"/>
   <path id="path120" d="m320.5 2085c-0.828 0-1.5 0.67-1.5 1.5s0.672 1.5 1.5 1.5 1.5-0.67 1.5-1.5-0.672-1.5-1.5-1.5zm-3.5 1.5c0-1.93 1.567-3.5 3.5-3.5s3.5 1.57 3.5 3.5-1.567 3.5-3.5 3.5-3.5-1.57-3.5-3.5z"/>
  </g>
 </g>
 <g id="Thermostat" transform="translate(-334,-2068)">
  <path id="Icon_183" d="m347 2079v-2h5v2zm0-4v-2h8v2zm-5 14c-1.383 0-2.562-0.49-3.537-1.46-0.975-0.98-1.463-2.16-1.463-3.54 0-0.8 0.175-1.55 0.525-2.24s0.842-1.28 1.475-1.76v-6c0-0.83 0.292-1.54 0.875-2.12 0.583-0.59 1.292-0.88 2.125-0.88s1.542 0.29 2.125 0.88c0.583 0.58 0.875 1.29 0.875 2.12v6c0.633 0.48 1.125 1.07 1.475 1.76s0.525 1.44 0.525 2.24c0 1.38-0.487 2.56-1.462 3.54-0.975 0.97-2.155 1.46-3.538 1.46zm-3-5h6c0-0.48-0.104-0.93-0.312-1.35-0.209-0.42-0.505-0.77-0.888-1.05l-0.8-0.6v-7c0-0.28-0.096-0.52-0.287-0.71-0.192-0.19-0.43-0.29-0.713-0.29s-0.521 0.1-0.713 0.29c-0.191 0.19-0.287 0.43-0.287 0.71v7l-0.8 0.6c-0.383 0.28-0.679 0.63-0.888 1.05-0.208 0.42-0.312 0.87-0.312 1.35z" />
 </g>
 <g id="Update" transform="translate(-46,-2184)">
  <path id="Icon_184" d="m57 2192v5l4.25 2.52 0.77-1.28-3.52-2.09v-4.15zm10 2v-7l-2.64 2.64c-1.62-1.63-3.87-2.64-6.36-2.64-4.97 0-9 4.03-9 9s4.03 9 9 9 9-4.03 9-9h-2c0 3.86-3.14 7-7 7s-7-3.14-7-7 3.14-7 7-7c1.93 0 3.68 0.79 4.95 2.05l-2.95 2.95z" />
 </g>
 <g id="USB" transform="translate(-82,-2184)">
  <path id="Icon_185" d="m94 2206c-0.55 0-1.0208-0.2-1.4125-0.59s-0.5875-0.86-0.5875-1.41c0-0.35 0.0917-0.67 0.275-0.98 0.1833-0.29 0.425-0.54 0.725-0.72v-2.3h-3c-0.55 0-1.0208-0.2-1.4125-0.59s-0.5875-0.86-0.5875-1.41v-2.3c-0.3-0.15-0.5417-0.38-0.725-0.67-0.1833-0.3-0.275-0.65-0.275-1.03 0-0.55 0.1958-1.02 0.5875-1.41s0.8625-0.59 1.4125-0.59 1.0208 0.2 1.4125 0.59 0.5875 0.86 0.5875 1.41c0 0.38-0.0917 0.72-0.275 1s-0.425 0.52-0.725 0.7v2.3h3v-8h-2l3-4 3 4h-2v8h3v-2h-1v-4h4v4h-1v2c0 0.55-0.1958 1.02-0.5875 1.41s-0.8625 0.59-1.4125 0.59h-3v2.3c0.3167 0.17 0.5625 0.4 0.7375 0.7s0.2625 0.63 0.2625 1c0 0.55-0.1958 1.02-0.5875 1.41s-0.8625 0.59-1.4125 0.59z" />
 </g>
 <g id="Visibility" transform="translate(-46,-2299.5)">
  <path id="Icon_186" d="m58 2306c3.79 0 7.17 2.13 8.82 5.5-1.65 3.37-5.03 5.5-8.82 5.5s-7.17-2.13-8.82-5.5c1.65-3.37 5.03-5.5 8.82-5.5zm0-2c-5 0-9.27 3.11-11 7.5 1.73 4.39 6 7.5 11 7.5s9.27-3.11 11-7.5c-1.73-4.39-6-7.5-11-7.5zm0 5c1.38 0 2.5 1.12 2.5 2.5s-1.12 2.5-2.5 2.5-2.5-1.12-2.5-2.5 1.12-2.5 2.5-2.5zm0-2c-2.48 0-4.5 2.02-4.5 4.5s2.02 4.5 4.5 4.5 4.5-2.02 4.5-4.5-2.02-4.5-4.5-4.5z" />
 </g>
 <g id="Visibility Off" transform="translate(-78 -2300)">
  <path id="Icon_187" d="m90 2306c3.79 0 7.17 2.13 8.82 5.5-0.59 1.22-1.42 2.27-2.41 3.12l1.41 1.41c1.39-1.23 2.49-2.77 3.18-4.53-1.73-4.39-6-7.5-11-7.5-1.27 0-2.49 0.2-3.64 0.57l1.65 1.65c0.65-0.13 1.31-0.22 1.99-0.22zm-1.07 1.14 2.07 2.07c0.57 0.25 1.03 0.71 1.28 1.28l2.07 2.07c0.08-0.34 0.14-0.7 0.14-1.07 0.01-2.48-2.01-4.49-4.49-4.49-0.37 0-0.72 0.05-1.07 0.14zm-8.92-3.27 2.68 2.68c-1.63 1.28-2.92 2.98-3.69 4.95 1.73 4.39 6 7.5 11 7.5 1.52 0 2.98-0.29 4.32-0.82l3.42 3.42 1.41-1.41-17.73-17.74zm7.5 7.5 2.61 2.61c-0.04 0.01-0.08 0.02-0.12 0.02-1.38 0-2.5-1.12-2.5-2.5 0-0.05 0.01-0.08 0.01-0.13zm-3.4-3.4 1.75 1.75c-0.23 0.55-0.36 1.15-0.36 1.78 0 2.48 2.02 4.5 4.5 4.5 0.63 0 1.23-0.13 1.77-0.36l0.98 0.98c-0.88 0.24-1.8 0.38-2.75 0.38-3.79 0-7.17-2.13-8.82-5.5 0.7-1.43 1.72-2.61 2.93-3.53z" />
 </g>
 <g id="VCI" transform="translate(-110 -2300.2)">
  <path id="Icon_188" d="m132.41 2306.2c0.224 0.28 0.396 0.61 0.517 1.01s0.094 0.76-0.077 1.09v0.13l-2.195 8.36c-0.121 0.61-0.421 1.12-0.904 1.55s-1.024 0.65-1.627 0.65h-4.649v-1.99h4.649c0.155 0 0.284-0.04 0.387-0.13 0.104-0.08 0.156-0.19 0.156-0.31v-0.1l2.195-8.27c0.068-0.1 0.082-0.21 0.039-0.31s-0.091-0.18-0.142-0.23-0.085-0.08-0.104-0.09c-0.018-0.01-0.051-0.02-0.104-0.02h-17.204c-0.085 0.02-0.163 0.06-0.232 0.11-0.051 0.05-0.082 0.13-0.09 0.23-9e-3 0.11-0.012 0.21-0.012 0.31l2.195 8.5c0.068 0.11 0.15 0.2 0.245 0.3 0.094 0.09 0.203 0.14 0.323 0.14h4.728v1.99h-4.624c-0.654 0-1.214-0.22-1.679-0.66-0.466-0.44-0.75-0.96-0.852-1.56l-2.326-8.47c-0.052-0.4-9e-3 -0.8 0.129-1.21 0.138-0.4 0.319-0.74 0.543-1.02 0.224-0.2 0.49-0.38 0.801-0.54 0.31-0.15 0.628-0.23 0.955-0.23h17.203c0.328 0 0.645 0.06 0.956 0.18 0.31 0.12 0.577 0.32 0.8 0.59zm-4.623 5.09v1.97h-11.366v-1.97z" />
 </g>
 <g id="VCI Offline" transform="translate(-142 -2300)">
  <path id="Icon_189" d="m158.73 2316-3.746-3.75-1.963-1.96-3.745-3.75-2.118-2.11-2.295-2.3-1.558 1.56 1.05 1.05c-0.247 0.14-0.472 0.29-0.659 0.46-0.224 0.28-0.405 0.62-0.543 1.02-0.138 0.41-0.181 0.81-0.129 1.2l2.325 8.47c0.103 0.61 0.387 1.13 0.852 1.57s1.025 0.66 1.679 0.66h4.624v-1.99h-4.727c-0.121 0-0.228-0.05-0.323-0.14-0.095-0.1-0.177-0.2-0.245-0.3l-2.196-8.5c0-0.1 4e-3 -0.21 0.013-0.31s0.039-0.18 0.09-0.23c0.069-0.05 0.147-0.09 0.233-0.11h0.81l3.745 3.75h-1.481v1.96h3.445l3.746 3.75h-0.139v1.99h2.128l3.982 3.98 1.558-1.56-2.49-2.49zm6.199-9.79c-0.121-0.4-0.293-0.73-0.517-1.01-0.224-0.27-0.491-0.47-0.801-0.59s-0.629-0.18-0.956-0.18h-12.38l2.118 2.11h10.159c0.052 0 0.086 0.01 0.103 0.02s0.052 0.04 0.103 0.09c0.052 0.05 0.099 0.13 0.142 0.23s0.03 0.21-0.039 0.31l-2.062 7.76 1.584 1.59c0.123-0.24 0.218-0.48 0.271-0.75l2.196-8.37v-0.13c0.173-0.32 0.199-0.69 0.079-1.08zm-5.141 4.08h-3.65l1.963 1.96h1.687z" />
 </g>
 <g id="Warning" transform="translate(-46,-2415.5)">
  <path id="Icon_190" d="m47 2437 11-19 11 19zm10-6h2v-5h-2zm1 3c0.2833 0 0.521-0.1 0.713-0.29 0.1913-0.19 0.287-0.43 0.287-0.71s-0.0957-0.52-0.287-0.71c-0.192-0.19-0.4297-0.29-0.713-0.29s-0.5207 0.1-0.712 0.29c-0.192 0.19-0.288 0.43-0.288 0.71s0.096 0.52 0.288 0.71c0.1913 0.19 0.4287 0.29 0.712 0.29zm-7.55 1h15.1l-7.55-13z" />
 </g>
 <g id="Wifi" transform="translate(-78 -2416.2)">
  <path id="Icon_191" d="m79 2425 2 2c4.97-4.97 13.03-4.97 18 0l2-2c-6.07-6.07-15.92-6.07-22 0zm8 8 3 3 3-3c-1.65-1.66-4.34-1.66-6 0zm-4-4 2 2c2.76-2.76 7.24-2.76 10 0l2-2c-3.86-3.86-10.13-3.86-14 0z" />
 </g>
 <g id="Wheels" transform="translate(-110,-2416)">
  <path id="Icon_192" d="m117 2418h-3v6h3zm0 14h-3v6h3zm2-7c0 0.55-0.448 1-1 1h-5c-0.552 0-1-0.45-1-1v-8c0-0.55 0.448-1 1-1h5c0.552 0 1 0.45 1 1v3h2v2h-2zm8-1h3v-6h-3zm0 14h3v-6h-3zm-2-16h-2v-2h2v-3c0-0.55 0.448-1 1-1h5c0.552 0 1 0.45 1 1v8c0 0.55-0.448 1-1 1h-5c-0.552 0-1-0.45-1-1zm0 14h-2v-2h2v-3c0-0.55 0.448-1 1-1h5c0.552 0 1 0.45 1 1v8c0 0.55-0.448 1-1 1h-5c-0.552 0-1-0.45-1-1zm-4-2h-2v-3c0-0.55-0.448-1-1-1h-5c-0.552 0-1 0.45-1 1v8c0 0.55 0.448 1 1 1h5c0.552 0 1-0.45 1-1v-3h2z" clip-rule="evenodd"  fill-rule="evenodd"/>
 </g>
 <g id="Wheels Filled" transform="translate(-142,-2416)">
  <g id="Icon_193" >
   <path id="path127" d="m145 2416c-0.552 0-1 0.45-1 1v8c0 0.55 0.448 1 1 1h5c0.552 0 1-0.45 1-1v-3h2v-2h-2v-3c0-0.55-0.448-1-1-1z"/>
   <path id="path128" d="m151 2434h2v2h-2v3c0 0.55-0.448 1-1 1h-5c-0.552 0-1-0.45-1-1v-8c0-0.55 0.448-1 1-1h5c0.552 0 1 0.45 1 1z"/>
   <path id="path129" d="m157 2425v-3h-2v-2h2v-3c0-0.55 0.448-1 1-1h5c0.552 0 1 0.45 1 1v8c0 0.55-0.448 1-1 1h-5c-0.552 0-1-0.45-1-1z"/>
   <path id="path130" d="m157 2436v3c0 0.55 0.448 1 1 1h5c0.552 0 1-0.45 1-1v-8c0-0.55-0.448-1-1-1h-5c-0.552 0-1 0.45-1 1v3h-2v2z"/>
  </g>
 </g>
 <g id="Workshop" transform="translate(-174,-2416)">
  <g id="Icon_194" >
   <path id="path131" d="m190 2427v-2h-8v2z"/>
   <path id="path132" d="m176 2437v-2h2v-9h-2v-2l10-5 10 5v2h-2v9h2v2zm16-2v-10.5l-6-3.05-6 3.05v10.5h2v-7h8v7zm-4-5v5h-4v-5z" clip-rule="evenodd" fill-rule="evenodd"/>
  </g>
 </g>
 <g id="Wifi Bar 1" transform="translate(-206,-2416.5)" clip-path="url(#clip3_27_68)">
  <path id="Icon_195" d="m218 2437-12-12c1.6-1.63 3.433-2.88 5.5-3.73 2.067-0.84 4.233-1.27 6.5-1.27 2.283 0 4.458 0.43 6.525 1.27 2.067 0.85 3.892 2.1 5.475 3.73zm-2.975-5.82c0.417-0.3 0.879-0.54 1.388-0.7 0.508-0.17 1.037-0.25 1.587-0.25s1.079 0.08 1.588 0.25c0.508 0.16 0.97 0.4 1.387 0.7l6.125-6.13c-1.3-0.98-2.721-1.74-4.263-2.26-1.541-0.53-3.154-0.79-4.837-0.79s-3.296 0.26-4.838 0.79c-1.541 0.52-2.962 1.28-4.262 2.26z" />
 </g>
 <g id="Wifi Bar 2" transform="translate(-238,-2416.5)" clip-path="url(#clip4_27_68)">
  <path id="Icon_196" d="m250 2437-12-12c1.6-1.63 3.433-2.88 5.5-3.73 2.067-0.84 4.233-1.27 6.5-1.27 2.283 0 4.458 0.43 6.525 1.27 2.067 0.85 3.892 2.1 5.475 3.73zm-4.525-7.38c0.633-0.46 1.333-0.82 2.1-1.08s1.575-0.39 2.425-0.39 1.658 0.13 2.425 0.39 1.467 0.62 2.1 1.08l4.575-4.57c-1.3-0.98-2.721-1.74-4.263-2.26-1.541-0.53-3.154-0.79-4.837-0.79s-3.296 0.26-4.838 0.79c-1.541 0.52-2.962 1.28-4.262 2.26z" />
 </g>
 <g id="Wifi Bar 3" transform="translate(-270,-2416.5)" clip-path="url(#clip5_27_68)">
  <path id="Icon_197" d="m282 2437-12-12c1.6-1.63 3.433-2.88 5.5-3.73 2.067-0.84 4.233-1.27 6.5-1.27 2.283 0 4.458 0.43 6.525 1.27 2.067 0.85 3.892 2.1 5.475 3.73zm-6.2-9.05c0.883-0.63 1.85-1.13 2.9-1.49s2.15-0.53 3.3-0.53 2.25 0.17 3.3 0.53 2.017 0.86 2.9 1.49l2.9-2.9c-1.3-0.98-2.721-1.74-4.263-2.26-1.541-0.53-3.154-0.79-4.837-0.79s-3.296 0.26-4.838 0.79c-1.541 0.52-2.962 1.28-4.262 2.26z" />
 </g>
 <g id="Wifi Bar 4" transform="translate(-302,-2416.5)" clip-path="url(#clip6_27_68)">
  <path id="Icon_198" d="m314 2437-12-12c1.583-1.62 3.413-2.85 5.488-3.71 2.074-0.86 4.245-1.29 6.512-1.29 2.283 0 4.458 0.43 6.525 1.27 2.067 0.85 3.892 2.1 5.475 3.73zm-7.65-10.5c1.117-0.8 2.325-1.42 3.625-1.85s2.642-0.65 4.025-0.65 2.725 0.22 4.025 0.65 2.508 1.05 3.625 1.85l1.45-1.45c-1.317-1-2.75-1.76-4.3-2.27-1.55-0.52-3.15-0.78-4.8-0.78s-3.25 0.26-4.8 0.78c-1.55 0.51-2.983 1.27-4.3 2.27z" />
 </g>
 <g id="Wifi Bar 5" transform="translate(-334,-2416.5)" clip-path="url(#clip7_27_68)">
  <path id="Icon_199" d="m346 2437-12-12c1.583-1.62 3.413-2.85 5.488-3.71 2.074-0.86 4.245-1.29 6.512-1.29s4.438 0.43 6.513 1.29c2.074 0.86 3.904 2.09 5.487 3.71z" />
 </g>
 <defs id="defs139">
  <clipPath id="clip0_27_68">
   <rect id="rect132" transform="translate(590,96)" width="24" height="24" />
  </clipPath>
  <clipPath id="clip1_27_68">
   <rect id="rect133" transform="translate(622,96)" width="24" height="24" />
  </clipPath>
  <clipPath id="clip2_27_68">
   <rect id="rect134" transform="translate(1102,328)" width="24" height="24" />
  </clipPath>
  <clipPath id="clip3_27_68">
   <rect id="rect135" transform="translate(206,2416)" width="24" height="24" />
  </clipPath>
  <clipPath id="clip4_27_68">
   <rect id="rect136" transform="translate(238,2416)" width="24" height="24" />
  </clipPath>
  <clipPath id="clip5_27_68">
   <rect id="rect137" transform="translate(270,2416)" width="24" height="24" />
  </clipPath>
  <clipPath id="clip6_27_68">
   <rect id="rect138" transform="translate(302,2416)" width="24" height="24" />
  </clipPath>
  <clipPath id="clip7_27_68">
   <rect id="rect139" transform="translate(334,2416)" width="24" height="24" />
  </clipPath>
 </defs>
</svg>
