<svg id="svg5" version="1.1" viewBox="0 0 36 24" xml:space="preserve" xmlns="http://www.w3.org/2000/svg"><g id="layer1"><g id="g2" transform="translate(-488,-96.496)"><path id="Icon_15" d="m515 101.89c-0.2-0.497-0.7-0.894-1.3-0.894h-8c0.8 0.397 1.5 0.795 2.1 1.391h6l1.4 4.271h-4.9c0.1 0.596 0.2 1.192 0.2 1.888 0 2.185-0.8 4.172-2.2 5.662h6v0.894c0 0.497 0.4 0.894 0.9 0.894h0.9c0.5 0 0.9-0.397 0.9-0.894v-7.55zm-1.3 9.338c-0.8 0-1.4-0.596-1.4-1.391s0.6-1.391 1.4-1.391 1.4 0.596 1.4 1.391-0.7 1.391-1.4 1.391zm-12 3.968c-3.7 0-6.7-3-6.7-6.7s3-6.7 6.7-6.7 6.7 3 6.7 6.7-3 6.7-6.7 6.7zm0-11.7c-2.8 0-5 2.3-5 5 0 2.8 2.3 5 5 5s5-2.3 5-5c0-2.8-2.3-5-5-5zm-1.8 2 4.7 2.7c0.2 0.2 0.2 0.5 0 0.6l-4.7 2.7c-0.2 0.1-0.5-0.1-0.5-0.3v-5.4c0-0.2 0.3-0.4 0.5-0.3z" clip-rule="evenodd" fill-rule="evenodd"/></g></g></svg>
