<svg id="svg5" version="1.1" viewBox="0 0 36 24" xml:space="preserve" xmlns="http://www.w3.org/2000/svg"><g id="layer1"><text id="text8" x="14.272461" y="18.918945" fill="#000000" font-family="sans-serif" font-size="2px" style="line-height:1.25" xml:space="preserve"><tspan id="tspan8" x="14.272461" y="18.918945" fill="#000000" font-size="2px">Battery <tspan id="tspan5" font-weight="bold">Bolt</tspan></tspan></text><g><path id="path1" d="m8.4175 16.375h-0.4175v-0.5h-1v0.5h-0.4175c-0.1825 0-0.3325 0.15-0.3325 0.3325v3.8325c0 0.185 0.15 0.335 0.3325 0.335h1.8325c0.185 0 0.335-0.15 0.335-0.3325v-3.835c0-0.1825-0.15-0.3325-0.3325-0.3325zm-1.1675 4v-1.25h-0.5l1-2v1.25h0.5z"/><path id="path1-5" d="m8.5 9.125v0.5h-1l1.5 0.75v-0.5h1zm-2.625 0.5c-0.15532 0-0.29872 0.095897-0.3501 0.25l-0.5249 1.5v2c0 0.14283 0.10716 0.25 0.25 0.25h0.25c0.14283 0 0.25-0.10716 0.25-0.25v-0.25h3v0.25c0 0.14237 0.10702 0.25 0.25 0.25h0.25c0.14298 0 0.25-0.10763 0.25-0.25v-2l-0.17529-0.5h-3.6245l0.2622-0.75h1.7876l-0.96388-0.5h-0.91112zm0.25 2c0.20991 0 0.375 0.1651 0.375 0.375 0 0.20991-0.1651 0.375-0.375 0.375-0.20991 0-0.375-0.1651-0.375-0.375 0-0.20991 0.1651-0.375 0.375-0.375zm2.25 0c0.20991 0 0.375 0.1651 0.375 0.375 0 0.20991-0.1651 0.375-0.375 0.375-0.20991 0-0.375-0.1651-0.375-0.375 0-0.20991 0.1651-0.375 0.375-0.375z"/><path id="path1-3" d="m8 5.625-3-1.5h2v-1l3 1.5h-2z"/></g><text id="text1" x="14.272461" y="12.120605" fill="#000000" font-family="sans-serif" font-size="2px" style="line-height:1.25" xml:space="preserve"><tspan id="tspan1" x="14.272461" y="12.120605" fill="#000000" font-size="2px">Car <tspan id="tspan6" font-weight="bold">Bolt</tspan></tspan></text><text id="text2" x="14.272461" y="5.1206055" fill="#000000" font-family="sans-serif" font-size="2px" style="line-height:1.25" xml:space="preserve"><tspan id="tspan2" x="14.272461" y="5.1206055" fill="#000000" font-size="2px" font-weight="bold">Bolt</tspan></text></g></svg>
