<svg id="svg5" version="1.1" viewBox="0 0 36 24" xml:space="preserve" xmlns="http://www.w3.org/2000/svg"><g id="layer1"><g><path id="path1" d="m8.1118 3c-0.165 0-0.30248 0.10494-0.35498 0.25245l-0.52002 1.4976v2c0 0.1375 0.1125 0.25 0.25 0.25h0.25c0.1375 0 0.25-0.1125 0.25-0.25v-0.25h3v0.25c0 0.1375 0.1125 0.25 0.25 0.25h0.25c0.1375 0 0.25-0.1125 0.25-0.25v-2l-0.52002-1.4976c-0.05-0.1475-0.18998-0.25245-0.35498-0.25245zm0.087402 0.5h2.5727l0.25978 0.75h-3.0922zm0.1626 1.5c0.207 0 0.375 0.168 0.375 0.375s-0.168 0.375-0.375 0.375-0.375-0.168-0.375-0.375 0.168-0.375 0.375-0.375zm2.25 0c0.207 0 0.375 0.168 0.375 0.375s-0.168 0.375-0.375 0.375-0.375-0.168-0.375-0.375 0.168-0.375 0.375-0.375z"/><path id="path1-2" d="m9.7368 9.25c-0.5525 0-1 0.4475-1 1s0.4475 1 1 1h0.49999v-0.5h-0.49999c-0.275 0-0.5-0.225-0.5-0.5s0.225-0.5 0.5-0.5h0.49999v-0.5zm0.99999 0v0.5h0.5c0.275 0 0.5 0.225 0.5 0.5s-0.225 0.5-0.5 0.5h-0.5v0.5h0.5c0.5525 0 1-0.4475 1-1s-0.4475-1-1-1zm-0.99999 0.75v0.5h1.5v-0.5zm-1.625 0.75c-0.165 0-0.30248 0.10494-0.35498 0.25245l-0.52002 1.4976v2c0 0.1375 0.1125 0.25 0.25 0.25h0.25c0.1375 0 0.25-0.1125 0.25-0.25v-0.25h3v0.25c0 0.1375 0.1125 0.25 0.25 0.25h0.25c0.1375 0 0.25-0.1125 0.25-0.25v-2l-0.2666-0.76808c-0.076 0.01175-0.15415 0.01807-0.2334 0.01807h-0.29102l0.09619 0.27735h-3.1127l0.27002-0.77735h0.41942c-0.12925-0.14425-0.23039-0.31375-0.29637-0.5h-0.21045zm0.25 2c0.207 0 0.375 0.168 0.375 0.375s-0.168 0.375-0.375 0.375-0.375-0.168-0.375-0.375 0.168-0.375 0.375-0.375zm2.25 0c0.207 0 0.375 0.168 0.375 0.375s-0.168 0.375-0.375 0.375-0.375-0.168-0.375-0.375 0.168-0.375 0.375-0.375z"/><path id="path1-9" d="m8.1118 17c-0.165 0-0.30248 0.10494-0.35498 0.25245l-0.52002 1.4976v2c0 0.1375 0.1125 0.25 0.25 0.25h0.25c0.1375 0 0.25-0.1125 0.25-0.25v-0.25h3v0.25c0 0.1375 0.1125 0.25 0.25 0.25h0.25c0.1375 0 0.25-0.1125 0.25-0.25v-2l-0.52002-1.4976c-0.05-0.1475-0.18998-0.25245-0.35498-0.25245zm0.087402 0.5h2.5727l0.25978 0.75h-3.0922zm-0.4624 1.25h3.5v1.25h-3.5zm0.625 0.25c-0.207 0-0.375 0.168-0.375 0.375s0.168 0.375 0.375 0.375 0.375-0.168 0.375-0.375-0.168-0.375-0.375-0.375zm2.25 0c-0.207 0-0.375 0.168-0.375 0.375s0.168 0.375 0.375 0.375 0.375-0.168 0.375-0.375-0.168-0.375-0.375-0.375z"/></g><g fill="#000000" font-family="sans-serif" font-size="2px"><text id="text8" x="16.370117" y="19.543945" style="line-height:1.25" xml:space="preserve"><tspan id="tspan8" x="16.370117" y="19.543945" fill="#000000" font-size="2px">Car <tspan id="tspan3" font-weight="bold">Outline</tspan></tspan></text><text id="text1" x="16.370117" y="12.745605" style="line-height:1.25" xml:space="preserve"><tspan id="tspan1" x="16.370117" y="12.745605" fill="#000000" font-size="2px">Car Link</tspan></text><text id="text2" x="16.370117" y="5.7456055" style="line-height:1.25" xml:space="preserve"><tspan id="tspan2" x="16.370117" y="5.7456055" fill="#000000" font-size="2px">Car</tspan></text></g></g></svg>
