<svg id="svg5" version="1.1" viewBox="0 0 36 24" xml:space="preserve" xmlns="http://www.w3.org/2000/svg"><g id="layer1"><path id="path1" d="m17 1v4h2v-4zm-6.0703 2.5156-1.4141 1.4141 2.8281 2.8281 1.4141-1.4141zm14.141 0-2.8281 2.8281 1.4141 1.4141 2.8281-2.8281zm-7.0703 3.4844c-2.76 0-5 2.24-5 5s2.24 5 5 5 5-2.24 5-5-2.24-5-5-5zm0 2c1.65 0 3 1.35 3 3s-1.35 3-3 3-3-1.35-3-3 1.35-3 3-3zm-11 2v2h4v-2zm18 0v2h4v-2zm-12.656 5.2422-2.8281 2.8281 1.4141 1.4141 2.8281-2.8281zm11.312 0-1.4141 1.4141 2.8281 2.8281 1.4141-1.4141zm-6.6562 2.7578v4h2v-4z"/></g></svg>
