<svg id="svg5" version="1.1" viewBox="0 0 36 24" xml:space="preserve" xmlns="http://www.w3.org/2000/svg"><g id="layer1"><path id="path1" d="m-28 6.9-2.13-2.12 1.41-1.41 2.12 2.13m5.6-4.5v3h-2v-3m9.13 3.78-2.13 2.12-1.4-1.4 2.12-2.13m-14.22 7.13v2h-3v-2m18 0h3v2h-3m-1.5 7.5c1.1046 0 2 0.89543 2 2h-16c0-1.1046 0.89543-2 2-2zm-6-15c3.3137 0 6 2.6863 6 6v8h-12v-8c0-3.3137 2.6863-6 6-6z"/><path id="path1-3" d="m33.5 31.9-2.13-2.12 1.41-1.41 2.12 2.13-1.4 1.4m7-5.9v3h-2v-3h2m7.13 3.78-2.13 2.12-1.4-1.4 2.12-2.13 1.41 1.41m-15.63 5.72v2h-3v-2h3m15 0h3v2h-3v-2m-13.5 9.5h12a2 2 0 0 1 2 2h-16a2 2 0 0 1 2-2m6-15a6 6 0 0 1 6 6v8h-12v-8a6 6 0 0 1 6-6m0 2a4 4 0 0 0-4 4v6h8v-6a4 4 0 0 0-4-4z"/><path id="path1-3-2" d="m4 8.95-1.065-1.06 0.705-0.705 1.06 1.065-0.7 0.7m3.5-2.95v1.5h-1v-1.5h1m3.565 1.89-1.065 1.06-0.7-0.7 1.06-1.065 0.705 0.705m-7.815 2.86v1h-1.5v-1h1.5m7.5 0h1.5v1h-1.5v-1m-6.75 4.75h6a1 1 0 0 1 1 1h-8a1 1 0 0 1 1-1m3-7.5a3 3 0 0 1 3 3v4h-6v-4a3 3 0 0 1 3-3m0 1a2 2 0 0 0-2 2v3h4v-3a2 2 0 0 0-2-2z"/><path id="path1-6" d="m25.9 39.8-9-9c0.9-0.5 1.9-0.8 3-0.8 3.3 0 6 2.7 6 6v3.8m2.1-10-1.4-1.4-2.1 2.1 1.4 1.4 2.1-2.1m-0.6 5.7v2h3v-2h-3m-15 0h-3v2h3v-2m-3.4-7.5 5.5 5.5c-0.4 0.7-0.6 1.6-0.6 2.5v8h11.1l1 1h-12.1c-1.1 0-2 0.9-2 2h16.1l0.7 0.7 1.3-1.3-19.7-19.7-1.3 1.3m11.9-2h-2v3h2z"/><path id="path2" d="m-28 6.9-2.13-2.12 1.41-1.41 2.12 2.13m5.6-4.5v3h-2v-3m9.13 3.78-2.13 2.12-1.4-1.4 2.12-2.13m-14.22 7.13v2h-3v-2m18 0h3v2h-3m-1.5 7.5c1.1046 0 2 0.89543 2 2h-16c0-1.1046 0.89543-2 2-2zm-6-15c3.3137 0 6 2.6863 6 6v8h-12v-8c0-3.3137 2.6863-6 6-6z"/><path id="path1-5" d="m51.5-4.6-2.13-2.12 1.41-1.41 2.12 2.13-1.4 1.4m7-5.9v3h-2v-3h2m7.13 3.78-2.13 2.12-1.4-1.4 2.12-2.13 1.41 1.41m-15.63 5.72v2h-3v-2h3m15 0h3v2h-3v-2m-13.5 9.5h12a2 2 0 0 1 2 2h-16a2 2 0 0 1 2-2m6-15a6 6 0 0 1 6 6v8h-12v-8a6 6 0 0 1 6-6m0 2a4 4 0 0 0-4 4v6h8v-6a4 4 0 0 0-4-4z"/><path id="path2-3" d="m62.5-0.5c0-2.7614-2.2386-5-5-5s-5 2.2386-5 5v7h10z" fill="#88007c" opacity=".25737" stroke="#e0e06a" stroke-linejoin="round" stroke-miterlimit="5" style="paint-order:markers fill stroke"/><path id="path7" d="m65 0h3m-18 0h-3m5.2-5.3-2.125-2.125m7.425-0.075v-3m5.3 5.2 2.125-2.125" fill="none" stroke="#56a644" stroke-width="1px"/><text id="text8" x="14.272461" y="12.551758" fill="#000000" font-family="sans-serif" font-size="2px" style="line-height:1.25" xml:space="preserve"><tspan id="tspan8" x="14.272461" y="12.551758" fill="#000000" font-size="2px">alarm-outline.svg</tspan></text></g></svg>
